<svg width="199" height="232" viewBox="0 0 199 232" fill="none" xmlns="http://www.w3.org/2000/svg">
<path d="M61.0212 44.459L17.5212 41.959L51.5212 71.459L66.0212 160.459L126.021 140.959L164.021 146.459L182.021 153.459L194.021 127.959L198.021 86.459L160.021 48.959H131.521L161.521 67.959H147.021L152.021 75.959H130.021L118.521 65.459L85.5212 62.459L63.5212 46.2957L61.0212 44.459Z" fill="#4D4D4D"/>
<path d="M0.52124 136.959L22.5212 181.459L47.0212 202.959L66.0212 160.459L51.5212 71.459L17.5212 41.959L13.316 65.459L48.5212 80.459L50.5212 112.459L22.5212 148.959L2.84756 123.959L0.52124 136.959Z" fill="#4D4D4D"/>
<path d="M47.0212 202.959L93.0212 230.959L140.521 227.959L169.521 190.459L182.021 153.459L164.021 146.459L126.021 140.959L66.0212 160.459L47.0212 202.959Z" fill="#4D4D4D"/>
<path d="M161.521 67.959L131.521 48.959L125.521 44.959L126.021 29.959L84.5212 0.958984V21.459C78.8546 28.2923 66.7212 42.8263 63.5212 46.2957L85.5212 62.459L118.521 65.459L130.021 75.959H152.021L147.021 67.959H161.521Z" fill="#272727"/>
<path d="M2.84756 123.959L22.5212 148.959L50.5212 112.459L48.5212 80.459L13.316 65.459L2.84756 123.959Z" fill="#272727"/>
<path d="M17.5212 41.959L61.0212 44.459L63.5212 46.2957M17.5212 41.959L51.5212 71.459L66.0212 160.459M17.5212 41.959L13.316 65.459M47.0212 202.959L22.5212 181.459L0.52124 136.959L2.84756 123.959M47.0212 202.959L93.0212 230.959L140.521 227.959L169.521 190.459L182.021 153.459M47.0212 202.959L66.0212 160.459M131.521 48.959H160.021L198.021 86.459L194.021 127.959L182.021 153.459M131.521 48.959L161.521 67.959H147.021L152.021 75.959H130.021L118.521 65.459L85.5212 62.459L63.5212 46.2957M131.521 48.959L125.521 44.959L126.021 29.959L84.5212 0.958984V21.459C78.8546 28.2923 66.7212 42.8263 63.5212 46.2957M66.0212 160.459L126.021 140.959L164.021 146.459L182.021 153.459M2.84756 123.959L22.5212 148.959L50.5212 112.459L48.5212 80.459L13.316 65.459M2.84756 123.959L13.316 65.459" stroke="black"/>
</svg>
