<svg width="147" height="335" viewBox="0 0 147 335" fill="none" xmlns="http://www.w3.org/2000/svg">
<path d="M73.6046 86.0322L35.6046 13.0322H0.604614L3.60461 22.5878L32.6046 22.0322L60.1046 72.0322L56.1046 90.0322L27.6046 99.0322L52.6046 146.532L87.1046 129.032L69.1046 88.0322L73.6046 86.0322Z" fill="#4D4D4D"/>
<path d="M27.6046 0.532227C18.9379 4.53223 1.40461 12.6322 0.604614 13.0322H35.6046L73.6046 86.0322L81.938 81.0322L93.6046 74.0322L62.1046 10.5322L27.6046 0.532227Z" fill="#4D4D4D"/>
<path d="M73.6046 86.0322L69.1046 88.0322L87.1046 129.032H99.1046L81.938 81.0322L73.6046 86.0322Z" fill="#4D4D4D"/>
<path d="M87.1046 136.532L52.6046 146.532L60.1046 158.032L51.6046 163.032L48.1046 186.532L73.1046 203.032L97.6046 245.532L103.605 244.064L138.605 237.532C119.771 204.852 87.9046 136.099 87.1046 136.532Z" fill="#4D4D4D"/>
<path d="M27.6046 99.0322L56.1046 90.0322L60.1046 72.0322L32.6046 22.0322L3.60461 22.5878L27.6046 99.0322Z" fill="#272727"/>
<path d="M87.1046 129.032L52.6046 146.532L87.1046 136.532L99.1046 129.032H87.1046Z" fill="#4D4D4D"/>
<path d="M103.605 244.064L97.6046 245.532L106.358 248.032C105.625 246.878 103.605 244.064 103.605 244.064Z" fill="#272727"/>
<path fill-rule="evenodd" clip-rule="evenodd" d="M133.105 245.532L106.358 248.032C107.234 249.412 107.832 250.488 108.105 251.032L107.105 263.532L90.1046 291.532C90.9379 294.199 92.8046 299.532 93.6046 299.532C94.226 299.532 99.6736 292.196 103.71 286.761C106.169 283.449 108.105 280.843 108.105 281.032C108.105 281.432 114.438 281.866 117.605 282.032L126.605 295.032V312.532L106.105 322.532L108.365 326.532L112.605 334.032L133.105 329.032L145.605 299.032L143.605 273.032L133.105 245.532Z" fill="#6D8E92"/>
<path d="M138.605 237.532L103.605 244.064C103.605 244.064 105.625 246.878 106.358 248.032L133.105 245.532L138.605 237.532Z" fill="#4D4D4D"/>
<path d="M0.604614 13.0322C1.40461 12.6322 18.9379 4.53223 27.6046 0.532227L62.1046 10.5322L93.6046 74.0322L81.938 81.0322M0.604614 13.0322H35.6046L73.6046 86.0322M0.604614 13.0322L3.60461 22.5878M73.6046 86.0322L69.1046 88.0322L87.1046 129.032M73.6046 86.0322L81.938 81.0322M87.1046 129.032L52.6046 146.532M87.1046 129.032H99.1046M52.6046 146.532L27.6046 99.0322M52.6046 146.532L87.1046 136.532M52.6046 146.532L60.1046 158.032L51.6046 163.032L48.1046 186.532L73.1046 203.032L97.6046 245.532M27.6046 99.0322L56.1046 90.0322L60.1046 72.0322L32.6046 22.0322L3.60461 22.5878M27.6046 99.0322L3.60461 22.5878M81.938 81.0322L99.1046 129.032M99.1046 129.032L87.1046 136.532M87.1046 136.532C87.9046 136.099 119.771 204.852 138.605 237.532M138.605 237.532L103.605 244.064M138.605 237.532L133.105 245.532M97.6046 245.532L103.605 244.064M97.6046 245.532L106.358 248.032M103.605 244.064C103.605 244.064 105.625 246.878 106.358 248.032M108.105 281.032C108.105 281.432 114.438 281.866 117.605 282.032L126.605 295.032V312.532L106.105 322.532L108.365 326.532M108.105 281.032C108.105 280.843 106.169 283.449 103.71 286.761C99.6736 292.196 94.226 299.532 93.6046 299.532C92.8046 299.532 90.9379 294.199 90.1046 291.532L107.105 263.532L108.105 251.032C107.832 250.488 107.234 249.412 106.358 248.032M108.105 281.032L114.105 277.032L130.605 284.532L131.105 303.532L126.605 319.532L108.365 326.532M133.105 245.532L143.605 273.032L145.605 299.032L133.105 329.032L112.605 334.032L108.365 326.532M133.105 245.532L106.358 248.032" stroke="black"/>
</svg>
