<svg width="140" height="353" viewBox="0 0 140 353" fill="none" xmlns="http://www.w3.org/2000/svg">
<path d="M76 162.529C73.5 162.029 68.2 161.029 67 161.029C58.5888 157.956 42.1087 151.806 41.5099 151.08L45.5 171.529L52 173.529L53 198.029L45.5 208.529V240.029L68.5 252.029L69.5 210.529L80.5 192.529L76 162.529Z" fill="#4D4D4D"/>
<path d="M77 147.853C70.6185 144.273 57.1076 135.847 49.5 131.029C47 137.529 41.9 150.629 41.5 151.029L41.5099 151.08C42.1087 151.806 58.5888 157.956 67 161.029L77 147.853Z" fill="#4D4D4D"/>
<path d="M41.5 151.029C41.9 150.629 47 137.529 49.5 131.029L46.5 129.329L37.5 149.529L41.5 151.029Z" fill="#4D4D4D"/>
<path d="M53.8115 75.5293C53.9623 75.599 41 106.892 34.5 122.529L38 124.513L46.5 129.329L49.5 131.029C57.1076 135.847 70.6185 144.273 77 147.853C79.0068 148.979 80.3086 149.625 80.5 149.529C81.3 149.129 95.8333 123.363 103 110.529L102.5 98.0293L67 81.624L53.8115 75.5293Z" fill="#4D4D4D"/>
<path d="M102.5 98.0293L117 87.0293L138.5 35.0293L125 9.0293L94 15.5293L80.5 30.0293L67 81.624L102.5 98.0293Z" fill="#4D4D4D"/>
<path d="M68.5 252.029L45.5 240.029L5 261.029L13.5 274.529H22.5L43.5 260.529L50.5 267.029L54.5 265.029L59 266.529L68.5 252.029Z" fill="#4D4D4D"/>
<path d="M43.5 260.529L22.5 274.529V303.529L31.8362 320.94C33.9846 317.392 45.8316 299.048 52 289.529L54.5 272.529L59 266.529L54.5 265.029L50.5 267.029L43.5 260.529Z" fill="#4D4D4D"/>
<path d="M104.5 0.529297L61.5 13.0293L36.5 67.5293L53.8115 75.5293L67 81.624L80.5 30.0293L94 15.5293L125 9.0293L104.5 0.529297Z" fill="#6D8E92"/>
<path d="M38 124.513L28.5 145.529L37.5 149.529L46.5 129.329L38 124.513Z" fill="#4D4D4D"/>
<path d="M37.5 149.529L28.5 145.529L0 189.529L7 200.529L5 261.029L45.5 240.029V208.529L53 198.029L52 173.529L45.5 171.529L41.5099 151.08C41.4917 151.058 41.4882 151.041 41.5 151.029L37.5 149.529Z" fill="#6D8E92"/>
<path d="M41 338.029L64.5 351.529L77 345.529L76 341.029L65 340.529L47 330.529L45.5 319.529L50.5 329.529L65 335.029H82L88.5 327.029L84 322.029L76 325.029L59 314.529L58 296.529L67.5 290.029C72 293.696 81 301.129 81 301.529C81 301.929 83.6667 308.029 85 311.029L93.5 308.529L90.5 293.529L75 280.029L71.5 274.529L54.5 272.529L52 289.529C45.8316 299.048 33.9846 317.392 31.8362 320.94L41 338.029Z" fill="#6D8E92"/>
<path d="M102.5 98.0293L117 87.0293L138.5 35.0293L125 9.0293M102.5 98.0293L103 110.529C95.8333 123.363 81.3 149.129 80.5 149.529C80.3086 149.625 79.0068 148.979 77 147.853M102.5 98.0293L67 81.624M125 9.0293L104.5 0.529297L61.5 13.0293L36.5 67.5293L53.8115 75.5293M125 9.0293L94 15.5293L80.5 30.0293L67 81.624M53.8115 75.5293C53.9623 75.599 41 106.892 34.5 122.529L38 124.513M53.8115 75.5293L67 81.624M49.5 131.029C57.1076 135.847 70.6185 144.273 77 147.853M49.5 131.029C47 137.529 41.9 150.629 41.5 151.029M49.5 131.029L46.5 129.329M77 147.853L67 161.029M67 161.029C68.2 161.029 73.5 162.029 76 162.529L80.5 192.529L69.5 210.529L68.5 252.029M67 161.029C58.5888 157.956 42.1087 151.806 41.5099 151.08M41.5 151.029L37.5 149.529M41.5 151.029C41.4882 151.041 41.4917 151.058 41.5099 151.08M41.5 151.029L41.5099 151.08M38 124.513L28.5 145.529M38 124.513L46.5 129.329M28.5 145.529L37.5 149.529M28.5 145.529L0 189.529L7 200.529L5 261.029M37.5 149.529L46.5 129.329M68.5 252.029L45.5 240.029M68.5 252.029L59 266.529M45.5 240.029L5 261.029M45.5 240.029V208.529L53 198.029L52 173.529L45.5 171.529L41.5099 151.08M5 261.029L13.5 274.529H22.5M22.5 274.529L43.5 260.529L50.5 267.029L54.5 265.029L59 266.529M22.5 274.529V303.529L31.8362 320.94M59 266.529L54.5 272.529M54.5 272.529L71.5 274.529L75 280.029L90.5 293.529L93.5 308.529L85 311.029C83.6667 308.029 81 301.929 81 301.529C81 301.129 72 293.696 67.5 290.029L58 296.529L59 314.529L76 325.029L84 322.029L88.5 327.029L82 335.029H65L50.5 329.529L45.5 319.529L47 330.529L65 340.529L76 341.029L77 345.529L64.5 351.529L41 338.029L31.8362 320.94M54.5 272.529L52 289.529C45.8316 299.048 33.9846 317.392 31.8362 320.94M31.5 321.529C31.5172 321.478 31.6336 321.275 31.8362 320.94" stroke="black"/>
</svg>
