<svg width="131" height="122" viewBox="0 0 131 122" fill="none" xmlns="http://www.w3.org/2000/svg">
<path d="M34.156 107.5L69.656 13.5L16.656 20L0.656006 70L21.156 73L34.156 107.5Z" fill="#4B4B4B"/>
<path d="M69.656 13.5L50.156 0L16.656 20L69.656 13.5Z" fill="#4B4B4B"/>
<path d="M129.656 28L90.656 7L50.156 0L69.656 13.5L129.656 28Z" fill="#4B4B4B"/>
<path fill-rule="evenodd" clip-rule="evenodd" d="M34.156 107.5L90.656 120.5L129.656 28L69.656 13.5L34.156 107.5ZM104.656 38L95.156 63.5L104.656 66.5L115.656 41.5L104.656 38ZM65.656 56L75.656 31.5L85.656 34L75.656 58.5L65.656 56Z" fill="#4B4B4B"/>
<path d="M75.656 31.5L65.656 56L75.656 58.5L85.656 34L75.656 31.5Z" fill="#0BC2D6"/>
<path d="M104.656 38L95.156 63.5L104.656 66.5L115.656 41.5L104.656 38Z" fill="#0BC2D6"/>
<path d="M34.156 107.5L90.656 120.5L129.656 28M34.156 107.5L69.656 13.5M34.156 107.5L21.156 73L0.656006 70L16.656 20M129.656 28L90.656 7L50.156 0M129.656 28L69.656 13.5M50.156 0L69.656 13.5M50.156 0L16.656 20M69.656 13.5L16.656 20M75.656 31.5L65.656 56L75.656 58.5L85.656 34L75.656 31.5ZM104.656 38L95.156 63.5L104.656 66.5L115.656 41.5L104.656 38Z" stroke="black"/>
</svg>
