<svg width="127" height="162" viewBox="0 0 127 162" fill="none" xmlns="http://www.w3.org/2000/svg">
<path d="M88.0849 33.0391L54.5848 0.539062L17.5439 7.53906L0.543945 75.5391L26.0849 108.539C25.2849 107.339 36.4182 97.3724 42.0848 92.5391V62.5391L51.5848 50.5391L83.5849 47.5391L88.0849 33.0391Z" fill="#4B4B4B"/>
<path d="M51.5848 50.5391L42.0848 62.5391L81.5849 143.539L90.5848 155.039L98.0848 143.539L51.5848 50.5391Z" fill="#4B4B4B"/>
<path d="M42.0848 62.5391V92.5391C36.4182 97.3724 25.2849 107.339 26.0849 108.539C26.8849 109.739 42.2106 141.872 51.5439 161.039L69.0439 155.539L81.5849 143.539L42.0848 62.5391Z" fill="#4B4B4B"/>
<path d="M83.5849 47.5391L51.5848 50.5391L98.0848 143.539L90.5848 155.039L123.085 147.539L125.585 118.039L83.5849 47.5391Z" fill="#4B4B4B"/>
<path d="M83.5849 47.5391L88.0849 33.0391L54.5848 0.539062L17.5439 7.53906L0.543945 75.5391L26.0849 108.539M83.5849 47.5391L51.5848 50.5391M83.5849 47.5391L125.585 118.039L123.085 147.539L90.5848 155.039M51.5848 50.5391L42.0848 62.5391M51.5848 50.5391L98.0848 143.539L90.5848 155.039M42.0848 62.5391V92.5391C36.4182 97.3724 25.2849 107.339 26.0849 108.539M42.0848 62.5391L81.5849 143.539M26.0849 108.539C26.8849 109.739 42.2106 141.872 51.5439 161.039L69.0439 155.539L81.5849 143.539M81.5849 143.539L90.5848 155.039" stroke="black"/>
</svg>
