<svg width="119" height="172" viewBox="0 0 119 172" fill="none" xmlns="http://www.w3.org/2000/svg">
<path d="M32.5044 0.607422L1.50439 32.1074L0.504395 71.6074L14.0044 88.6074L59.5044 44.6074L55.0044 11.6074L46.5044 7.45187L32.5044 0.607422Z" fill="#4B4B4B"/>
<path d="M55.0044 11.6074L59.5044 44.6074V52.1074H97.0044L96.0044 19.1074L69.5044 1.10742C62.1711 3.10742 47.3044 7.17631 46.5044 7.45187L55.0044 11.6074Z" fill="#4B4B4B"/>
<path d="M59.5044 44.6074L14.0044 88.6074H20.0044L59.5044 52.1074V44.6074Z" fill="#4B4B4B"/>
<path d="M84.0044 143.107C75.8377 113.607 59.5044 54.1074 59.5044 52.1074L20.0044 88.6074V95.6074C29.0044 120.607 42.5044 170.107 42.5044 170.107C42.5599 170.1 46.4486 171.115 46.5044 171.107C46.5044 171.107 72.2641 152.468 84.0044 143.107Z" fill="#4B4B4B"/>
<path d="M97.0044 52.1074H59.5044C59.5044 54.1074 75.8377 113.607 84.0044 143.107C95.0044 145.441 117.204 150.007 118.004 149.607C118.004 149.607 113.504 110.607 112.504 110.107C111.704 109.707 101.838 71.2741 97.0044 52.1074Z" fill="#4B4B4B"/>
<path d="M118.004 149.607C117.204 150.007 95.0044 145.441 84.0044 143.107C72.2641 152.468 46.5044 171.107 46.5044 171.107C64.3936 168.766 106.207 164.506 107.004 164.107L118.004 149.607Z" fill="#4B4B4B"/>
<path d="M14.0044 88.6074L59.5044 44.6074M14.0044 88.6074L0.504395 71.6074L1.50439 32.1074L32.5044 0.607422L46.5044 7.45187M14.0044 88.6074H20.0044M59.5044 44.6074L55.0044 11.6074L46.5044 7.45187M59.5044 44.6074V52.1074M46.5044 7.45187C47.3044 7.17631 62.1711 3.10742 69.5044 1.10742L96.0044 19.1074L97.0044 52.1074M97.0044 52.1074H59.5044M97.0044 52.1074C101.838 71.2741 111.704 109.707 112.504 110.107C113.504 110.607 118.004 149.607 118.004 149.607M59.5044 52.1074C59.5044 54.1074 75.8377 113.607 84.0044 143.107M59.5044 52.1074L20.0044 88.6074M84.0044 143.107C95.0044 145.441 117.204 150.007 118.004 149.607M84.0044 143.107C72.2641 152.468 46.5044 171.107 46.5044 171.107M42.5044 170.107C42.5044 170.107 29.0044 120.607 20.0044 95.6074V88.6074M42.5044 170.107C42.5599 170.1 46.4486 171.115 46.5044 171.107M42.5044 170.107C42.5044 170.146 46.3944 171.159 46.5044 171.107M118.004 149.607L107.004 164.107C106.207 164.506 64.3936 168.766 46.5044 171.107" stroke="black"/>
</svg>
