<svg width="156" height="276" viewBox="0 0 156 276" fill="none" xmlns="http://www.w3.org/2000/svg">
<path d="M22.4569 70.0605L54.4569 85.0605L56.4569 42.5605L40.9569 25.4965L33.9569 26.5605L28.9569 19.5605L22.9569 22.5605L22.4569 32.5605V70.0605Z" fill="#4B4B4B"/>
<path d="M65.9569 80.0605L70.4569 41.5605L56.4569 42.5605L54.4569 85.0605L65.9569 80.0605Z" fill="#4B4B4B"/>
<path d="M70.4569 41.5605L65.9569 80.0605L89.9569 76.1896L96.9569 75.0605L101.457 34.0605L70.4569 41.5605Z" fill="#4B4B4B"/>
<path d="M101.457 34.0605L91.9569 25.0605L87.2699 25.4965L70.4569 27.0605L62.9159 29.1172L59.4569 30.0605L40.9569 25.4965L56.4569 42.5605L70.4569 41.5605L101.457 34.0605Z" fill="#4B4B4B"/>
<path d="M70.4569 27.0605L87.2699 25.4965L61.4159 0.560547L45.9159 5.06055C51.4159 12.5605 62.5159 27.8719 62.9159 29.1172L70.4569 27.0605Z" fill="#272727"/>
<path d="M54.4569 85.0605L22.4569 70.0605L0.956909 85.0605V104.561C1.75691 106.561 17.6236 161.727 25.4569 189.061L30.4569 194.464L51.1634 216.84L56.4569 222.561L53.9569 171.561L45.9159 129.061L54.4569 85.0605Z" fill="#4B4B4B"/>
<path d="M65.9569 80.0605L54.4569 85.0605L45.9159 129.061H82.9569L96.9569 107.061L98.9569 90.0605L89.9569 76.1896L65.9569 80.0605Z" fill="#4B4B4B"/>
<path d="M93.9569 217.061L82.9569 129.061H45.9159L53.9569 171.561L56.4569 222.561L65.9569 221.561L67.9569 206.561L76.9569 207.061L84.4569 218.454L93.9569 217.061Z" fill="#4B4B4B"/>
<path d="M25.4569 189.061L11.9569 218.561L17.9569 217.061L30.4569 194.464L25.4569 189.061Z" fill="#4B4B4B"/>
<path d="M11.9569 218.561L30.4569 238.172C31.7914 237.375 33.1272 236.576 34.4569 235.78L17.9569 217.061L11.9569 218.561Z" fill="#4B4B4B"/>
<path d="M126.957 275.061L56.4569 222.561L51.1634 216.84L40.9569 225.061L34.4569 235.78C33.1272 236.576 31.7914 237.375 30.4569 238.172L22.9569 246.251L18.9569 250.561L7.95691 249.561L0.956909 258.061L126.957 275.061Z" fill="#4B4B4B"/>
<path fill-rule="evenodd" clip-rule="evenodd" d="M126.957 275.061L56.4569 222.561L65.9569 221.561L84.4569 218.454L117.457 243.061L128.957 241.061L155.457 268.561L126.957 275.061Z" fill="#4B4B4B"/>
<path d="M67.9569 206.561L65.9569 221.561L84.4569 218.454L76.9569 207.061L67.9569 206.561Z" fill="#272727"/>
<path d="M70.4569 41.5605L65.9569 80.0605M70.4569 41.5605L101.457 34.0605M70.4569 41.5605L56.4569 42.5605M65.9569 80.0605L54.4569 85.0605M65.9569 80.0605L89.9569 76.1896M54.4569 85.0605L22.4569 70.0605M54.4569 85.0605L56.4569 42.5605M54.4569 85.0605L45.9159 129.061M22.4569 70.0605V32.5605L22.9569 22.5605L28.9569 19.5605L33.9569 26.5605L40.9569 25.4965M22.4569 70.0605L0.956909 85.0605V104.561C1.75691 106.561 17.6236 161.727 25.4569 189.061M40.9569 25.4965L56.4569 42.5605M40.9569 25.4965L59.4569 30.0605L62.9159 29.1172M70.4569 27.0605L91.9569 25.0605M70.4569 27.0605L62.9159 29.1172M70.4569 27.0605L87.2699 25.4965M91.9569 25.0605L101.457 34.0605M91.9569 25.0605L87.2699 25.4965M101.457 34.0605L96.9569 75.0605L89.9569 76.1896M25.4569 189.061L11.9569 218.561M25.4569 189.061L30.4569 194.464M56.4569 222.561L126.957 275.061M56.4569 222.561L51.1634 216.84M56.4569 222.561L65.9569 221.561M56.4569 222.561L53.9569 171.561L45.9159 129.061M82.9569 129.061L93.9569 217.061L84.4569 218.454M82.9569 129.061L96.9569 107.061L98.9569 90.0605L89.9569 76.1896M82.9569 129.061H45.9159M126.957 275.061L0.956909 258.061L7.95691 249.561M126.957 275.061L155.457 268.561L128.957 241.061L117.457 243.061L84.4569 218.454M84.4569 218.454L76.9569 207.061L67.9569 206.561L65.9569 221.561M84.4569 218.454L65.9569 221.561M11.9569 218.561L30.4569 238.172M11.9569 218.561L17.9569 217.061M30.4569 238.172C31.7914 237.375 33.1272 236.576 34.4569 235.78M30.4569 238.172L22.9569 246.251M34.4569 235.78L17.9569 217.061M34.4569 235.78L40.9569 225.061L51.1634 216.84M17.9569 217.061L30.4569 194.464M30.4569 194.464L51.1634 216.84M62.9159 29.1172C62.5159 27.8719 51.4159 12.5605 45.9159 5.06055L61.4159 0.560547L87.2699 25.4965M7.95691 249.561L18.9569 250.561L22.9569 246.251M7.95691 249.561L22.9569 246.251" stroke="black"/>
</svg>
