<svg width="213" height="295" viewBox="0 0 213 295" fill="none" xmlns="http://www.w3.org/2000/svg">
<path d="M171.5 48.5596C171.362 47.3596 157.776 33.7262 151 27.0596L131 42.0596L129 69.5596L149.5 94.0596L171.5 48.5596Z" fill="#4B4B4B"/>
<path d="M166 0.55957L171.5 48.5596L195.5 53.0596L186 2.55957L166 0.55957Z" fill="#272727"/>
<path d="M195.5 53.0596L171.5 48.5596L149.5 94.0596L179.827 103.56L191 107.06L211.5 75.5596C206.5 68.3929 196.3 53.8596 195.5 53.0596Z" fill="#4B4B4B"/>
<path d="M133 103.56C121.5 87.2262 114.8 70.7596 114 69.5596L71 96.0596L44.5 176.56V216.56L61 191.56L93.5 133.06L133 103.56Z" fill="#4B4B4B"/>
<path d="M149.5 94.0596L129 69.5596H114C114.8 70.7596 121.5 87.2262 133 103.56L177.5 129.06L179.827 103.56L149.5 94.0596Z" fill="#4B4B4B"/>
<path d="M177.5 129.06L133 103.56L93.5 133.06L123 169.06L177.5 129.06Z" fill="#4B4B4B"/>
<path d="M91 234.06L123 169.06L93.5 133.06L61 191.56L44.5 216.56C48.5 218.226 56.6 221.46 57 221.06C57.4 220.66 64.5 210.56 68 205.56L81.5 211.696L90 215.56L78 229.192C82.8118 230.979 87.3571 232.683 91 234.06Z" fill="#4B4B4B"/>
<path d="M78 229.192L90 215.56L81.5 211.696C80.7569 212.908 79.8121 214.445 78.8152 216.06L78 229.192Z" fill="#4B4B4B"/>
<path d="M8.5 263.06L0 274.56L67.9565 294.047C66.9656 293.553 58.4828 278.431 50 263.31C41.375 247.935 32.75 232.56 32 232.56L22.3607 260.56L21.5 263.06H8.5Z" fill="#4B4B4B"/>
<path d="M84.5 251.56H66L76.4 277.56H82.5L84.5 251.56Z" fill="#4B4B4B"/>
<path d="M114 288.56L84.5 251.56L82.5 277.56L114 288.56Z" fill="#4B4B4B"/>
<path fill-rule="evenodd" clip-rule="evenodd" d="M50 263.31C41.375 247.935 32.75 232.56 32 232.56L56 230.56L72 231.56C73.6667 231.893 77.2 232.56 78 232.56L101.5 251.56C110.833 263.56 129.8 287.76 131 288.56C132.2 289.36 120.167 288.893 114 288.56L84.5 251.56H66L76.4 277.56L83 294.06H68L67.9565 294.047C66.9656 293.553 58.4828 278.431 50 263.31Z" fill="#4B4B4B"/>
<path d="M68 205.56C64.5 210.56 57.4 220.66 57 221.06L56 230.56L72 231.56C72 229.893 72.1 226.46 72.5 226.06C72.7951 225.764 76.011 220.602 78.8152 216.06C79.8121 214.445 80.7569 212.908 81.5 211.696L68 205.56Z" fill="#272727"/>
<path d="M171.5 48.5596L166 0.55957L186 2.55957L195.5 53.0596M171.5 48.5596L195.5 53.0596M171.5 48.5596C171.362 47.3596 157.776 33.7262 151 27.0596L131 42.0596L129 69.5596M171.5 48.5596L149.5 94.0596M195.5 53.0596C196.3 53.8596 206.5 68.3929 211.5 75.5596L191 107.06L179.827 103.56M129 69.5596L149.5 94.0596M129 69.5596H114M149.5 94.0596L179.827 103.56M114 69.5596C114.8 70.7596 121.5 87.2262 133 103.56M114 69.5596L71 96.0596L44.5 176.56V216.56M133 103.56L177.5 129.06M133 103.56L93.5 133.06M177.5 129.06L179.827 103.56M177.5 129.06L123 169.06M123 169.06L91 234.06C87.3571 232.683 82.8118 230.979 78 229.192M123 169.06L93.5 133.06M32 232.56L56 230.56M32 232.56L22.3607 260.56M32 232.56C32.75 232.56 41.375 247.935 50 263.31C58.4828 278.431 66.9656 293.553 67.9565 294.047M68 294.06C69.2 294.06 78.5 294.06 83 294.06M68 294.06L67.9565 294.047M68 294.06H83M68 294.06C67.9876 294.06 67.9731 294.055 67.9565 294.047M83 294.06L76.4 277.56M84.5 251.56H66L76.4 277.56M84.5 251.56L114 288.56M84.5 251.56L82.5 277.56M114 288.56C120.167 288.893 132.2 289.36 131 288.56C129.8 287.76 110.833 263.56 101.5 251.56L78 232.56C77.2 232.56 73.6667 231.893 72 231.56M114 288.56L82.5 277.56M78 229.192L90 215.56L81.5 211.696M78 229.192L78.8152 216.06M8.5 263.06L0 274.56L67.9565 294.047M8.5 263.06H21.5L22.3607 260.56M8.5 263.06L22.3607 260.56M44.5 216.56C48.5 218.226 56.6 221.46 57 221.06M44.5 216.56L61 191.56L93.5 133.06M57 221.06C57.4 220.66 64.5 210.56 68 205.56L81.5 211.696M57 221.06L56 230.56M56 230.56L72 231.56M72 231.56C72 229.893 72.1 226.46 72.5 226.06C72.7951 225.764 76.011 220.602 78.8152 216.06M81.5 211.696C80.7569 212.908 79.8121 214.445 78.8152 216.06M82.5 277.56H76.4" stroke="black"/>
</svg>
