<svg width="133" height="137" viewBox="0 0 133 137" fill="none" xmlns="http://www.w3.org/2000/svg">
<path d="M40.309 57.0205H0.80896L50.809 72.5205L73.309 136.021L109.809 131.521L127.309 111.021L132.309 83.0205V59.0205V49.5205L117.809 33.5205H97.309H69.809H50.809H40.309H26.309L40.309 57.0205Z" fill="#4B4B4B"/>
<path d="M30.809 0.520508L40.309 33.5205H50.809L46.809 23.0205V7.52051C47.609 7.52051 57.809 13.8538 62.809 17.0205H70.809L69.809 33.5205H97.309L113.309 3.02051L30.809 0.520508Z" fill="#272727"/>
<path d="M73.309 136.021L50.809 72.5205L0.80896 57.0205L28.809 113.021L73.309 136.021Z" fill="#272727"/>
<path d="M0.80896 57.0205H40.309L26.309 33.5205H40.309M0.80896 57.0205L50.809 72.5205L73.309 136.021M0.80896 57.0205L28.809 113.021L73.309 136.021M40.309 33.5205L30.809 0.520508L113.309 3.02051L97.309 33.5205M40.309 33.5205H50.809M97.309 33.5205H117.809L132.309 49.5205V59.0205V83.0205L127.309 111.021L109.809 131.521L73.309 136.021M97.309 33.5205H69.809M50.809 33.5205L46.809 23.0205V7.52051C47.609 7.52051 57.809 13.8538 62.809 17.0205H70.809L69.809 33.5205M50.809 33.5205H69.809" stroke="black"/>
</svg>
