<svg width="19" height="34" viewBox="0 0 19 34" fill="none" xmlns="http://www.w3.org/2000/svg">
<path d="M10.0696 32.6147C11.8506 32.2528 13.4804 31.3604 14.7447 30.0548L15.1527 29.6334C16.159 28.5943 16.9483 27.3652 17.4745 26.0179L17.6776 25.498C18.2211 24.1065 18.5 22.6258 18.5 21.132V19.6904C18.5 18.3168 18.2642 16.9534 17.8027 15.6595L17.1285 13.769C16.8286 12.928 16.4357 12.1231 15.9573 11.3693L14.4656 9.01919C13.967 8.23366 13.3788 7.50878 12.7127 6.85916L9.84177 4.05912L6.1962 1.17023L8.33038 6.6141C8.87743 8.00954 9.15823 9.49511 9.15823 10.9939V12.8051C9.15823 14.3668 8.85337 15.9136 8.26076 17.3585L7.33544 19.6147L6.55395 21.1391C5.86958 22.474 5.51266 23.9526 5.51266 25.4527V26.0006C5.51266 27.0629 5.75242 28.1116 6.21408 29.0684C6.93823 30.5692 8.16993 31.7655 9.69123 32.4455L10.0696 32.6147Z" fill="#00B300"/>
<path d="M6.1962 1.17023L7.06552 7.2748C7.24434 8.53048 7.22295 9.80657 7.00216 11.0556L6.7892 12.2602C6.40262 14.447 5.37449 16.4695 3.83552 18.0706C3.13407 18.8003 2.5348 19.6218 2.0541 20.5126L1.49663 21.5456C0.842483 22.7578 0.5 24.1136 0.5 25.491V26.0397C0.5 27.3553 0.897198 28.6402 1.6396 29.7263C2.38156 30.8118 3.43376 31.6481 4.65865 32.126L5.11221 32.3029C6.56359 32.8691 8.14736 33.0053 9.67408 32.695L10.0696 32.6147L9.69123 32.4455C8.16993 31.7655 6.93823 30.5692 6.21408 29.0684C5.75242 28.1116 5.51266 27.0629 5.51266 26.0006V25.4527C5.51266 23.9526 5.86958 22.474 6.55395 21.1391L7.33544 19.6147L8.26076 17.3585C8.85337 15.9136 9.15823 14.3668 9.15823 12.8051V10.9939C9.15823 9.49511 8.87743 8.00954 8.33038 6.6141L6.1962 1.17023Z" fill="#01E101"/>
<path d="M6.1962 1.17023L7.06552 7.2748C7.24434 8.53048 7.22295 9.80657 7.00216 11.0556L6.7892 12.2602C6.40262 14.447 5.37449 16.4695 3.83552 18.0706C3.13407 18.8003 2.5348 19.6218 2.0541 20.5126L1.49663 21.5456C0.842483 22.7578 0.5 24.1136 0.5 25.491V26.0397C0.5 27.3553 0.897198 28.6402 1.6396 29.7263C2.38156 30.8118 3.43376 31.6481 4.65865 32.126L5.11221 32.3029C6.56359 32.8691 8.14736 33.0053 9.67408 32.695L10.0696 32.6147M6.1962 1.17023L9.84177 4.05912L12.7127 6.85916C13.3788 7.50878 13.967 8.23366 14.4656 9.01919L15.9573 11.3693C16.4357 12.1231 16.8286 12.928 17.1285 13.769L17.8027 15.6595C18.2642 16.9534 18.5 18.3168 18.5 19.6904V21.132C18.5 22.6258 18.2211 24.1065 17.6776 25.498L17.4745 26.0179C16.9483 27.3652 16.159 28.5943 15.1527 29.6334L14.7447 30.0548C13.4804 31.3604 11.8506 32.2528 10.0696 32.6147M6.1962 1.17023L8.33038 6.6141C8.87743 8.00954 9.15823 9.49511 9.15823 10.9939V12.8051C9.15823 14.3668 8.85337 15.9136 8.26076 17.3585L7.33544 19.6147L6.55395 21.1391C5.86958 22.474 5.51266 23.9526 5.51266 25.4527V26.0006C5.51266 27.0629 5.75242 28.1116 6.21408 29.0684C6.93823 30.5692 8.16993 31.7655 9.69123 32.4455L10.0696 32.6147" stroke="#008400"/>
</svg>
