<svg width="36" height="34" viewBox="0 0 36 34" fill="none" xmlns="http://www.w3.org/2000/svg">
<path d="M0.5 27.8677V31.9312L4.05556 32.9471V29.8995L7.61111 26.3439L12.6905 30.9154L14.7222 28.8836L12.1825 27.3598L10.6587 24.8201L28.4365 8.56615L31.4841 0.947098L23.3571 4.50265L7.61111 21.2646L4.56349 20.2487L3.03968 17.2011L1.51587 20.2487L5.57937 24.8201L2.53175 28.3757L0.5 27.8677Z" fill="#AA0000" stroke="#560000"/>
<path opacity="0.5" d="M28.8164 12.1217L23.8651 18.3971H26.6822V31.4233H31.2067V18.3971H34.0238L28.8164 12.1217Z" fill="url(#paint0_linear_393_787)" stroke="#560000"/>
<path d="M26.7846 14.1534L21.8333 20.0986H24.6505V32.4392H29.1749V20.0986H31.9921L26.7846 14.1534Z" fill="url(#paint1_linear_393_787)" stroke="#560000"/>
<defs>
<linearGradient id="paint0_linear_393_787" x1="28.9444" y1="12.1217" x2="28.9444" y2="31.4233" gradientUnits="userSpaceOnUse">
<stop stop-color="#FF0000"/>
<stop offset="1" stop-color="#AA0000"/>
</linearGradient>
<linearGradient id="paint1_linear_393_787" x1="26.9127" y1="14.1534" x2="26.9127" y2="32.4392" gradientUnits="userSpaceOnUse">
<stop stop-color="#FF0000"/>
<stop offset="1" stop-color="#AA0000"/>
</linearGradient>
</defs>
</svg>
