<svg width="34" height="34" viewBox="0 0 34 34" fill="none" xmlns="http://www.w3.org/2000/svg">
<path d="M32.1447 14.4536L17.5151 11.7536L18.0151 18.2536L13.9276 15.5524L12.7092 19.8536L16.2429 32.2536L20.3656 19.8536L32.1447 14.4536Z" fill="#A0B6B8"/>
<path d="M10.746 0.253632L12.7092 14.2536L0.144745 16.0536L12.7092 19.8536L13.9276 15.5524L18.0151 18.2536L17.5151 11.7536L10.746 0.253632Z" fill="#A0B6B8"/>
<path d="M17.5151 11.7536L10.746 0.253632L12.7092 14.2536L0.144745 16.0536L12.7092 19.8536M17.5151 11.7536L32.1447 14.4536L20.3656 19.8536L16.2429 32.2536L12.7092 19.8536M17.5151 11.7536L18.0151 18.2536L13.9276 15.5524L12.7092 19.8536" stroke="#808080"/>
</svg>
