<svg width="64" height="64" viewBox="0 0 64 64" fill="none" xmlns="http://www.w3.org/2000/svg">
<rect width="64" height="64" rx="5" fill="#E1CFA6"/>
<g clip-path="url(#clip0_17_1134)">
<path d="M17 42.5V46.5L20.5 47.5V44.5L24 41L29 45.5L31 43.5L28.5 42L27 39.5L44.5 23.5L47.5 16L39.5 19.5L24 36L21 35L19.5 32L18 35L22 39.5L19 43L17 42.5Z" fill="#AA0000" stroke="#560000"/>
</g>
<path d="M20.4025 10.8226C26.4061 12.3969 31.6409 14.9509 36.2053 18.3392L36.4601 18.5287L36.7404 18.3783C40.9694 16.0985 45.497 14.2288 50.2756 12.7162C47.3606 14.4103 44.4914 16.1615 41.6682 17.9926L42.1467 18.8676C44.3432 17.8687 46.6383 16.9488 49.0041 16.1107C47.8508 16.9246 46.7071 17.7497 45.5842 18.5814L46.0275 19.4613C47.7483 18.9358 49.5037 18.4701 51.3078 18.0687C48.3563 19.6891 45.4632 21.4086 42.6242 23.2357L42.1203 23.5599L42.5305 23.9984C46.5751 28.3151 49.9623 33.4545 52.7951 39.266C50.4706 36.6481 48.0734 34.114 45.6144 31.6703L44.8537 32.3129C48.7447 37.818 51.4875 44.1599 53.2824 51.1801C50.5376 46.511 47.5794 41.9903 44.4064 37.6381L43.5734 38.1908C44.3756 39.5243 45.386 41.8782 46.2043 43.9291C46.2136 43.9525 46.2223 43.9761 46.2316 43.9994L44.1496 41.0619L43.2668 41.5062C44.1617 44.2302 44.8996 47.0694 45.4777 50.0189C41.9092 43.0758 37.7373 36.6771 32.6691 30.8773L32.3576 30.5199L31.9846 30.8129C29.7072 32.6028 27.4671 34.482 25.2599 36.4535C26.9312 34.3842 28.5272 32.4718 30.0129 30.931L29.4699 30.1195C26.5609 31.2631 24.0508 33.7652 21.7668 36.7133C19.4893 39.6529 17.3742 43.1204 15.301 46.2523C13.9386 47.7261 12.5899 49.2439 11.2531 50.807C13.5191 44.7265 16.6306 39.4604 20.4455 34.8988L19.7433 34.1927C17.9778 35.6537 16.2174 37.1237 14.4767 38.6244C17.8945 33.414 21.9146 28.9928 26.4455 25.2621L26.8889 24.8969L26.466 24.5082C22.9057 21.2307 18.9663 18.1901 14.5812 15.3969C17.5009 16.2018 20.2326 17.2501 22.8058 18.4974L23.3049 17.6342C19.9267 15.3408 16.4945 13.1154 12.9611 11.0082C16.9823 11.8241 20.6757 13.046 24.0939 14.6312L24.5988 13.7738C23.2176 12.7709 21.8149 11.789 20.4025 10.8226Z" fill="#FF0000" stroke="#AA0000"/>
<defs>
<clipPath id="clip0_17_1134">
<rect width="32" height="32" fill="white" transform="translate(16 16)"/>
</clipPath>
</defs>
</svg>
