<svg width="64" height="64" viewBox="0 0 64 64" fill="none" xmlns="http://www.w3.org/2000/svg">
<rect width="64" height="64" rx="5" fill="#E1CFA6"/>
<path d="M29.3495 19.871L27.5825 17.2903L34.6505 16L32.6311 19.871L33.8932 25.2903L40.4563 30.1935L44.2427 37.1613L45 41.8064L41.9709 48H25.5631L19.7573 43.3548L19 35.871L22.0291 29.1613L28.3398 24.5161L29.3495 19.871Z" fill="#F9C435"/>
<path d="M29.3495 19.871L27.5825 17.2903L34.6505 16L32.6311 19.871M29.3495 19.871L28.3398 24.5161M29.3495 19.871H32.6311M28.3398 24.5161L22.0291 29.1613L19 35.871L19.7573 43.3548L25.5631 48H41.9709L45 41.8065L44.2427 37.1613L40.4563 30.1935L33.8932 25.2903M28.3398 24.5161L33.8932 25.2903M33.8932 25.2903L32.6311 19.871M33.8932 29.1613H29.3495L26.8252 32.2581L29.3495 35.6129L33.8932 35.871L35.4078 40.2581L32.6311 43.3548L27.5825 42.8387M31.1165 44.9032L30.6117 26.8387M31.8738 26.8387L32.3786 44.9032" stroke="black"/>
</svg>
