<svg width="64" height="64" viewBox="0 0 64 64" fill="none" xmlns="http://www.w3.org/2000/svg">
<rect width="64" height="64" rx="5" fill="#E1CFA6"/>
<path d="M29.3495 19.871L27.5825 17.2903L34.6505 16L32.6311 19.871L33.8932 25.2903L40.4563 30.1935L44.2427 37.1613L45 41.8064L41.9709 48H25.5631L19.7573 43.3548L19 35.871L22.0291 29.1613L28.3398 24.5161L29.3495 19.871Z" fill="#F9C435"/>
<path d="M29.3495 19.871L27.5825 17.2903L34.6505 16L32.6311 19.871M29.3495 19.871L28.3398 24.5161M29.3495 19.871H32.6311M28.3398 24.5161L22.0291 29.1613L19 35.871L19.7573 43.3548L25.5631 48H41.9709L45 41.8065L44.2427 37.1613L40.4563 30.1935L33.8932 25.2903M28.3398 24.5161L33.8932 25.2903M33.8932 25.2903L32.6311 19.871M33.8932 29.1613H29.3495L26.8252 32.2581L29.3495 35.6129L33.8932 35.871L35.4078 40.2581L32.6311 43.3548L27.5825 42.8387M31.1165 44.9032L30.6117 26.8387M31.8738 26.8387L32.3786 44.9032" stroke="black"/>
<path d="M20.4025 10.8227C26.4061 12.3969 31.6409 14.9509 36.2053 18.3393L36.4601 18.5287L36.7404 18.3783C40.9694 16.0985 45.497 14.2289 50.2756 12.7162C47.3606 14.4103 44.4914 16.1615 41.6682 17.9926L42.1467 18.8676C44.3432 17.8688 46.6383 16.9488 49.0041 16.1107C47.8508 16.9246 46.7071 17.7497 45.5842 18.5815L46.0275 19.4613C47.7483 18.9358 49.5037 18.4702 51.3078 18.0688C48.3563 19.6892 45.4632 21.4087 42.6242 23.2357L42.1203 23.56L42.5305 23.9984C46.5751 28.3152 49.9623 33.4546 52.7951 39.266C50.4706 36.6481 48.0734 34.114 45.6144 31.6703L44.8537 32.3129C48.7447 37.8181 51.4875 44.16 53.2824 51.1801C50.5376 46.5111 47.5794 41.9904 44.4064 37.6381L43.5734 38.1908C44.3756 39.5244 45.386 41.8782 46.2043 43.9291C46.2136 43.9525 46.2223 43.9761 46.2316 43.9994L44.1496 41.0619L43.2668 41.5063C44.1617 44.2302 44.8996 47.0694 45.4777 50.019C41.9092 43.0758 37.7373 36.6771 32.6691 30.8773L32.3576 30.5199L31.9846 30.8129C29.7072 32.6028 27.4671 34.482 25.2599 36.4535C26.9312 34.3842 28.5272 32.4718 30.0129 30.9311L29.4699 30.1195C26.5609 31.2631 24.0508 33.7653 21.7668 36.7133C19.4893 39.6529 17.3742 43.1204 15.301 46.2523C13.9386 47.7261 12.5899 49.244 11.2531 50.807C13.5191 44.7266 16.6306 39.4605 20.4455 34.8988L19.7433 34.1928C17.9778 35.6537 16.2174 37.1237 14.4767 38.6244C17.8945 33.4141 21.9146 28.9928 26.4455 25.2621L26.8889 24.8969L26.466 24.5082C22.9057 21.2307 18.9663 18.1901 14.5812 15.3969C17.5009 16.2018 20.2326 17.2502 22.8058 18.4975L23.3049 17.6342C19.9267 15.3409 16.4945 13.1154 12.9611 11.0082C16.9823 11.8241 20.6757 13.0461 24.0939 14.6313L24.5988 13.7738C23.2176 12.7709 21.8149 11.789 20.4025 10.8227Z" fill="#FF0000" stroke="#AA0000"/>
</svg>
