<svg width="64" height="64" viewBox="0 0 64 64" fill="none" xmlns="http://www.w3.org/2000/svg">
<rect width="64" height="64" rx="5" fill="#E1CFA6"/>
<path d="M26 22.1414L27.7863 19.094C28.4674 17.9321 29.5433 17.0537 30.818 16.6188L30.9229 16.583C32.0307 16.205 33.2325 16.205 34.3402 16.583L34.5208 16.6446C35.7372 17.0596 36.7382 17.9422 37.3023 19.097C37.7555 20.0247 37.8996 21.0732 37.7136 22.0887L37.5482 22.9918C37.2279 24.7401 36.3068 26.3216 34.9442 27.4627L34.3152 27.9895C33.8255 28.3996 33.2973 28.7613 32.7379 29.0696L31.2586 29.8849C30.1 30.5235 29.1797 31.5206 28.6359 32.7266L28.5966 32.8139C27.9458 34.2572 27.9038 35.9019 28.4801 37.3766L28.5099 37.4528C28.7298 38.0156 29.0426 38.5376 29.4352 38.9969L30.0267 39.6887C30.6777 40.4504 31.6296 40.8889 32.6316 40.8889C33.6336 40.8889 34.5854 40.4504 35.2365 39.6887L36.4211 38.303M34.2105 46.3466V46.4211C34.2105 47.2931 33.5036 48 32.6316 48C31.7595 48 31.0526 47.2931 31.0526 46.4211V46.3466C31.0526 45.4746 31.7595 44.7677 32.6316 44.7677C33.5036 44.7677 34.2105 45.4746 34.2105 46.3466Z" stroke="#0BC2D6" stroke-width="3"/>
<path d="M20.4025 10.8227C26.4061 12.3969 31.6409 14.9509 36.2053 18.3393L36.4601 18.5287L36.7404 18.3783C40.9694 16.0985 45.497 14.2289 50.2756 12.7162C47.3606 14.4103 44.4914 16.1615 41.6682 17.9926L42.1467 18.8676C44.3432 17.8688 46.6383 16.9488 49.0041 16.1107C47.8508 16.9246 46.7071 17.7497 45.5842 18.5815L46.0275 19.4613C47.7483 18.9358 49.5037 18.4702 51.3078 18.0688C48.3563 19.6892 45.4632 21.4087 42.6242 23.2357L42.1203 23.56L42.5305 23.9984C46.5751 28.3152 49.9623 33.4546 52.7951 39.266C50.4706 36.6481 48.0734 34.114 45.6144 31.6703L44.8537 32.3129C48.7447 37.8181 51.4875 44.16 53.2824 51.1801C50.5376 46.5111 47.5794 41.9904 44.4064 37.6381L43.5734 38.1908C44.3756 39.5244 45.386 41.8782 46.2043 43.9291C46.2136 43.9525 46.2223 43.9761 46.2316 43.9994L44.1496 41.0619L43.2668 41.5063C44.1617 44.2302 44.8996 47.0694 45.4777 50.019C41.9092 43.0758 37.7373 36.6771 32.6691 30.8773L32.3576 30.5199L31.9846 30.8129C29.7072 32.6028 27.4671 34.482 25.2599 36.4535C26.9312 34.3842 28.5272 32.4718 30.0129 30.9311L29.4699 30.1195C26.5609 31.2631 24.0508 33.7653 21.7668 36.7133C19.4893 39.6529 17.3742 43.1204 15.301 46.2523C13.9386 47.7261 12.5899 49.244 11.2531 50.807C13.5191 44.7266 16.6306 39.4605 20.4455 34.8988L19.7433 34.1928C17.9778 35.6537 16.2174 37.1237 14.4767 38.6244C17.8945 33.4141 21.9146 28.9928 26.4455 25.2621L26.8889 24.8969L26.466 24.5082C22.9057 21.2307 18.9663 18.1901 14.5812 15.3969C17.5009 16.2018 20.2326 17.2502 22.8058 18.4975L23.3049 17.6342C19.9267 15.3409 16.4945 13.1154 12.9611 11.0082C16.9823 11.8241 20.6757 13.0461 24.0939 14.6313L24.5988 13.7738C23.2176 12.7709 21.8149 11.789 20.4025 10.8227Z" fill="#FF0000" stroke="#AA0000"/>
</svg>
