<svg width="64" height="64" viewBox="0 0 64 64" fill="none" xmlns="http://www.w3.org/2000/svg">
<rect width="64" height="64" rx="5" fill="#E1CFA6"/>
<path d="M26 22.1414L27.7863 19.094C28.4674 17.9321 29.5433 17.0537 30.818 16.6188L30.9229 16.583C32.0307 16.205 33.2325 16.205 34.3402 16.583L34.5208 16.6446C35.7372 17.0596 36.7382 17.9422 37.3023 19.097C37.7555 20.0247 37.8996 21.0732 37.7136 22.0887L37.5482 22.9918C37.2279 24.7401 36.3068 26.3216 34.9442 27.4627L34.3152 27.9895C33.8255 28.3996 33.2973 28.7613 32.7379 29.0696L31.2586 29.8849C30.1 30.5235 29.1797 31.5206 28.6359 32.7266L28.5966 32.8139C27.9458 34.2572 27.9038 35.9019 28.4801 37.3766L28.5099 37.4528C28.7298 38.0156 29.0426 38.5376 29.4352 38.9969L30.0267 39.6887C30.6777 40.4504 31.6296 40.8889 32.6316 40.8889C33.6336 40.8889 34.5854 40.4504 35.2365 39.6887L36.4211 38.303M34.2105 46.3466V46.4211C34.2105 47.2931 33.5036 48 32.6316 48C31.7595 48 31.0526 47.2931 31.0526 46.4211V46.3466C31.0526 45.4746 31.7595 44.7677 32.6316 44.7677C33.5036 44.7677 34.2105 45.4746 34.2105 46.3466Z" stroke="#0BC2D6" stroke-width="3"/>
</svg>
