<svg width="28" height="34" viewBox="0 0 28 34" fill="none" xmlns="http://www.w3.org/2000/svg">
<path d="M10.8605 4.54652L9.09351 1.96587L16.1615 0.675552L14.1421 4.54652L15.4042 9.96587L21.9673 14.8691L25.7537 21.8368L26.511 26.482L23.4819 32.6756H7.07409L1.26827 28.0304L0.510986 20.5465L3.54011 13.8368L9.85079 9.19168L10.8605 4.54652Z" fill="#F9C435"/>
<path d="M10.8605 4.54652L9.09351 1.96587L16.1615 0.675552L14.1421 4.54652M10.8605 4.54652L9.85079 9.19168M10.8605 4.54652H14.1421M9.85079 9.19168L3.54011 13.8368L0.510986 20.5465L1.26827 28.0304L7.07409 32.6756H23.4819L26.511 26.482L25.7537 21.8368L21.9673 14.8691L15.4042 9.96587M9.85079 9.19168L15.4042 9.96587M15.4042 9.96587L14.1421 4.54652M15.4042 13.8368H10.8605L8.33623 16.9336L10.8605 20.2885L15.4042 20.5465L16.9188 24.9336L14.1421 28.0304L9.09351 27.5143M12.6275 29.5788L12.1226 11.5143M13.3848 11.5143L13.8896 29.5788" stroke="black"/>
</svg>
