<svg width="1378" height="1302" viewBox="0 0 1378 1302" fill="none" xmlns="http://www.w3.org/2000/svg">
<path d="M567.407 413.689L606.176 407.385L637.513 361.613L582.718 391.325L522.227 382.758L527.498 353.521L587.313 327.245L633.821 280.851L661.679 218.62L604.992 279.883L558.835 307.748L483.046 296.468L519.671 271.552L566.824 234.983L604.722 179.626L632.493 78.1739L570.493 168.736L514.633 218.022L426.605 228.141L483.046 296.468L527.498 353.521L522.227 382.758L567.407 413.689Z" fill="url(#paint0_linear_707_938)"/>
<path d="M522.227 382.758L582.718 391.325L637.513 361.613L606.176 407.385L567.407 413.689L522.227 382.758ZM522.227 382.758L527.498 353.521M527.498 353.521L587.313 327.245L633.821 280.851L661.679 218.62L604.992 279.883L558.835 307.748L483.046 296.468M527.498 353.521L483.046 296.468M483.046 296.468L519.671 271.552L566.824 234.983L604.722 179.626L632.493 78.1739L570.493 168.736L514.633 218.022L426.605 228.141L483.046 296.468Z" stroke="black" stroke-width="0.12376"/>
<path d="M627.186 529.723L657.954 530.698L687.944 500.228L641.838 514.836L596.148 499.174L603.903 477.498L653.457 466.285L695.255 437.614L724.627 393.975L673.087 432.543L633.892 447.028L576.715 426.985L608.168 413.335L649.228 392.312L685.498 355.462L719.739 281.671L660.404 341.956L611.011 371.445L541.677 366.009L576.715 426.985L603.903 477.498L596.148 499.174L627.186 529.723Z" fill="url(#paint1_linear_707_938)"/>
<path d="M596.148 499.174L641.838 514.836L687.944 500.228L657.954 530.698L627.186 529.723L596.148 499.174ZM596.148 499.174L603.903 477.498M603.903 477.498L653.457 466.285L695.255 437.614L724.627 393.975L673.087 432.543L633.892 447.028L576.715 426.985M603.903 477.498L576.715 426.985M576.715 426.985L608.168 413.335L649.228 392.312L685.498 355.462L719.739 281.671L660.404 341.956L611.011 371.445L541.677 366.009L576.715 426.985Z" stroke="black" stroke-width="0.13499"/>
<path d="M113.507 1201.24L168.185 1110.11L1045.52 1039.43L1360.01 1130.62C1289.38 1136.7 1145.37 1149.76 1134.41 1153.38C1123.45 1157 976.393 1197.41 904.233 1217.17L1009.06 1301.54L883.714 1283.25H708.272L521.423 1301.54L250.203 1283.25L113.507 1255.91V1201.24Z" fill="#474747" stroke="black" stroke-width="0.120703"/>
<path d="M191.784 49.6695C191.784 49.6695 239.864 18.5885 261.068 4.22481L328.48 0.0605469L390.22 15.4502L419.249 37.4785L428.121 63.6711L405.187 75.8018L369.157 107.667C363.384 121.528 351.836 149.72 351.836 151.603C351.836 153.486 356.825 167.677 359.32 174.537L377.124 203.566L307.418 219.439L296.615 232.112L277.483 244.243L248.937 240.079L230.65 219.439L192.75 128.247L163.479 101.451L169.273 85.1563L191.784 49.6695Z" fill="#040000"/>
<path d="M405.187 75.8018L428.121 63.6711L419.249 37.4785L390.22 15.4502L328.48 0.0605469L261.068 4.22481C239.864 18.5885 191.784 49.6695 191.784 49.6695L169.273 85.1563L163.479 101.451L192.75 128.247L230.65 219.439L248.937 240.079L277.483 244.243L296.615 232.112M405.187 75.8018L369.157 107.667C363.384 121.528 351.836 149.72 351.836 151.603C351.836 153.486 356.825 167.677 359.32 174.537L377.124 203.566L307.418 219.439L296.615 232.112M405.187 75.8018L377.124 88.4756L333.61 110.926L318.16 131.989L304.159 156.794L307.418 193.729L296.615 232.112" stroke="black" stroke-width="0.120703"/>
<path d="M194.439 138.507L163.358 105.495L170.238 99.0371H199.871L227.512 102.538L256.118 127.644L268.43 182.926V226.801L244.229 230.241L227.512 221.853L210.191 185.883L194.439 138.507Z" fill="url(#paint2_linear_707_938)" fill-opacity="0.6" stroke="black" stroke-width="0.120703"/>
<path d="M160.822 104.35L164.383 106.643L171.564 100.849L199.628 99.3404L226.303 102.358L218.94 99.3404C210.873 97.0873 194.172 92.5811 191.903 92.5811H170.538L162.934 97.3488L160.822 104.35Z" fill="#313131" stroke="black" stroke-width="0.120703"/>
<path d="M192.269 92.4573H180.259H170.361L166.317 95.1127L170.18 85.8186L191.906 50.6336L261.25 4.4043L290.943 2.59375C290.943 2.59375 275.735 8.48406 271.148 12.25C266.561 16.0159 240.067 46.228 231.195 55.2807L204.58 95.4145L192.269 92.4573Z" fill="url(#paint3_linear_707_938)" stroke="black" stroke-width="0.120703"/>
<path d="M228.479 156.312L205.666 150.759L199.027 143.155V131.024L216.529 121.066H249.602C250.869 121.066 255.577 126.86 256.301 127.584C256.88 128.164 258.112 137.482 258.655 142.069C256.18 145.368 250.906 152.111 249.602 152.691C248.298 153.27 234.977 155.346 228.479 156.312Z" fill="#FB0000" fill-opacity="0.2"/>
<path d="M204.763 145.508L202.469 135.55H217.255C225.081 134.524 241.022 132.364 242.181 131.929C243.339 131.495 254.046 130.209 254.046 130.209L256.146 138.606L240.732 145.508C233.993 146.353 220.261 148.043 219.247 148.043C218.233 148.043 209.168 146.353 204.763 145.508Z" fill="#FF0000" stroke="#FF0000" stroke-width="4.19833"/>
<path d="M317.194 165.847L308.805 201.756V177.314C308.805 171.942 308.805 154.44 312.607 149.069C316.409 143.698 317.194 130.722 321.78 119.255C325.45 110.082 337.592 106.3 343.205 105.556L330.169 123.118L317.194 165.847Z" fill="#313131" stroke="black" stroke-width="0.120703"/>
<path d="M419.007 37.9631L426.852 62.3451L404.281 74.0533L398.185 79.5453C398.185 75.2201 410.98 66.1473 410.98 66.1473L419.007 59.3879L416.713 43.4551C416.713 43.4551 402.49 28.6689 398.185 23.8408L419.007 37.9631Z" fill="url(#paint4_linear_707_938)"/>
<path d="M368.372 106.281L386.718 91.0121L361.492 106.281L343.929 153.657L355.396 178.099L373.743 197.955L350.025 153.657L368.372 106.281Z" fill="url(#paint5_linear_707_938)"/>
<path d="M419.007 37.9631L426.852 62.3451L404.281 74.0533L398.185 79.5453C398.185 75.2201 410.98 66.1473 410.98 66.1473L419.007 59.3879L416.713 43.4551C416.713 43.4551 402.49 28.6689 398.185 23.8408L419.007 37.9631Z" stroke="black" stroke-width="0.120703"/>
<path d="M368.372 106.281L386.718 91.0121L361.492 106.281L343.929 153.657L355.396 178.099L373.743 197.955L350.025 153.657L368.372 106.281Z" stroke="black" stroke-width="0.120703"/>
<path d="M242.902 229.215L229.262 222.577L236.323 230.302L244.048 234.888L257.145 233.018L268.189 227.586L270.06 218.533L268.611 202.54L266.258 224.87L258.05 228.129L242.902 229.215Z" fill="#313131" stroke="black" stroke-width="0.120703"/>
<path d="M35.3253 436.806L53.8424 415.155L60.3947 424.271L40.0258 439.702L26.9688 463.727L23.5503 504.987V463.727L35.3253 436.806Z" fill="url(#paint6_linear_707_938)" stroke="black" stroke-width="0.0949597"/>
<path d="M49.378 469.662L63.527 435.904L72.7381 440.795C68.2275 450.417 58.836 470.28 57.3546 472.749C55.8732 475.218 51.4196 496.726 49.378 507.172V564.29L41.4014 507.172L49.378 469.662Z" fill="url(#paint7_linear_707_938)" stroke="black" stroke-width="0.0949597"/>
<path d="M53.6512 407.035C50.8183 398.742 45.1523 381.795 45.1523 380.351L60.7732 366.535L88.1691 360.125L94.5314 380.351L53.6512 407.035Z" fill="#404040" stroke="black" stroke-width="0.0949597"/>
<path d="M89.8334 299.921C89.1117 300.491 83.3287 302.975 80.5273 304.147V313.785C85.8767 312.946 97.0124 311.05 98.7596 310.176C100.507 309.303 101.07 292.878 101.134 284.775L80.5273 268.727C84.8322 274.266 93.4419 285.525 93.4419 286.247C93.4419 287.149 90.7355 299.209 89.8334 299.921Z" fill="#404040" stroke="black" stroke-width="0.0949597"/>
<path d="M0.23584 304.102L3.79683 312.458L52.8435 282.736L71.1233 244.657L79.4797 241.381V231.22L64.0013 228.134C56.2146 233.135 40.6412 243.441 40.6412 244.657C40.6412 245.872 35.0386 249.405 32.2373 251.019L22.5989 256.099C20.0666 260.167 14.6412 268.653 13.1978 270.059C11.3936 271.815 10.1591 272.1 10.1591 273.382C10.1591 274.664 0.23584 285.062 0.23584 286.297V304.102Z" fill="#1E1E1E" stroke="black" stroke-width="0.0949597"/>
<path d="M34.5668 377.456C33.0475 373.42 5.55665 328.409 3.5625 324.421C1.96718 321.23 2.89778 310.114 3.5625 304.954L50.5675 281.926L47.054 248.453L57.0722 245.462L68.0401 248.453V281.926L83.0437 307.945V311.459L97.0503 307.945V285.962L80.0525 268.442L88.0291 254.958L117.039 278.46L120.031 311.459L91.0203 347.923L88.2356 362.378C88.2818 362.75 88.1928 363.122 88.0291 363.449L47.054 381.919L34.5668 377.456Z" fill="#010101"/>
<path d="M34.5668 377.456C33.0475 373.42 5.55665 328.409 3.5625 324.421C1.96718 321.23 2.89778 310.114 3.5625 304.954L50.5675 281.926L47.054 248.453L57.0722 245.462L68.0401 248.453V281.926L83.0437 307.945V311.459L97.0503 307.945V285.962L80.0525 268.442L88.0291 254.958L117.039 278.46L120.031 311.459L91.0203 347.923L88.0291 363.449M34.5668 377.456C43.8887 372.787 65.3337 362.946 76.539 360.933C87.7442 358.92 88.8679 361.772 88.0291 363.449M34.5668 377.456L47.054 381.919L88.0291 363.449" stroke="black" stroke-width="0.0949597"/>
<path d="M51.1323 404.284C51.1323 404.284 58.6341 395.927 61.5779 394.075C63.9329 392.594 74.8723 382.933 80.0476 378.739L85.4128 375.416L94.8138 373.517L122.827 390.372L139.445 409.554L141.676 415.821L139.445 424.7C126.894 438.105 104.965 459.75 103.218 460.357C101.47 460.965 97.7259 464.456 92.9146 465.675L66.7057 452.523L54.4559 424.7L51.1323 404.284Z" fill="#252525"/>
<path d="M139.445 409.554L122.827 390.372L94.8138 373.517L85.4128 375.416L80.0476 378.739C74.8723 382.933 63.9329 392.594 61.5779 394.075C58.6341 395.927 51.1323 404.284 51.1323 404.284L54.4559 424.7L66.7057 452.523L92.9146 465.675M139.445 409.554L124.916 414.919L109.675 423.133L98.3273 433.816L87.5019 452.523L86.4573 460.357L92.9146 465.675M139.445 409.554L141.676 415.821L139.445 424.7C126.894 438.105 104.965 459.75 103.218 460.357C101.47 460.965 97.7259 464.456 92.9146 465.675" stroke="black" stroke-width="0.0949597"/>
<path d="M93.8664 372.9L84.0381 374.562V357.042L88.8336 359.938L93.8664 372.9Z" fill="#363232" stroke="black" stroke-width="0.0949597"/>
<path d="M45.0601 390.941V381.065C48.3836 378.39 56.2368 369.632 61.0608 366.441C65.8847 363.25 77.7262 359.667 83.0439 357.657V375.415L69.0374 386.43L51.5648 402.906L45.0601 390.941Z" fill="#3C3A3A" stroke="black" stroke-width="0.0949597"/>
<path d="M66.0425 250.45L57.0688 244.942L66.0425 230.461H81.521V241.951H72.5473L66.0425 250.45Z" fill="#13140F" stroke="black" stroke-width="0.0949597"/>
<path d="M44.0612 278.461L32.5711 282.449V256.953L44.0612 250.448V278.461Z" fill="#979996"/>
<path d="M13.0568 292.942L23.0751 286.438V256.953C23.0751 252.964 16.3963 264.28 13.0568 270.437V292.942Z" fill="#979996"/>
<path d="M0.0473633 305.43L7.54918 298.45V275.47L0.0473633 286.438V305.43Z" fill="#979996"/>
<path d="M64.0502 227.468L48.5718 244.466H41.07C38.0787 244.466 44.0612 238.436 48.5718 235.444C52.1802 233.051 60.3943 229.13 64.0502 227.468Z" fill="#979996"/>
<path d="M44.0612 278.461L32.5711 282.449V256.953L44.0612 250.448V278.461Z" stroke="black" stroke-width="0.0949597"/>
<path d="M13.0568 292.942L23.0751 286.438V256.953C23.0751 252.964 16.3963 264.28 13.0568 270.437V292.942Z" stroke="black" stroke-width="0.0949597"/>
<path d="M0.0473633 305.43L7.54918 298.45V275.47L0.0473633 286.438V305.43Z" stroke="black" stroke-width="0.0949597"/>
<path d="M64.0502 227.468L48.5718 244.466H41.07C38.0787 244.466 44.0612 238.436 48.5718 235.444C52.1802 233.051 60.3943 229.13 64.0502 227.468Z" stroke="black" stroke-width="0.0949597"/>
<path d="M27.5369 311.459C21.5386 315.115 9.14317 322.826 7.54785 324.421V315.447C12.5491 311.776 22.6559 303.739 23.0738 300.966C23.596 297.5 50.5646 289.951 57.5441 288.431C63.1278 287.216 57.5283 296.281 54.0306 300.966L27.5369 311.459Z" fill="#979996" stroke="black" stroke-width="0.0949597"/>
<path d="M112.622 491.836L93.4399 458.22V446.445C93.4399 443.217 101.543 435.256 105.595 431.679L119.316 421.044L135.507 418.005C143.626 425.143 160.529 440.083 163.188 442.742C165.847 445.401 188.162 460.816 198.988 468.191C189.017 477.181 168.857 495.596 167.983 497.344C167.11 499.091 150.875 519.501 142.866 529.488L112.622 491.836Z" fill="#040404" stroke="black" stroke-width="0.0949597"/>
<path d="M75.7757 255.15L66.5171 250.497L66.8969 266.878L73.2592 265.928L75.7757 255.15Z" fill="#010101" stroke="black" stroke-width="0.0949597"/>
<path d="M271.753 247.262L260.89 275.023L233.007 387.096L196.374 467.967L164.206 493.013L138.497 524.215L196.374 728.264V948.909L138.497 1143.18L126.125 1214.52L196.374 1260.75L456.549 1283.44C456.549 1283.44 660.397 1288.85 782.206 1298.22L985.772 1209.81L1140.09 1187.42L1031.7 1115.12H1204.37L1087.89 1066.96L1377.03 966.532H1180.29L939.302 894.231L830.91 781.796L660.538 582.937L579.667 407.857L502.417 305.199L467.047 253.56L442.547 222.56L408.547 207.56L373.204 202.602L311.047 217.06L271.753 247.262Z" fill="#161616" stroke="black" stroke-width="0.120703"/>
<path d="M763.134 765.982L643.638 621.259L763.134 782.096L896.39 915.352C953.06 931.446 1069.62 963.633 1082.51 963.633C1095.41 963.633 963.803 920.703 896.39 899.238L763.134 765.982Z" fill="#635F5F" stroke="black" stroke-width="0.120703"/>
<path d="M177.844 580.461L236.989 717.761L193.294 589.333L177.844 523.067L193.294 483.355C184.1 494.762 165.713 518.673 165.713 523.067C165.713 527.46 173.8 563.16 177.844 580.461Z" fill="#BDBFBE" fill-opacity="0.5" stroke="black" stroke-opacity="0.5" stroke-width="0.120703"/>
<path d="M297.851 774.272L343.895 678.225C339.088 637.242 329.543 553.019 329.818 543.994C330.094 534.97 343.974 477.183 350.88 449.418L337.162 556.596L343.895 678.225L323.829 740.166L297.851 774.272Z" fill="#A4A4A4" fill-opacity="0.5"/>
<path d="M240.645 792.934L297.851 774.272M297.851 774.272L343.895 678.225M297.851 774.272L323.829 740.166L343.895 678.225M343.895 678.225C339.088 637.242 329.543 553.019 329.818 543.994C330.094 534.97 343.974 477.183 350.88 449.418L337.162 556.596L343.895 678.225Z" stroke="#A4A4A4" stroke-width="0.120703"/>
<path d="M481.95 1023.97C484.119 998.161 533.515 901.699 557.941 856.693H609.467L650.204 954.584L817.265 1013.85L926.991 1029.83L889.025 1079.68L913.432 1123.73L804.898 1150.12L650.204 1214.7L481.95 1150.12C481.046 1118.82 479.78 1049.77 481.95 1023.97Z" fill="#272626" fill-opacity="0.21"/>
<path d="M403.259 1243L229.688 1229.24C225.282 1216.95 216.302 1191.32 215.626 1187.12C214.95 1182.91 208.223 1159.78 204.944 1148.73V1069.49C206.775 1097.03 214.286 1155.97 229.688 1171.42C245.09 1186.87 260.005 1212.74 265.537 1223.75H417.019L618.111 1256.82L403.259 1243Z" fill="#434343" stroke="black" stroke-width="0.120703"/>
<defs>
<linearGradient id="paint0_linear_707_938" x1="665.123" y1="100.513" x2="487.956" y2="359.296" gradientUnits="userSpaceOnUse">
<stop stop-color="#666666"/>
<stop offset="1"/>
</linearGradient>
<linearGradient id="paint1_linear_707_938" x1="742.156" y1="303.734" x2="572.604" y2="476.001" gradientUnits="userSpaceOnUse">
<stop stop-color="#666666"/>
<stop offset="1"/>
</linearGradient>
<linearGradient id="paint2_linear_707_938" x1="268.43" y1="164.639" x2="163.358" y2="164.639" gradientUnits="userSpaceOnUse">
<stop stop-color="#E30000"/>
<stop offset="1" stop-color="#7D0000"/>
</linearGradient>
<linearGradient id="paint3_linear_707_938" x1="163.662" y1="49.7139" x2="278.692" y2="49.7139" gradientUnits="userSpaceOnUse">
<stop stop-color="#FFF5D7"/>
<stop offset="1" stop-color="#999381"/>
</linearGradient>
<linearGradient id="paint4_linear_707_938" x1="343.929" y1="110.898" x2="426.43" y2="110.898" gradientUnits="userSpaceOnUse">
<stop stop-color="#415565"/>
<stop offset="1" stop-color="#83ABCB"/>
</linearGradient>
<linearGradient id="paint5_linear_707_938" x1="343.929" y1="110.898" x2="426.43" y2="110.898" gradientUnits="userSpaceOnUse">
<stop stop-color="#415565"/>
<stop offset="1" stop-color="#83ABCB"/>
</linearGradient>
<linearGradient id="paint6_linear_707_938" x1="41.9725" y1="415.155" x2="41.9725" y2="504.987" gradientUnits="userSpaceOnUse">
<stop/>
<stop offset="1" stop-color="#666666"/>
</linearGradient>
<linearGradient id="paint7_linear_707_938" x1="57.0697" y1="435.904" x2="57.0697" y2="564.29" gradientUnits="userSpaceOnUse">
<stop/>
<stop offset="1" stop-color="#666666"/>
</linearGradient>
</defs>
</svg>
