<svg width="776" height="843" viewBox="0 0 776 843" fill="none" xmlns="http://www.w3.org/2000/svg">
<path d="M632.361 650.426L611.602 593.413L630.336 622.583L648.717 596.76L632.361 650.426Z" fill="#55534D" stroke="black" stroke-width="0.634711"/>
<path d="M621.021 634.989L660.711 683.363L633.331 661.647L627.084 693.944L621.021 634.989Z" fill="#55534D" stroke="black" stroke-width="0.634711"/>
<path d="M606.237 600.913L616.942 634.818L661.19 689.096L644.201 651.576L684.62 647.514L641.43 639.012L668.394 625.167L630.406 627.078L606.237 600.913Z" fill="#55534D" stroke="black" stroke-width="0.634711"/>
<path d="M619.639 634.419L588.145 629.682L527.688 617.319L469.836 590.934L416.74 546.025L384.23 502.225L355.221 532.506L397.666 573.167L457.164 612.297L523.756 635.887L586.205 642.107L624.137 641.826L662.595 689.712L652.379 648.893L690.173 636.621L645.768 634.438L674.156 616.717L631.316 621.314L602.065 595.99L619.639 634.419Z" fill="white" stroke="black" stroke-width="2"/>
<path d="M605.055 598.928L618.121 632.292L665.719 683.844L646.197 647.276L685.67 640.42L642.533 634.831L668.034 619.057L630.793 623.584L605.055 598.928Z" fill="black" stroke="black" stroke-width="0.634711"/>
<path d="M619.848 633.201L667.978 673.352L637.352 657.414L638.598 691.366L619.848 633.201Z" fill="black" stroke="black" stroke-width="0.634711"/>
<path d="M69.7188 330.637L137.456 264.021L240.573 152.755L371.22 12.4323L392.516 11.2677L410.239 24.9936L86.0275 335.286L74.1551 340.582L69.7188 330.637Z" fill="url(#paint0_linear_509_1994)" stroke="black" stroke-width="2"/>
<path d="M190.237 235.242L176.52 221.493L70.4092 330.957L73.2524 342.24L85.1248 336.944L190.237 235.242Z" fill="black" stroke="black" stroke-width="2"/>
<path d="M105.629 307.95L99.1059 298.042L92 298.087L92.0305 302.863L102.43 312.746L105.629 307.95Z" fill="white" stroke="black" stroke-width="2"/>
<path d="M172.082 688.41L179.134 650.562L215.041 651.657L199.318 708.743L199.562 734.728L172.971 740.962L145.954 752.204L127.767 748.815C125.015 748.302 120.716 742.076 118.91 739.027L143.035 724.195L167.777 711.513L172.082 688.41Z" fill="white" stroke="black" stroke-width="2"/>
<path d="M147.584 727.077L151.107 719.087L139.445 727.087L136.996 734.768L167.905 743.579L148.103 751.587L125.984 747.466L120.293 739.794L118.095 751.59L124.061 757.788L146.18 761.909C148.54 762.349 165.135 756.625 173.138 753.709L197.456 746.033L199.654 734.236L180.001 738.712L147.584 727.077Z" fill="black" stroke="black" stroke-width="2"/>
<path d="M427.045 714.662L381.883 650.472L409.532 628.278L432.17 673.472L450.572 703.192L467.084 739.629L453.584 759.629L418.584 762.629L409.532 752.129L416.584 734.129L427.045 714.662Z" fill="white" stroke="black" stroke-width="2"/>
<path d="M412.584 745.629L429.057 754.629L462.433 734.129L464.084 742.162L449.584 758.129C449.584 758.129 429.584 761.129 421.78 762.178L409.965 751.938L415.47 768.129L449.584 768.129L463.173 762.968L467.584 741.129L459.247 718.629L429.057 742.162L418.048 732.07L412.584 745.629Z" fill="black"/>
<path d="M459.247 718.629L462.433 734.129L429.057 754.629L412.584 745.629L418.048 732.07L429.057 742.162L459.247 718.629ZM459.247 718.629L464.084 742.162L449.584 758.129C449.584 758.129 429.584 761.129 421.78 762.178L409.965 751.938L415.47 768.129L449.584 768.129L463.173 762.968L467.584 741.129L459.247 718.629Z" stroke="black" stroke-width="2"/>
<path d="M217.148 298.778L242.648 278.778L256.648 262.278L258.648 270.278L277.648 276.278L295.648 272.278L307.648 259.278L306.648 255.778L348.568 266.778L372.148 276.278L401.083 320.778L408.583 362.129L414.083 407.129L421.083 431.278L435.583 485.278L427.083 498.629L421.083 523.278L348.568 454.778L360.648 474.778L392.148 542.278L372.148 559.778L319.648 571.778L312.648 523.278C307.814 508.278 298.148 477.578 298.148 474.778C298.148 471.978 289.148 444.612 284.648 431.278L258.648 511.278L247.648 571.778L223.148 562.778L193.648 542.278L217.148 495.778L247.648 439.778L234.648 460.129L175.583 485.278L156.583 454.778V407.129V316.629H179.648L209.148 306.778L217.148 298.778Z" fill="#212E36"/>
<path d="M217.148 298.778L242.648 278.778L256.648 262.278L258.648 270.278L277.648 276.278L295.648 272.278L307.648 259.278L306.648 255.778L348.568 266.778L372.148 276.278M217.148 298.778L226.148 347.278L234.648 385.278L253.648 431.278M217.148 298.778L209.148 306.778L179.648 316.629H156.583V407.129V454.778L175.583 485.278L234.648 460.129L247.648 439.778M372.148 276.278L339.705 289.629L306.648 306.778L277.648 320.778L288.083 387.278L339.705 422.278M372.148 276.278L401.083 320.778L408.583 362.129L414.083 407.129L421.083 431.278L435.583 485.278L427.083 498.629L421.083 523.278L348.568 454.778M339.705 422.278L284.648 431.278M339.705 422.278L348.568 454.778M284.648 431.278H253.648M284.648 431.278L258.648 511.278L247.648 571.778L223.148 562.778L193.648 542.278L217.148 495.778L247.648 439.778M284.648 431.278C289.148 444.612 298.148 471.978 298.148 474.778C298.148 477.578 307.814 508.278 312.648 523.278L319.648 571.778L372.148 559.778L392.148 542.278L360.648 474.778L348.568 454.778M253.648 431.278L247.648 439.778" stroke="black" stroke-width="2"/>
<path d="M427.148 571.283L390.239 494.205L361.5 458L340 422.5L329 415L248.648 420.779L252.148 433.279L222.148 482.779L210.648 504.279L197.648 529.779L170.219 577.361L148.155 628.797L157.876 663.274L236.133 656.322L273.918 626.182L306.949 623.248L339.815 653.065L409.648 644.783L436.148 623.248L427.148 571.283Z" fill="#55534D" stroke="black" stroke-width="2"/>
<path d="M274.976 275.773L255.846 268.681L254.931 261.618L253.624 251.529L252.383 241.943L251.664 236.394L250.491 229.817L248.506 218.687L246.341 206.545L289.3 181.933L294.717 201.27L296.881 216.116L298.325 226.013L298.871 228.548L301.164 239.194L303.512 250.094L305.861 260.995L292.674 272.768L274.976 275.773Z" fill="#00A0B8"/>
<path d="M294.717 201.27L289.3 181.933L246.341 206.545L248.506 218.687M294.717 201.27L282.67 210.604L265.33 216.133L248.506 218.687M294.717 201.27L296.881 216.116M248.506 218.687L250.491 229.817M250.491 229.817L251.664 236.394L252.383 241.943M250.491 229.817L265.566 229.668L283.377 224.666L296.881 216.116M296.881 216.116L298.325 226.013L298.871 228.548M252.383 241.943L270.379 241.96L286.693 236.873L298.871 228.548M252.383 241.943L253.624 251.529M298.871 228.548L301.164 239.194M253.624 251.529L270.813 252L289.066 248.025L301.164 239.194M253.624 251.529L254.931 261.618M301.164 239.194L303.512 250.094M254.931 261.618L255.846 268.681L274.976 275.773L292.674 272.768L305.861 260.995L303.512 250.094M254.931 261.618L270.22 262.484L289.359 260.562L303.512 250.094" stroke="black" stroke-width="2"/>
<path d="M244.58 225.766L238.181 223.883L233.071 225.583L229.172 215.333L217.465 201.615L208.081 182.524L207.271 162.441L209.802 153.575L214.388 143.83L211.552 124.127C212.749 118.021 215.262 105.515 215.733 104.341C216.321 102.873 226.378 76.9239 226.937 75.9553C227.383 75.1804 230.338 100.2 230.558 107.726L237.096 124.143L248.136 123.797L263.697 123.219L286.06 92.4917L300.574 75.8234L283.924 128.428L295.339 138.623L302.702 149.58L305.074 160.239L300.952 179.028L260.617 217.202L244.58 225.766Z" fill="white"/>
<path d="M235.547 209.201C235.476 210.399 237.273 219.488 238.181 223.883M238.181 223.883L244.58 225.766L260.617 217.202L300.952 179.028L305.074 160.239L302.702 149.58L295.339 138.623L283.924 128.428L300.574 75.8234L286.06 92.4917L263.697 123.219L248.136 123.797L237.096 124.143L230.558 107.726C230.338 100.2 227.383 75.1804 226.937 75.9553C226.378 76.9239 216.321 102.873 215.733 104.341C215.262 105.515 212.749 118.021 211.552 124.127L214.388 143.83M238.181 223.883L233.071 225.583L229.172 215.333L217.465 201.615L208.081 182.524L207.271 162.441L209.802 153.575L214.388 143.83M214.388 143.83L219.033 133.087" stroke="black" stroke-width="2"/>
<path d="M220.831 170.259L222.413 177.365L218.449 176.629L214.575 174.395L209.821 170.106L208.591 165.525L209.505 158.567L210.77 154.134L216.784 162.505L220.831 170.259Z" fill="#F50000" stroke="black" stroke-width="2"/>
<path d="M257.712 164.937L255.123 174.801C257.129 174.753 261.247 174.564 261.67 174.189C262.093 173.813 264.98 171.881 266.37 170.962L272.656 166.326L278.68 157.669L282.209 148.862L277.218 148.566L271.639 149.737L264.824 154.842L257.712 164.937Z" fill="#DB0F0F" stroke="black" stroke-width="2"/>
<path d="M239.866 203.948L235.517 209.7L232.142 207.496L227.887 203.236L228.036 200.74L229.943 202.356L234.346 204.121L237.43 202.801L240.632 199.485L242.159 199.075L239.866 203.948Z" fill="black" stroke="black" stroke-width="2"/>
<path d="M283.895 128.927L295.809 139.152L298.428 128.789L302.199 107.475L303.826 88.5385L300.545 76.3223L283.895 128.927Z" fill="black" stroke="black" stroke-width="2"/>
<path d="M226.648 524.778L262.148 465.778L217.148 524.778L192.648 605.778L226.648 524.778Z" fill="black"/>
<path d="M289.648 576.778L342.148 631.778C324.648 621.945 289.648 602.178 289.648 601.778C289.648 601.378 256.315 616.612 239.648 624.278L211.648 648.778V627.778L239.648 597.278L289.648 576.778Z" fill="black"/>
<path d="M226.648 524.778L262.148 465.778L217.148 524.778L192.648 605.778L226.648 524.778Z" stroke="black"/>
<path d="M289.648 576.778L342.148 631.778C324.648 621.945 289.648 602.178 289.648 601.778C289.648 601.378 256.315 616.612 239.648 624.278L211.648 648.778V627.778L239.648 597.278L289.648 576.778Z" stroke="black"/>
<path d="M334.647 542.778L299.147 472.278L321.147 550.778L362.647 617.778L334.647 542.778Z" fill="black" stroke="black"/>
<path d="M391.647 565.278L319.647 465.778L373.647 565.278L406.147 603.778L391.647 565.278Z" fill="black" stroke="black"/>
<path d="M242.936 318.856L220.02 300.034L193.239 263.143L188.553 251.663C187.038 248.5 187.447 243.627 186.42 242.139C185.394 240.652 180.907 226.387 178.255 222.544L170.341 216.949L163.031 218.861L172.696 232.475L162.173 220.35L155.468 227.767L162.359 236.349L158.843 233.307L153.931 230.248L151.517 233.219L149.033 238.942L146.297 241.154L142.696 248.109L151.289 259.711L161.077 264.363L174.468 274.336L203.887 318.384L220.643 346.43L231.204 354.641L284.254 362.917C283.672 354.827 279.208 322.887 277.407 321.968C275.416 320.95 251.327 321.457 242.936 318.856Z" fill="white"/>
<path d="M157.801 246.792L149.033 238.942M149.033 238.942L146.297 241.154L142.696 248.109L151.289 259.711L161.077 264.363L174.468 274.336L203.887 318.384L220.643 346.43L231.204 354.641L284.254 362.917C283.672 354.827 279.208 322.887 277.407 321.968C275.416 320.95 251.327 321.457 242.936 318.856L220.02 300.034L193.239 263.143L188.553 251.663C187.038 248.5 187.447 243.627 186.42 242.139C185.394 240.652 180.907 226.387 178.255 222.544L170.341 216.949L163.031 218.861L172.696 232.475L162.173 220.35L155.468 227.767L162.359 236.349M149.033 238.942L151.517 233.219L153.931 230.248L158.843 233.307L162.359 236.349M162.359 236.349L165.938 239.146" stroke="black" stroke-width="2"/>
<path d="M196.583 413.129L182.583 313.629L198.583 309.629L216.583 342.129L227.083 351.629L235.083 386.129L249.083 420.129H248.083L252.583 433.629L233.583 460.129L176.083 484.629L196.583 413.129Z" fill="#212E36" stroke="black" stroke-width="2"/>
<path d="M141 353L183 323L189 361.5L141 393L125 383.5L112 333.5L103 319.5L117.5 306L123 299L120 292L125 288L132.5 299L125 315.5L141 353Z" fill="white" stroke="black" stroke-width="2"/>
<path d="M178 223L168.5 213.5L164.5 211L165 209H170.5L199.5 239V245.5L197 247L196 243.5L189 235L178 223Z" fill="black" stroke="black" stroke-width="2"/>
<defs>
<linearGradient id="paint0_linear_509_1994" x1="200.23" y1="88.707" x2="273.015" y2="251.876" gradientUnits="userSpaceOnUse">
<stop stop-color="#DDDDDD"/>
<stop offset="1" stop-color="#B3B3B3"/>
</linearGradient>
</defs>
</svg>
