<svg width="451" height="447" viewBox="0 0 451 447" fill="none" xmlns="http://www.w3.org/2000/svg">
<circle cx="220" cy="220" r="219.5" fill="url(#paint0_linear_680_1143)" stroke="black"/>
<path d="M215.5 432.501L153.5 423.001L121.5 411.001L93.5002 394.501L70.0002 374.001L55.0003 358.001L110.089 366.248L175.562 360.661L248.24 346.757L316.559 312.69C343.117 294.166 414 237.001 414 237.001L423.5 217.501C426.617 206.19 430.091 184.621 430.5 181.501L433 220.501L430.5 253.501L419.5 297.001L398 336.001L377.5 363.501L350 387.001C334.5 401.501 294.5 420.001 294.5 420.001C294.5 420.001 251.5 434.501 215.5 432.501Z" fill="black"/>
<path d="M414 237.001C414 237.001 343.117 294.166 316.559 312.69L248.24 346.757L175.562 360.661L110.089 366.248L55.0003 358.001L70.0002 374.001L93.5002 394.501L121.5 411.001L153.5 423.001L215.5 432.501C251.5 434.501 294.5 420.001 294.5 420.001C294.5 420.001 334.5 401.501 350 387.001L377.5 363.501L398 336.001L419.5 297.001L430.5 253.501L433 220.501L430.5 181.501C430.091 184.621 426.617 206.19 423.5 217.501M414 237.001C414 237.001 419.624 231.564 423.5 217.501M414 237.001L423.5 217.501" stroke="black" stroke-width="2"/>
<path d="M406.125 265.312L407.648 277.501L398.96 270.501L385.46 273.001L400.726 260.199L407.648 255.001L406.125 265.312Z" fill="white" stroke="white" stroke-width="4.6451"/>
<path d="M349.636 327.023L319.957 319.288L337.5 307L357.284 293L356.187 311.062L349.636 327.023Z" fill="white" stroke="white" stroke-width="4.6451"/>
<path d="M173.5 381.001L171.5 393.501L149 370.13L162.095 369.012L175.189 367.895L175.189 374.501L173.5 381.001Z" fill="white" stroke="white" stroke-width="4.6451"/>
<path d="M205.797 373.844L198.847 363.618L237.5 357L226.799 373.059L205.797 373.844Z" fill="white" stroke="white" stroke-width="4.6451"/>
<path d="M294.027 350.039L273.5 344L285.625 337.934L299.399 332.169L294.027 350.039Z" fill="white" stroke="white" stroke-width="4.6451"/>
<path d="M109.292 379.5L101.5 383.5L94.5 374L90 369.5L109.292 372.37L118.44 372.37L113.5 382.5L109.292 379.5Z" fill="white" stroke="white" stroke-width="4.6451"/>
<path d="M328 396.001L306 408.501L309.337 382.614L332.907 380.602L331.385 362.763L347.316 363.971L348.63 348.457L371 362.763L359 373.001L343.818 384.805L328 396.001Z" fill="white" stroke="white" stroke-width="4.6451"/>
<path d="M262.507 407.655L253 424.842L269.177 421.054L284.5 416.5L262.507 407.655Z" fill="white" stroke="white" stroke-width="4.6451"/>
<path d="M196.5 424.501L200.5 408.001L210.244 427.009L196.5 424.501Z" fill="white" stroke="white" stroke-width="4.6451"/>
<path d="M123.5 375L121.5 370H124.5L128.5 369.5L132.5 369L137.5 368.5L141.5 368H145.5L144.5 373L141.5 368L140.5 374L137.5 368.5L135.5 374.5L132.5 369L131 375L128.5 369.5L127.5 375L124.5 370L123.5 375Z" fill="white"/>
<path d="M124.5 370L123.5 375L121.5 370H124.5ZM124.5 370L127.5 375L128.5 369.5M124.5 370L128.5 369.5M128.5 369.5L131 375L132.5 369M128.5 369.5L132.5 369M132.5 369L135.5 374.5L137.5 368.5M132.5 369L137.5 368.5M137.5 368.5L140.5 374L141.5 368M137.5 368.5L141.5 368M141.5 368L144.5 373L145.5 368H141.5Z" stroke="black" stroke-width="0.5"/>
<path d="M246.807 357.654L243.537 353.376L246.427 352.57L250.146 351.013L253.864 349.457L258.546 347.631L262.264 346.075L266.117 345L266.498 350.085L262.264 346.075L262.913 352.123L258.546 347.631L258.232 353.948L253.864 349.457L254.032 355.639L250.146 351.013L250.66 356.579L246.427 352.57L246.807 357.654Z" fill="white"/>
<path d="M246.427 352.57L246.807 357.654L243.537 353.376L246.427 352.57ZM246.427 352.57L250.66 356.579L250.146 351.013M246.427 352.57L250.146 351.013M250.146 351.013L254.032 355.639L253.864 349.457M250.146 351.013L253.864 349.457M253.864 349.457L258.232 353.948L258.546 347.631M253.864 349.457L258.546 347.631M258.546 347.631L262.913 352.123L262.264 346.075M258.546 347.631L262.264 346.075M262.264 346.075L266.498 350.085L266.117 345L262.264 346.075Z" stroke="black" stroke-width="0.5"/>
<path d="M180.5 370L178.5 365L181 364.5L185 363.5L189 362.5L194 362C193.5 364 192.5 368.6 192.5 369C192.5 369.4 190.167 364.667 189 362.5L188.5 369L185 363.5L184.5 369.5L181 364.5L180.5 370Z" fill="white"/>
<path d="M181 364.5L180.5 370L178.5 365L181 364.5ZM181 364.5L184.5 369.5L185 363.5M181 364.5L185 363.5M185 363.5L188.5 369L189 362.5M185 363.5L189 362.5M189 362.5C190.167 364.667 192.5 369.4 192.5 369C192.5 368.6 193.5 364 194 362L189 362.5Z" stroke="black" stroke-width="0.5"/>
<path d="M307.5 329.5L303.5 327.5L307 325.5L310 323L314 320.5L315.5 326L310 323L312 328.5L307 325.5L307.5 329.5Z" fill="white"/>
<path d="M307 325.5L307.5 329.5L303.5 327.5L307 325.5ZM307 325.5L312 328.5L310 323M307 325.5L310 323M310 323L315.5 326L314 320.5L310 323Z" stroke="black" stroke-width="0.5"/>
<path d="M375.29 284.17L373 279.001L371.133 280.535L367.548 282.572L363.963 284.609L360 287.698C361.742 288.8 365.64 291.439 365.916 291.728C366.193 292.018 364.614 286.982 363.963 284.609L368.811 288.968L367.548 282.572L372.051 286.569L371.133 280.535L375.29 284.17Z" fill="white"/>
<path d="M371.133 280.535L375.29 284.17L373 279.001L371.133 280.535ZM371.133 280.535L372.051 286.569L367.548 282.572M371.133 280.535L367.548 282.572M367.548 282.572L368.811 288.968L363.963 284.609M367.548 282.572L363.963 284.609M363.963 284.609C364.614 286.982 366.193 292.018 365.916 291.728C365.64 291.439 361.742 288.8 360 287.698L363.963 284.609Z" stroke="black" stroke-width="0.5"/>
<path d="M70 369.5L77.5 369L76 376L83 375V382H89L89.5 388.5L96 388L95.5 394L102 392L102.5 398L109.5 393L108.5 401.5C110.5 399.333 114.5 395.2 114.5 396C114.5 396.8 114.167 402 114 404.5L123.5 398L121.5 409L128.5 400.5L128 412L134 405.5V414L140.5 409V416.5L147 410L148.5 419.5L153 412L153.5 421.5L158.5 415L159.5 422L165 413.5L166 423L172 415L173.5 424.5L178 417.5L180 425L183 419.5L185 425.5L190 419.5L192 426.5L185 425.5L180 425L173.5 424.5L166 423L159.5 422L153.5 421.5L148.5 419.5L140.5 416.5L134 414L128 412L121.5 409L114 404.5L108.5 401.5L102.5 398L95.5 394L89.5 388.5L83 382L76 376L73.5 373.5L70 369.5Z" fill="white"/>
<path d="M76 376L77.5 369L70 369.5L73.5 373.5L76 376ZM76 376L83 375V382M76 376L83 382M83 382H89L89.5 388.5M83 382L89.5 388.5M89.5 388.5L96 388L95.5 394M89.5 388.5L95.5 394M95.5 394L102 392L102.5 398M95.5 394L102.5 398M102.5 398L109.5 393L108.5 401.5M102.5 398L108.5 401.5M108.5 401.5C110.5 399.333 114.5 395.2 114.5 396C114.5 396.8 114.167 402 114 404.5M108.5 401.5L114 404.5M114 404.5L123.5 398L121.5 409M114 404.5L121.5 409M121.5 409L128.5 400.5L128 412M121.5 409L128 412M128 412L134 405.5V414M128 412L134 414M134 414L140.5 409V416.5M134 414L140.5 416.5M140.5 416.5L147 410L148.5 419.5M140.5 416.5L148.5 419.5M148.5 419.5L153 412L153.5 421.5M148.5 419.5L153.5 421.5M153.5 421.5L158.5 415L159.5 422M153.5 421.5L159.5 422M159.5 422L165 413.5L166 423M159.5 422L166 423M166 423L172 415L173.5 424.5M166 423L173.5 424.5M173.5 424.5L178 417.5L180 425M173.5 424.5L180 425M180 425L183 419.5L185 425.5M180 425L185 425.5M185 425.5L190 419.5L192 426.5L185 425.5Z" stroke="black" stroke-width="0.5"/>
<path d="M216 430.5L218 423.5L220 430.5L223.5 425.5L225.5 430.5L228.5 423.5L231 430.5L232.5 423L236 430L238 424L241 429.5L245 423.5L247 429L241 429.5L236 430L231 430.5H225.5H220H216Z" fill="white"/>
<path d="M220 430.5L218 423.5L216 430.5H220ZM220 430.5L223.5 425.5L225.5 430.5M220 430.5H225.5M225.5 430.5L228.5 423.5L231 430.5M225.5 430.5H231M231 430.5L232.5 423L236 430M231 430.5L236 430M236 430L238 424L241 429.5M236 430L241 429.5M241 429.5L245 423.5L247 429L241 429.5Z" stroke="black" stroke-width="0.5"/>
<path d="M376.03 361.706L375.436 354.213L381.366 355L381.366 348.638L386 349.5L386 342.5L392 341.5L388.5 337L397 334.5L395.5 330.5L399.5 329L398 321.914L403.857 321.914L401.97 316.877L407 316L403.857 307.852L411.5 308L406.294 302.822L415.561 301.5L411.224 297.259L418.5 296.5L414.643 290.716L420 290.5L415.561 284.204L421.5 283.5L417.486 278.179L423 277L416.438 272.082L424.609 270L418.835 266.161L426 265.5L420.247 259.143L428 258L422.672 253.112L429.5 253.112L424.609 248.088L430 246L424.521 241.088L430.5 240L427.5 235.5L431 235L428.5 232L431.276 231L429 228.5L431.552 227L428.5 225L431.793 223.5L429 221L432 220.5L430 217.5L431.717 216.25L429.5 215L431.433 212L429 210L431.1 207L429 206L430.867 203.5L429.5 202L430.7 201L429.5 200.5L430.5 198L430.7 201L430.867 203.5L431.1 207L431.433 212L431.717 216.25L432 220.5L431.793 223.5L431.552 227L431.276 231L431 235L430.5 240L430 246L429.5 253.112L428 258L426 265.5L424.609 270L423 277L421.5 283.5L420 290.5L418.5 296.5L415.561 301.5L411.5 308L407 316L403.857 321.914L399.5 329L397 334.5L392 341.5L386 349.5L381.366 355L379.5 358L376.03 361.706Z" fill="white"/>
<path d="M381.366 355L375.436 354.213L376.03 361.706L379.5 358L381.366 355ZM381.366 355L381.366 348.638L386 349.5M381.366 355L386 349.5M386 349.5L386 342.5L392 341.5M386 349.5L392 341.5M392 341.5L388.5 337L397 334.5M392 341.5L397 334.5M397 334.5L395.5 330.5L399.5 329M397 334.5L399.5 329M399.5 329L398 321.914L403.857 321.914M399.5 329L403.857 321.914M403.857 321.914L401.97 316.877L407 316M403.857 321.914L407 316M407 316L403.857 307.852L411.5 308M407 316L411.5 308M411.5 308L406.294 302.822L415.561 301.5M411.5 308L415.561 301.5M415.561 301.5L411.224 297.259L418.5 296.5M415.561 301.5L418.5 296.5M418.5 296.5L414.643 290.716L420 290.5M418.5 296.5L420 290.5M420 290.5L415.561 284.204L421.5 283.5M420 290.5L421.5 283.5M421.5 283.5L417.486 278.179L423 277M421.5 283.5L423 277M423 277L416.438 272.082L424.609 270M423 277L424.609 270M424.609 270L418.835 266.161L426 265.5M424.609 270L426 265.5M426 265.5L420.247 259.143L428 258M426 265.5L428 258M428 258L422.672 253.112L429.5 253.112M428 258L429.5 253.112M429.5 253.112L424.609 248.088L430 246M429.5 253.112L430 246M430 246L424.521 241.088L430.5 240M430 246L430.5 240M430.5 240L431 235M430.5 240L427.5 235.5L431 235M431 235L431.276 231M431 235L428.5 232L431.276 231M432 220.5L431.717 216.25M432 220.5L430 217.5L431.717 216.25M432 220.5L429 221L431.793 223.5M432 220.5L431.793 223.5M430.7 201L430.5 198L429.5 200.5L430.7 201ZM430.7 201L429.5 202L430.867 203.5M430.7 201L430.867 203.5M430.867 203.5L429 206L431.1 207M430.867 203.5L431.1 207M431.1 207L429 210L431.433 212M431.1 207L431.433 212M431.433 212L429.5 215L431.717 216.25M431.433 212L431.717 216.25M431.793 223.5L428.5 225L431.552 227M431.793 223.5L431.552 227M431.552 227L429 228.5L431.276 231M431.552 227L431.276 231" stroke="black" stroke-width="0.5"/>
<path d="M412 248L417 241L418.518 236.75L420.036 232.5L421.643 228L423.071 224L424.5 220L425.5 224.5L423.071 224L424.5 228H421.643L424 232L420.036 232.5L422.5 236L418.518 236.75L421 241H417L418.518 248H412Z" fill="white"/>
<path d="M417 241L412 248H418.518L417 241ZM417 241L418.518 236.75M417 241H421L418.518 236.75M423.071 224L424.5 220L425.5 224.5L423.071 224ZM423.071 224L424.5 228H421.643M423.071 224L421.643 228M421.643 228L424 232L420.036 232.5M421.643 228L420.036 232.5M420.036 232.5L422.5 236L418.518 236.75M420.036 232.5L418.518 236.75" stroke="black" stroke-width="0.5"/>
<path d="M297.5 409.001C297.5 408.601 299.833 411.834 301 413.501L297 415.501L293.5 416.501V409.501L297 415.501C297.083 413.584 297.5 409.401 297.5 409.001Z" fill="white"/>
<path d="M297 415.501L293.5 416.501V409.501L297 415.501ZM297 415.501L301 413.501C299.833 411.834 297.5 408.601 297.5 409.001C297.5 409.401 297.083 413.584 297 415.501Z" stroke="black" stroke-width="0.5"/>
<path d="M321 180.5L329 156.5L331.5 132.001L331.5 109.501L321 145.001L305.627 176.615L285 212.5L268 243.5L285 234L300.5 216L321 180.5Z" fill="black" stroke="black" stroke-width="1.10048"/>
<path d="M57.4474 238.277L106.311 280.549L90.6462 281.48L70.8707 268.291L47.9998 244.001L31.7318 219.308L26.9998 209.501L24.4347 179.221L32.6561 207.459L57.4474 238.277Z" fill="black" stroke="black" stroke-width="1.10048"/>
<defs>
<linearGradient id="paint0_linear_680_1143" x1="0" y1="220" x2="440" y2="220" gradientUnits="userSpaceOnUse">
<stop offset="0.399038" stop-color="white"/>
<stop offset="0.9999" stop-color="#9C9C9C"/>
<stop offset="1" stop-color="#E4E4E4"/>
</linearGradient>
</defs>
</svg>
