<svg width="804" height="838" viewBox="0 0 804 838" fill="none" xmlns="http://www.w3.org/2000/svg">
<path d="M646.989 629.317L594.85 631.519L530.85 629.336L496.85 616.212L439.35 559.898L411.579 497.123L382.571 527.404L411.579 574.398L463.85 624.579L513.85 651.398L578.35 651.398L651.486 636.724L689.944 684.61L679.728 643.791L717.522 631.519L673.118 629.336L701.506 611.615L658.666 616.212L629.415 590.888L646.989 629.317Z" fill="white" stroke="black" stroke-width="2"/>
<path d="M627.316 591.011L640.383 624.374L687.98 675.927L668.459 639.358L707.932 632.502L664.794 626.913L690.295 611.14L653.054 615.667L627.316 591.011Z" fill="black" stroke="black" stroke-width="0.634711"/>
<path d="M654.622 642.509L633.862 585.496L652.597 614.666L670.978 588.843L654.622 642.509Z" fill="#55534D" stroke="black" stroke-width="0.634711"/>
<path d="M643.282 627.072L682.973 675.445L655.592 653.73L649.346 686.026L643.282 627.072Z" fill="#55534D" stroke="black" stroke-width="0.634711"/>
<path d="M628.498 592.996L639.203 626.9L683.451 681.178L666.461 643.658L706.881 639.597L663.691 631.095L690.655 617.249L652.666 619.16L628.498 592.996Z" fill="#55534D" stroke="black" stroke-width="0.634711"/>
<path d="M642.109 625.284L690.238 665.435L659.612 649.497L660.858 683.449L642.109 625.284Z" fill="black" stroke="black" stroke-width="0.634711"/>
<path d="M264.648 382.712L353.616 359.614L472.669 316.19L488.398 320.471L496.052 338.15L274.851 396.632L262.717 394.673L264.648 382.712Z" fill="url(#paint0_linear_509_2030)" stroke="black" stroke-width="2"/>
<path d="M174.177 681.154V639.791L212.317 633.882L206.945 697.27L212.317 724.667L185.458 736.485L159.135 753.675H139.259C136.251 753.675 130.485 747.945 127.979 745.08L150.54 724.667L174.177 706.402V681.154Z" fill="white" stroke="black" stroke-width="2"/>
<path d="M155.913 726.815L158.061 717.683L147.318 728.426L146.243 737.021L180.623 740.245L161.284 752.6H137.111L129.59 745.616V758.509L137.111 763.881H161.284C163.863 763.881 180.265 754.57 188.144 749.914L212.317 737.021V724.129L192.441 732.724L155.913 726.815Z" fill="black" stroke="black" stroke-width="2"/>
<path d="M423.881 705.143L418.549 620.989H380.457L391.884 674.08L396.455 711.356L400.265 733.947L433.023 763.881L458.926 758.233L464.258 741.29L446.736 726.605L423.881 705.143Z" fill="white" stroke="black" stroke-width="2"/>
<path d="M452.386 730.575L446.8 747.228L411.999 743.48C421.746 752.533 431.756 761.732 432.134 761.732C432.693 761.732 449.593 758.151 457.973 756.36L464.258 740.782L458.671 766.567L427.944 772.476L399.312 743.468L398.614 726.815L399.312 731.65C400.205 732.486 401.174 733.393 402.2 734.351L441.213 740.782L446.8 725.741L452.386 730.575Z" fill="black"/>
<path d="M402.105 734.336L411.882 743.468L446.8 747.228L452.386 730.575L446.8 725.741L441.213 740.782L402.105 734.336ZM402.105 734.336L399.312 731.65M399.312 731.65L398.614 726.815L399.312 743.468L427.944 772.476L458.671 766.567L464.258 740.782L457.973 756.36C449.593 758.151 432.693 761.732 432.134 761.732C431.576 761.732 410.02 741.677 399.312 731.65Z" stroke="black" stroke-width="2"/>
<path d="M218.764 255.164L246.16 233.677L261.202 215.95L263.35 224.545L283.763 230.991L303.102 226.694L315.995 212.727L314.92 208.966L359.959 220.784L385.292 230.991L406.779 249.793L435.788 286.321L454.052 313.718V350.247L479.3 397.519L450.829 422.767L448.68 491.527L359.959 422.767L372.937 444.255L406.779 516.775L385.292 535.577L328.887 548.469L321.367 496.362C316.174 480.246 305.788 447.263 305.788 444.255C305.788 441.246 296.119 411.844 291.284 397.519L263.35 483.469L251.532 548.469L225.21 538.8L193.516 516.775L218.764 466.817L251.532 406.651L212.855 446.941L178.475 494.213L159.673 455.536L125.293 402.891L151.078 351.858L187.607 291.693L210.169 263.759L218.764 255.164Z" fill="#212E36"/>
<path d="M218.764 255.164L246.16 233.677L261.202 215.95L263.35 224.545L283.763 230.991L303.102 226.694L315.995 212.727L314.92 208.966L359.959 220.784L385.292 230.991M218.764 255.164L228.433 307.272L237.565 348.098L257.978 397.519M218.764 255.164L210.169 263.759L187.607 291.693L151.078 351.858L125.293 402.891L159.673 455.536L178.475 494.213L212.855 446.941L251.532 406.651M385.292 230.991L357.358 273.966V297.602V313.718V348.098L351.986 386.238M385.292 230.991L406.779 249.793L435.788 286.321L454.052 313.718V350.247L479.3 397.519L450.829 422.767L448.68 491.527L359.959 422.767M351.986 386.238L291.284 397.519M351.986 386.238L359.959 422.767M291.284 397.519H257.978M291.284 397.519L263.35 483.469L251.532 548.469L225.21 538.8L193.516 516.775L218.764 466.817L251.532 406.651M291.284 397.519C296.119 411.844 305.788 441.246 305.788 444.255C305.788 447.263 316.174 480.246 321.367 496.362L328.887 548.469L385.292 535.577L406.779 516.775L372.937 444.255L359.959 422.767M257.978 397.519L251.532 406.651" stroke="black" stroke-width="2"/>
<path d="M444.383 547.936L404.728 465.125L353.496 394.296L353.496 377.752L252.606 386.238L256.367 399.668L224.135 452.849L211.78 475.948L197.813 503.345L168.345 554.466L144.639 609.728L155.083 646.769L239.161 639.3L279.756 606.918L315.243 603.766L350.555 635.8L425.581 626.903L454.052 603.766L444.383 547.936Z" fill="#55534D" stroke="black" stroke-width="2"/>
<path d="M283.763 230.453L262.813 224.007L261.403 216.486L259.389 205.743L257.475 195.536L256.367 189.627L254.71 182.644L251.905 170.825L248.846 157.933L293.433 128.925L300.416 149.338L303.639 165.131L305.788 175.66L306.528 178.346L309.634 189.627L312.814 201.177L315.995 212.726L302.565 226.156L283.763 230.453Z" fill="#00A0B8"/>
<path d="M300.416 149.338L293.433 128.925L248.846 157.933L251.905 170.825M300.416 149.338L288.061 160.082L269.797 167.065L251.905 170.825M300.416 149.338L303.639 165.131M251.905 170.825L254.71 182.644M254.71 182.644L256.367 189.627L257.475 195.536M254.71 182.644L270.871 181.569L289.672 175.123L303.639 165.131M303.639 165.131L305.788 175.66L306.528 178.346M257.475 195.536L276.78 194.462L293.97 188.015L306.528 178.346M257.475 195.536L259.389 205.743M306.528 178.346L309.634 189.627M259.389 205.743L277.854 205.205L297.193 199.834L309.634 189.627M259.389 205.743L261.403 216.486M309.634 189.627L312.814 201.177M261.403 216.486L262.813 224.007L283.763 230.453L302.565 226.156L315.995 212.726L312.814 201.177M261.403 216.486H277.854L298.267 213.263L312.814 201.177" stroke="black" stroke-width="2"/>
<path d="M225.388 169.496L219.386 165.579L213.603 165.747L212.763 153.996L204.962 136.259L201.213 113.714L206.593 92.8007L211.939 84.4621L219.673 75.8545L222.851 54.7053C225.972 48.7932 232.427 36.7034 233.274 35.6409C234.333 34.3128 252.709 10.726 253.583 9.90225C254.282 9.24324 249.581 35.8988 247.48 43.7107L249.127 62.6239L260.593 65.6838L276.783 69.9037L309.297 45.2075L329.387 32.5484L295.981 81.5208L304.572 95.5419L308.758 109.092L307.901 120.793L297.847 138.849L244.537 165.646L225.388 169.496Z" fill="white"/>
<path d="M221.219 149.658C220.775 150.869 219.812 160.776 219.386 165.579M219.386 165.579L225.388 169.496L244.537 165.646L297.847 138.849L307.901 120.793L308.758 109.092L304.572 95.5419L295.981 81.5208L329.387 32.5484L309.297 45.2075L276.783 69.9037L260.593 65.6838L249.127 62.6239L247.48 43.7107C249.581 35.8988 254.282 9.24324 253.583 9.90225C252.709 10.726 234.333 34.3128 233.274 35.6409C232.427 36.7034 225.972 48.7932 222.851 54.7053L219.673 75.8545M219.386 165.579L213.603 165.747L212.763 153.996L204.962 136.259L201.213 113.714L206.593 92.8007L211.939 84.4621L219.673 75.8545M219.673 75.8545L227.776 66.2383" stroke="black" stroke-width="2"/>
<path d="M218.126 105.039L217.555 112.84L213.705 110.856L210.41 107.359L206.846 101.475L206.997 96.3813L210.09 89.5053L212.764 85.3361L216.361 95.8098L218.126 105.039Z" fill="#F50000" stroke="black" stroke-width="2"/>
<path d="M257.718 110.974L252.001 120.321C254.081 120.892 258.376 121.972 258.928 121.716C259.479 121.461 263.047 120.366 264.762 119.85L272.663 117.026L281.54 109.982L287.895 102.013L282.851 100.164L276.749 99.6426L268.158 102.786L257.718 110.974Z" fill="#DB0F0F" stroke="black" stroke-width="2"/>
<path d="M227.288 145.589L221.034 150.162L218.244 146.85L215.184 141.151L216.109 138.629L217.571 140.882L221.555 144.059L225.136 143.656L229.457 141.235L231.155 141.286L227.288 145.589Z" fill="black" stroke="black" stroke-width="2"/>
<path d="M295.797 82.0252L304.892 96.2312L310.793 86.3796L321.266 65.6171L328.798 46.6367L329.202 33.0528L295.797 82.0252Z" fill="black" stroke="black" stroke-width="2"/>
<path d="M228.97 497.973L267.111 434.585L218.764 497.973L192.441 584.998L228.97 497.973Z" fill="black"/>
<path d="M296.656 553.841L353.061 612.931C334.259 602.367 296.656 581.13 296.656 580.7C296.656 580.27 260.843 596.637 242.937 604.874L212.855 631.196V608.634L242.937 575.865L296.656 553.841Z" fill="black"/>
<path d="M228.97 497.973L267.111 434.585L218.764 497.973L192.441 584.998L228.97 497.973Z" stroke="black" stroke-width="0.842139"/>
<path d="M296.656 553.841L353.061 612.931C334.259 602.367 296.656 581.13 296.656 580.7C296.656 580.27 260.843 596.637 242.937 604.874L212.855 631.196V608.634L242.937 575.865L296.656 553.841Z" stroke="black" stroke-width="0.842139"/>
<path d="M345.003 517.311L306.862 441.567L330.499 525.906L375.085 597.889L345.003 517.311Z" fill="black" stroke="black" stroke-width="0.842139"/>
<path d="M406.242 541.485L328.887 434.585L386.903 541.485L421.82 582.849L406.242 541.485Z" fill="black" stroke="black" stroke-width="0.842139"/>
<path d="M180.086 351.32L211.243 330.37V353.469L204.26 375.494L158.061 406.114L133.888 419.006L122.07 422.766L98.4336 431.899L101.12 420.618L122.07 407.725L151.615 384.626L180.086 351.32Z" fill="white" stroke="black" stroke-width="2"/>
<path d="M3.38229 459.036L100.309 432.22L252.55 383.164L254.357 390.774L256.092 399.993L16.875 469.862L2.92232 469.232L3.38229 459.036Z" fill="url(#paint1_linear_509_2030)" stroke="black" stroke-width="2"/>
<path d="M162.874 428.053L158.161 413.321L3.89438 459.597L1.26363 470.233L15.2163 470.863L162.874 428.053Z" fill="black" stroke="black" stroke-width="2"/>
<path d="M113.474 441.031L109.177 449.088L116.16 452.311H124.755C127.799 452.132 134.21 451.774 135.499 451.774C136.788 451.774 138.901 446.761 139.796 444.254L146.243 433.51L142.482 429.212L133.887 431.361L127.978 430.287L119.921 441.031H113.474Z" fill="white" stroke="black" stroke-width="2"/>
<path d="M400.622 318.121L421.85 312.46C426.724 316.234 436.662 324.348 437.417 326.612C438.172 328.876 435.53 344.852 434.115 352.557H398.263L354.392 338.405L337.881 344.538L317.125 338.405L296.84 346.897V340.764C296.84 340.306 297.637 339.468 298.941 338.405H293.067L289.293 333.216L296.84 324.253L304.86 318.121H297.312L288.821 324.253L282.688 321.423L283.16 316.706L297.784 307.271H314.766C316.653 307.271 324.358 308.529 327.975 309.158L344.014 316.706L400.622 318.121Z" fill="white"/>
<path d="M298.941 338.405C297.637 339.468 296.84 340.306 296.84 340.764C296.84 342.651 296.84 345.639 296.84 346.897L317.125 338.405L337.881 344.538L354.392 338.405L398.263 352.557H434.115C435.53 344.852 438.172 328.876 437.417 326.612C436.662 324.348 426.724 316.234 421.85 312.46L400.622 318.121L344.014 316.706L327.975 309.158C324.358 308.529 316.653 307.271 314.766 307.271C312.879 307.271 302.659 307.271 297.784 307.271L283.16 316.706L282.688 321.423L288.821 324.253L297.312 318.121H304.86M298.941 338.405C303.007 335.09 312.005 329.589 317.125 326.612L298.941 338.405ZM298.941 338.405H293.067L289.293 333.216L296.84 324.253L304.86 318.121M304.86 318.121L314.766 316.234" stroke="black" stroke-width="2"/>
<defs>
<linearGradient id="paint0_linear_509_2030" x1="389.622" y1="298.252" x2="371.226" y2="412.193" gradientUnits="userSpaceOnUse">
<stop offset="0.9999" stop-color="#DDDDDD"/>
<stop offset="1" stop-color="#777777"/>
</linearGradient>
<linearGradient id="paint1_linear_509_2030" x1="132.074" y1="377.729" x2="127.692" y2="474.861" gradientUnits="userSpaceOnUse">
<stop stop-color="#DDDDDD"/>
<stop offset="1" stop-color="#777777"/>
</linearGradient>
</defs>
</svg>
