<svg width="440" height="505" viewBox="0 0 440 505" fill="none" xmlns="http://www.w3.org/2000/svg">
<circle cx="220" cy="220" r="219.5" transform="matrix(-1 0 0 1 440 0)" fill="url(#paint0_linear_770_902)" stroke="black"/>
<path d="M62.4408 274.23C75.7762 268.65 87.4983 266.102 98.0493 271.829C106.556 278.234 107.836 285.565 110.013 295.988C112.956 310.074 110.157 321.028 100.325 333.896C94.4135 340.536 82.9468 347.314 71.2479 346.584C57.2873 345.712 45.7415 322.363 45.7415 322.363C44.3173 309.738 41.202 299.263 45.8068 290.566C50.4116 281.868 54.0186 277.755 62.4408 274.23Z" fill="#F50000"/>
<path d="M98.0493 271.829C87.4983 266.102 75.7762 268.65 62.4408 274.23C54.0186 277.755 50.4116 281.868 45.8068 290.566C41.202 299.263 44.3173 309.738 45.7415 322.363C45.7415 322.363 57.2873 345.712 71.2479 346.584C82.9468 347.314 94.4135 340.536 100.325 333.896M98.0493 271.829C106.556 278.234 107.836 285.565 110.013 295.988C112.956 310.074 110.157 321.028 100.325 333.896M98.0493 271.829C87.6336 276.188 68.9725 284.518 68.9725 284.518L58.6634 305.498L64.3024 325.012C64.3024 325.012 86.2571 330.426 100.325 333.896" stroke="black" stroke-width="4.82861"/>
<path d="M47.1132 292.622L60.035 275.757L86.9129 270.238L89.5256 274.353L68.9726 284.516L54.9513 304.966L64.3025 325.011L94.2068 334.892L84.5835 341.002L69.9416 344.525L47.048 324.419L47.1132 292.622Z" fill="black" stroke="black" stroke-width="4.82861"/>
<path d="M310.072 203.417C295.965 209.022 285.295 215.69 281.577 227.617C279.891 238.553 284.311 244.903 290.325 254.192C298.453 266.744 308.594 272.794 325.418 275.128C334.729 275.722 348.312 272.365 356.559 263.292C366.4 252.465 357.932 226.794 357.932 226.794C349.737 216.429 344.388 206.418 334.548 203.351C324.708 200.285 318.982 199.877 310.072 203.417Z" fill="#F50000"/>
<path d="M281.577 227.617C285.295 215.69 295.965 209.022 310.072 203.417C318.982 199.877 324.708 200.285 334.548 203.351C344.388 206.418 349.737 216.429 357.932 226.794C357.932 226.794 366.4 252.465 356.559 263.292C348.312 272.365 334.729 275.722 325.418 275.128M281.577 227.617C279.891 238.553 284.311 244.903 290.325 254.192C298.453 266.744 308.594 272.794 325.418 275.128M281.577 227.617C292.595 223.24 312.718 215.781 312.718 215.781L335.854 223.76L345.942 242.29C345.942 242.29 333.433 262.304 325.418 275.128" stroke="black" stroke-width="4.82861"/>
<path d="M335.078 205.826L313 202.792L288.772 218.321L289.83 223.267L312.719 215.782L338.253 220.662L345.943 242.291L330.744 271.404L342.453 268.898L356.03 260.821L358.462 229.268L335.078 205.826Z" fill="black" stroke="black" stroke-width="4.82861"/>
<path d="M375.129 356.136L348.799 392.058L328.146 408.401L284.212 427.91L240.051 436.046L198.5 436.046L159.5 427.91L130.5 418L115 404.5L86.4052 374.668L121.784 374.938L142.789 375.099L193.541 381.061L242.857 357.579L287.561 344.095L335.935 347.141L366.707 321.956C366.707 321.956 388.586 287.487 392.413 272.204L375.129 356.136Z" fill="black" stroke="black" stroke-width="1.03349"/>
<path d="M132.746 414.944L137.477 408.735L137.126 416.524L141.933 412.544L141.077 417.839L147.337 412.638L147.203 419.744L151.27 413.683L152.075 421.162L156.08 416.61L156.947 422.579L162.831 418.771L162 423.999L156.947 422.579L152.075 421.162L147.203 419.744L141.077 417.839L137.126 416.524L132.746 414.944L131.199 414.551L126 409.999L121 405.499L116.855 401.499L113.5 397.999L109.5 393.999L106.548 390.499L104 388.499L103.5 387.999L101 384.999L99.5002 383.499L96.5002 379.999L100 380.499L99.5002 383.499L101 384.999L103.5 384.999L103.5 387.999L104 388.499L107.5 387.499L106.548 390.499L110.145 390.999L109.5 393.999L113.5 393.999L113.5 397.999L116.855 396.499L116.855 401.499L121.5 399.999L121 405.499L126.762 402.94L126 409.999C127.397 409.396 130.062 407.276 130.258 407.711C130.455 408.147 130.967 412.452 131.199 414.551L132.746 414.944Z" fill="white"/>
<path d="M132.746 414.944L137.477 408.735L137.126 416.524M132.746 414.944L137.126 416.524M132.746 414.944L131.199 414.551M137.126 416.524L141.933 412.544L141.077 417.839M137.126 416.524L141.077 417.839M141.077 417.839L147.337 412.638L147.203 419.744M141.077 417.839L147.203 419.744M147.203 419.744L151.27 413.683L152.075 421.162M147.203 419.744L152.075 421.162M152.075 421.162L156.08 416.61L156.947 422.579M152.075 421.162L156.947 422.579M156.947 422.579L162.831 418.771L162 423.999L156.947 422.579ZM131.199 414.551L126 409.999M131.199 414.551C130.967 412.452 130.455 408.147 130.258 407.711C130.062 407.276 127.397 409.396 126 409.999M99.5002 383.499L96.5002 379.999L100 380.499L99.5002 383.499ZM99.5002 383.499L101 384.999M101 384.999L103.5 384.999L103.5 387.999M101 384.999L103.5 387.999M103.5 387.999L104 388.499M104 388.499L107.5 387.499L106.548 390.499M104 388.499L106.548 390.499M106.548 390.499L110.145 390.999L109.5 393.999M106.548 390.499L109.5 393.999M109.5 393.999L113.5 393.999L113.5 397.999M109.5 393.999L113.5 397.999M113.5 397.999L116.855 396.499L116.855 401.499M113.5 397.999L116.855 401.499M116.855 401.499L121.5 399.999L121 405.499M116.855 401.499L121 405.499M121 405.499L126.762 402.94L126 409.999M121 405.499L126 409.999" stroke="black" stroke-width="0.5"/>
<path d="M166.452 425.479L170.897 419.153L171.016 426.409L175.64 422.444L176.27 427.768L180.928 421.748L181.525 429.127L184.878 422.253L186.268 430.089L189.876 424.578L191.337 431.02L196.691 425.824L196.25 432.253L191.337 431.02L186.268 430.089L181.525 429.127L176.27 427.768L171.016 426.409L166.452 425.479Z" fill="white"/>
<path d="M171.016 426.409L170.897 419.153L166.452 425.479L171.016 426.409ZM171.016 426.409L175.64 422.444L176.27 427.768M171.016 426.409L176.27 427.768M176.27 427.768L180.928 421.748L181.525 429.127M176.27 427.768L181.525 429.127M181.525 429.127L184.878 422.253L186.268 430.089M181.525 429.127L186.268 430.089M186.268 430.089L189.876 424.578L191.337 431.02M186.268 430.089L191.337 431.02M191.337 431.02L196.691 425.824L196.25 432.253L191.337 431.02Z" stroke="black" stroke-width="0.5"/>
<path d="M198.452 433.134L202.731 423.986L203.384 432.973L207.473 427.167L208.85 432.682L212.293 424.852L214.086 433.035L216.003 424.501L218.973 433.001L220.878 426.318L222.855 433.053L227.32 426.214L228.5 432.5L222.855 433.053L218.973 433.001L214.086 433.035L208.85 432.682L203.384 432.973L198.452 433.134Z" fill="white"/>
<path d="M203.384 432.973L202.731 423.986L198.452 433.134L203.384 432.973ZM203.384 432.973L207.473 427.167L208.85 432.682M203.384 432.973L208.85 432.682M208.85 432.682L212.293 424.852L214.086 433.035M208.85 432.682L214.086 433.035M214.086 433.035L216.003 424.501L218.973 433.001M214.086 433.035L218.973 433.001M218.973 433.001L220.878 426.318L222.855 433.053M218.973 433.001L222.855 433.053M222.855 433.053L227.32 426.214L228.5 432.5L222.855 433.053Z" stroke="black" stroke-width="0.5"/>
<path d="M240.5 433L230 433L233.427 425.236L240.5 433L241.303 428.252L243.5 432.5C244.047 430.368 245.538 424.137 245.371 423.6C245.205 423.064 247.993 429.013 249 431.361L249.543 425.193L254 430.668L254.675 422.779L261 429.084L263.77 421.288L268.5 427.5L270.884 419.335L275.5 426L277.058 420.274L283 424.5L285.757 416.327L292.26 420.25L293.429 414.368L299.123 417.31L299.797 410.637L304.766 414.893L305.783 409.791L309.531 412.853L310.707 406.707L316.677 409.792L317.591 405.198L320.504 408.152C320.653 406.433 320.954 402.771 320.971 401.879C320.987 400.988 324.468 404.062 326.206 405.71L326.77 399.248L331.698 401.513L331.506 394.379L337.191 397.316L336.888 390.406L341.585 393.959L339.83 386.861L347.297 389.594C347.402 387.959 347.68 384.557 347.955 384.024L350.474 385.326L348.363 380.014L353.65 381.057L351.346 374.239L357.583 375.773L356.52 369.596L360.608 371.708L358.815 365.154C360.221 365.88 363.093 367.477 363.331 368.05L360.652 361.6L366.356 363.985L364.678 359.178L369.684 359.514L368.079 354.744L372.709 355.449L371.25 350.755L374.033 349.129L371.146 344.511L375.356 342.809L372.128 339.39L376.431 337.674L374.423 334.948L377.624 331.974L375.404 329.827L378.758 326.557L376.823 324.932L379.514 322.946L378.758 326.557L377.624 331.974L376.431 337.674L375.356 342.809L374.033 349.129L372.709 355.449L369.684 359.514L366.356 363.985L363.331 368.05L360.608 371.708L357.583 375.773L353.65 381.057L350.474 385.326L347.297 389.594L341.585 393.959L337.191 397.316L331.698 401.513L326.206 405.71L320.504 408.152L316.677 409.792L309.531 412.853L304.766 414.893L299.123 417.31L292.26 420.25L283 424.5L275.5 426L268.5 427.5L261 429.084L254 430.668L249 431.361L243.5 432.5L240.5 433Z" fill="white"/>
<path d="M240.5 433L230 433L233.427 425.236L240.5 433ZM240.5 433L243.5 432.5M240.5 433L241.303 428.252L243.5 432.5M283 424.5L292.26 420.25M283 424.5L285.757 416.327L292.26 420.25M283 424.5L277.058 420.274L275.5 426M283 424.5L275.5 426M326.206 405.71L331.698 401.513M326.206 405.71L326.77 399.248L331.698 401.513M326.206 405.71C324.468 404.062 320.987 400.988 320.971 401.879C320.954 402.771 320.653 406.433 320.504 408.152M326.206 405.71L320.504 408.152M347.297 389.594L350.474 385.326M347.297 389.594C347.402 387.959 347.68 384.557 347.955 384.024L350.474 385.326M347.297 389.594L339.83 386.861L341.585 393.959M347.297 389.594L341.585 393.959M372.709 355.449L374.033 349.129M372.709 355.449L371.25 350.755L374.033 349.129M372.709 355.449L368.079 354.744L369.684 359.514M372.709 355.449L369.684 359.514M378.758 326.557L379.514 322.946L376.823 324.932L378.758 326.557ZM378.758 326.557L375.404 329.827L377.624 331.974M378.758 326.557L377.624 331.974M377.624 331.974L374.423 334.948L376.431 337.674M377.624 331.974L376.431 337.674M376.431 337.674L372.128 339.39L375.356 342.809M376.431 337.674L375.356 342.809M375.356 342.809L371.146 344.511L374.033 349.129M375.356 342.809L374.033 349.129M369.684 359.514L364.678 359.178L366.356 363.985M369.684 359.514L366.356 363.985M366.356 363.985L360.652 361.6L363.331 368.05M366.356 363.985L363.331 368.05M363.331 368.05C363.093 367.477 360.221 365.88 358.815 365.154L360.608 371.708M363.331 368.05L360.608 371.708M360.608 371.708L356.52 369.596L357.583 375.773M360.608 371.708L357.583 375.773M357.583 375.773L351.346 374.239L353.65 381.057M357.583 375.773L353.65 381.057M353.65 381.057L348.363 380.014L350.474 385.326M353.65 381.057L350.474 385.326M341.585 393.959L336.888 390.406L337.191 397.316M341.585 393.959L337.191 397.316M337.191 397.316L331.506 394.379L331.698 401.513M337.191 397.316L331.698 401.513M320.504 408.152L317.591 405.198L316.677 409.792M320.504 408.152L316.677 409.792M316.677 409.792L310.707 406.707L309.531 412.853M316.677 409.792L309.531 412.853M309.531 412.853L305.783 409.791L304.766 414.893M309.531 412.853L304.766 414.893M304.766 414.893L299.797 410.637L299.123 417.31M304.766 414.893L299.123 417.31M299.123 417.31L293.429 414.368L292.26 420.25M299.123 417.31L292.26 420.25M275.5 426L270.884 419.335L268.5 427.5M275.5 426L268.5 427.5M268.5 427.5L263.77 421.288L261 429.084M268.5 427.5L261 429.084M261 429.084L254.675 422.779L254 430.668M261 429.084L254 430.668M254 430.668L249.543 425.193L249 431.361M254 430.668L249 431.361M249 431.361C247.993 429.013 245.205 423.064 245.371 423.6C245.538 424.137 244.047 430.368 243.5 432.5M249 431.361L243.5 432.5" stroke="black" stroke-width="1.03349"/>
<path d="M365.538 325.291L363.848 332.86L359.227 330.472L360.676 336.849L352.495 335.998L351.882 344.687L344.079 342.906L342.255 352.094L335.664 349.814C335.177 352.189 334.069 356.982 333.535 357.156C333.001 357.33 329.048 352.024 327.139 349.349L322.875 359.527L316.773 348.783C315.115 352.708 311.757 360.424 311.59 359.887C311.423 359.351 305.44 351.74 302.469 348.002L297.938 356.773L288.166 347.221L285.077 358.57L277.047 350.481L273.415 367.177L260.369 355.371C259.76 360.309 258.367 370.095 257.666 369.732C256.965 369.37 248.057 363.267 243.691 360.26L243.022 372.296L231.279 366.229L230.233 382.01L214.917 374.096L209.247 392.553L193.478 384.405L187.595 391.495L183.061 383.084L173.305 398.745L167.495 381.11L160.164 391.955L155.226 379.554L148.525 387.629L142.956 377.999L135.529 384.854L130.018 378.067L125.162 383.437L119.236 378.124L116.252 383.899L108.454 378.181L104.5 380.5C102.167 379.666 97.6004 377.999 98.0005 377.999C98.4005 377.999 105.136 378.12 108.454 378.181L119.236 378.124L130.018 378.067L142.956 377.999L155.226 379.554L167.495 381.11L183.061 383.084L193.478 384.405L214.917 374.096L231.279 366.229L243.691 360.26L260.369 355.371L277.047 350.481L288.166 347.221L302.469 348.002L316.773 348.783L327.139 349.349L335.664 349.814L344.079 342.906L352.495 335.998L359.227 330.472L365.538 325.291L367.562 323.523L369.909 319.67L372.257 315.818L374.082 312.822L375.647 310.254L377.994 306.401L379.298 304.261L380.863 301.693L382.167 299.552L382.355 301.338L380.863 301.693L381.207 303.559L379.298 304.261L379.371 307.112L377.994 306.401L377.994 309.778L375.647 310.254L375.949 312.661L374.082 312.822L373.748 315.463L372.257 315.818L372.047 320.212L369.909 319.67C370.239 320.591 370.854 322.522 370.67 322.878C370.487 323.233 368.522 323.456 367.562 323.523C368.138 324.571 369.075 326.668 368.222 326.678C367.368 326.687 366.077 325.757 365.538 325.291Z" fill="white"/>
<path d="M108.454 378.181L119.236 378.124M108.454 378.181L116.252 383.899L119.236 378.124M108.454 378.181L104.5 380.5C102.167 379.666 97.6005 377.999 98.0005 377.999C98.4005 377.999 105.136 378.12 108.454 378.181ZM142.956 377.999L155.226 379.554M142.956 377.999L148.525 387.629L155.226 379.554M142.956 377.999L135.529 384.854L130.018 378.067M142.956 377.999L130.018 378.067M193.478 384.405L214.917 374.096M193.478 384.405L209.247 392.553L214.917 374.096M193.478 384.405L187.595 391.495L183.061 383.084M193.478 384.405L183.061 383.084M243.691 360.26L260.369 355.371M243.691 360.26C248.057 363.267 256.965 369.37 257.666 369.732C258.367 370.095 259.76 360.309 260.369 355.371M243.691 360.26L243.022 372.296L231.279 366.229M243.691 360.26L231.279 366.229M288.166 347.221L302.469 348.002M288.166 347.221L297.938 356.773L302.469 348.002M288.166 347.221L285.077 358.57L277.047 350.481M288.166 347.221L277.047 350.481M335.664 349.814L344.079 342.906M335.664 349.814L342.255 352.094L344.079 342.906M335.664 349.814C335.177 352.189 334.069 356.982 333.535 357.156C333.001 357.33 329.048 352.024 327.139 349.349M335.664 349.814L327.139 349.349M365.538 325.291L363.848 332.86L359.227 330.472M365.538 325.291L359.227 330.472M365.538 325.291L367.562 323.523M365.538 325.291C366.077 325.757 367.368 326.687 368.222 326.678C369.075 326.668 368.138 324.571 367.562 323.523M359.227 330.472L360.676 336.849L352.495 335.998M359.227 330.472L352.495 335.998M352.495 335.998L351.882 344.687L344.079 342.906M352.495 335.998L344.079 342.906M327.139 349.349L322.875 359.527L316.773 348.783M327.139 349.349L316.773 348.783M316.773 348.783C315.115 352.708 311.757 360.424 311.59 359.887C311.423 359.351 305.44 351.74 302.469 348.002M316.773 348.783L302.469 348.002M277.047 350.481L273.415 367.177L260.369 355.371M277.047 350.481L260.369 355.371M231.279 366.229L230.233 382.01L214.917 374.096M231.279 366.229L214.917 374.096M183.061 383.084L173.305 398.745L167.495 381.11M183.061 383.084L167.495 381.11M167.495 381.11L160.164 391.955L155.226 379.554M167.495 381.11L155.226 379.554M130.018 378.067L125.162 383.437L119.236 378.124M130.018 378.067L119.236 378.124M367.562 323.523L369.909 319.67M367.562 323.523C368.522 323.456 370.487 323.233 370.67 322.878C370.854 322.522 370.239 320.591 369.909 319.67M380.863 301.693L382.167 299.552L382.355 301.338L380.863 301.693ZM380.863 301.693L381.207 303.559L379.298 304.261M380.863 301.693L379.298 304.261M379.298 304.261L379.371 307.112L377.994 306.401M379.298 304.261L377.994 306.401M377.994 306.401L377.994 309.778L375.647 310.254M377.994 306.401L375.647 310.254M375.647 310.254L375.949 312.661L374.082 312.822M375.647 310.254L374.082 312.822M374.082 312.822L373.748 315.463L372.257 315.818M374.082 312.822L372.257 315.818M372.257 315.818L372.047 320.212L369.909 319.67M372.257 315.818L369.909 319.67" stroke="black" stroke-width="1.03349"/>
<defs>
<linearGradient id="paint0_linear_770_902" x1="440" y1="220" x2="0" y2="220" gradientUnits="userSpaceOnUse">
<stop stop-color="#434141"/>
<stop offset="0.000100017" stop-color="#434141"/>
<stop offset="1" stop-color="#5F5F5F"/>
</linearGradient>
</defs>
</svg>
