<svg width="32" height="61" viewBox="0 0 32 61" fill="none" xmlns="http://www.w3.org/2000/svg">
<path d="M9.95399 22.5714L13.571 31.5714C13.571 31.5714 13.9505 45.1514 11.6561 50.2143C9.36175 55.2772 0.757007 57.0714 0.757007 57.0714L30.163 55.5714C30.163 55.5714 21.8689 53.6429 17.8263 49.5714C13.9421 45.6594 14.8476 32.2143 14.8476 32.2143L19.3157 22.5714L24.2093 17C24.2093 17 17.5242 18.2452 13.3582 16.3571C9.10292 14.4286 4.8476 17.9308 4.8476 17.9308L9.95399 22.5714Z" fill="#F9C435"/>
<path d="M30.5923 0.5H0.592285L1.17587 3.92857L29.888 5.64286L30.5923 0.5Z" fill="#FF0000"/>
<path d="M0.592285 60.5H30.5923L30.163 55.5714L0.757007 57.0714L0.592285 60.5Z" fill="#FF0000"/>
<path d="M1.17587 3.92857L3.14548 15.5L4.8476 17.9308C4.8476 17.9308 9.10292 14.4286 13.3582 16.3571C17.5242 18.2452 24.2093 17 24.2093 17L28.8902 12.9286L29.888 5.64286L1.17587 3.92857Z" fill="#A0B6B8"/>
<path d="M18.4646 36.5L14.8476 32.2143C14.8476 32.2143 13.9421 45.6594 17.8263 49.5714C21.8689 53.6429 30.163 55.5714 30.163 55.5714L29.5285 48.2857L24.2093 42.2857L18.4646 36.5Z" fill="#A0B6B8"/>
<path d="M8.25186 40.1429L1.23058 47.2143L0.757007 57.0714C0.757007 57.0714 9.36175 55.2772 11.6561 50.2143C13.9505 45.1514 13.571 31.5714 13.571 31.5714L8.25186 40.1429Z" fill="#A0B6B8"/>
<path d="M13.571 31.5714L8.25186 40.1429L1.23058 47.2143L0.757007 57.0714M13.571 31.5714L9.95399 22.5714L4.8476 17.9308M13.571 31.5714C13.571 31.5714 13.9505 45.1514 11.6561 50.2143C9.36175 55.2772 0.757007 57.0714 0.757007 57.0714M14.8476 32.2143L19.3157 22.5714L24.2093 17M14.8476 32.2143L18.4646 36.5L24.2093 42.2857L29.5285 48.2857L30.163 55.5714M14.8476 32.2143C14.8476 32.2143 13.9421 45.6594 17.8263 49.5714C21.8689 53.6429 30.163 55.5714 30.163 55.5714M0.757007 57.0714L0.592285 60.5H30.5923L30.163 55.5714M0.757007 57.0714L30.163 55.5714M1.17587 3.92857L3.14548 15.5L4.8476 17.9308M1.17587 3.92857L0.592285 0.5H30.5923L29.888 5.64286M1.17587 3.92857L29.888 5.64286M29.888 5.64286L28.8902 12.9286L24.2093 17M4.8476 17.9308C4.8476 17.9308 9.10292 14.4286 13.3582 16.3571C17.5242 18.2452 24.2093 17 24.2093 17" stroke="black"/>
</svg>
