<svg width="58" height="65" viewBox="0 0 58 65" fill="none" xmlns="http://www.w3.org/2000/svg">
<path d="M0.721497 58.2486C1.1215 58.2486 4.88816 56.9153 6.7215 56.2486L8.2215 51.7486L11.0215 47.7486L11.7215 46.7486L13.3799 43.4318L14.2215 41.7486V38.9986V36.2486L13.9715 33.7835L13.7215 31.3185L14.2215 29.0335L14.7215 26.7486L15.0002 25.7486L15.8993 22.5227L15.2215 22.7486H12.7215L11.2215 28.7486L10.7215 41.7486L9.2215 45.2486L5.2215 49.2486L2.2215 54.2486L0.721497 58.2486Z" fill="#D9D9D9"/>
<path d="M18.2215 21.7486L22.2215 19.2486V15.2486L18.7215 7.7486L12.7215 0.748596L10.7215 3.2486V18.7486L12.7215 22.7486H15.2215L15.8993 22.5227L18.2215 21.7486Z" fill="#D9D9D9"/>
<path d="M22.2215 19.2486L24.7215 14.7486L21.2215 9.2486L12.7215 0.748596L18.7215 7.7486L22.2215 15.2486V19.2486Z" fill="#D9D9D9"/>
<path d="M33.2215 14.7486H35.2215L36.0451 15.0654L38.7215 9.2486L46.2156 1.86111L46.2215 1.7486L44.2215 0.748596L36.2215 8.2486C35.3882 10.2486 33.6215 14.3486 33.2215 14.7486Z" fill="#D9D9D9"/>
<path d="M41.7215 17.2486L45.2215 20.7486L46.2156 1.86111L38.7215 9.2486L36.0451 15.0654L41.7215 17.2486Z" fill="#D9D9D9"/>
<path d="M48.2215 36.2486L50.2215 35.2486L47.8263 33.5187L44.7798 31.3185L41.2215 28.7486L40.7215 29.0264L36.7215 31.2486L34.7215 35.2486L43.7215 35.9153L48.2215 36.2486Z" fill="#D9D9D9"/>
<path d="M28.2215 21.2486H24.2215L21.7215 24.2486L20.7215 28.2486L21.2215 31.2486L23.7215 33.2486L28.7215 32.7486L31.2215 29.2486V24.2486L28.2215 21.2486Z" fill="white"/>
<path d="M40.7215 29.0264L41.2215 28.7486L44.7798 31.3185L46.7215 30.7486L47.4715 29.9986L48.2215 29.2486V22.2486L46.7215 20.7486H45.2215H43.7215L40.7215 23.2486V29.0264Z" fill="white"/>
<path fill-rule="evenodd" clip-rule="evenodd" d="M6.7215 56.2486L11.7215 59.2486H20.7215L28.2215 60.7486L35.7215 63.7486H42.2215L56.7215 54.2486L52.7215 46.7486L48.2215 42.7486V36.2486L43.7215 35.9153L34.7215 35.2486L36.7215 31.2486L40.7215 29.0264V23.2486L43.7215 20.7486H45.2215L41.7215 17.2486L36.0451 15.0654L35.2215 14.7486H33.2215H24.7215L22.2215 19.2486L18.2215 21.7486L15.8993 22.5227L15.0002 25.7486L14.7215 26.7486L14.2215 29.0335L13.7215 31.3185L13.9715 33.7835L14.2215 36.2486V38.9986V41.7486L13.3799 43.4318L11.7215 46.7486L11.0215 47.7486L8.2215 51.7486L6.7215 56.2486ZM24.2215 21.2486H28.2215L31.2215 24.2486V29.2486L28.7215 32.7486L23.7215 33.2486L21.2215 31.2486L20.7215 28.2486L21.7215 24.2486L24.2215 21.2486Z" fill="#D9D9D9"/>
<path d="M6.7215 56.2486C4.88816 56.9153 1.1215 58.2486 0.721497 58.2486L2.2215 54.2486L5.2215 49.2486L9.2215 45.2486L10.7215 41.7486L11.2215 28.7486L12.7215 22.7486M6.7215 56.2486L11.7215 59.2486H20.7215L28.2215 60.7486L35.7215 63.7486H42.2215L56.7215 54.2486L52.7215 46.7486L48.2215 42.7486V36.2486M6.7215 56.2486L8.2215 51.7486M48.2215 36.2486L50.2215 35.2486L47.8263 33.5187M48.2215 36.2486L43.7215 35.9153M35.7215 35.7486L36.2215 37.7486L39.7215 38.7486L43.7215 35.9153M43.7215 35.9153L34.7215 35.2486L36.7215 31.2486L40.7215 29.0264M40.7215 29.0264L41.2215 28.7486L44.7798 31.3185M40.7215 29.0264V23.2486L43.7215 20.7486H45.2215M44.7798 31.3185L46.7215 30.7486L47.4715 29.9986M44.7798 31.3185L47.8263 33.5187M47.8263 33.5187L47.4715 29.9986M47.4715 29.9986L48.2215 29.2486V22.2486L46.7215 20.7486H45.2215M45.2215 20.7486L41.7215 17.2486L36.0451 15.0654M45.2215 20.7486L46.2156 1.86111M24.7215 14.7486L22.2215 19.2486M24.7215 14.7486L21.2215 9.2486L12.7215 0.748596M24.7215 14.7486H33.2215M22.2215 19.2486L18.2215 21.7486L15.8993 22.5227M22.2215 19.2486V15.2486L18.7215 7.7486L12.7215 0.748596M12.7215 22.7486H15.2215L15.8993 22.5227M12.7215 22.7486L10.7215 18.7486V3.2486L12.7215 0.748596M8.2215 51.7486H6.7215M8.2215 51.7486L11.0215 47.7486M8.2215 51.7486L9.7215 52.7486M15.8993 22.5227L15.0002 25.7486M11.0215 47.7486L11.7215 46.7486L13.3799 43.4318M11.0215 47.7486L9.7215 47.2486M11.0215 47.7486L12.2215 49.2486M13.3799 43.4318L14.2215 41.7486V38.9986M13.3799 43.4318L12.2215 43.2486M13.3799 43.4318L14.2215 44.2486M14.2215 38.9986V36.2486L13.9715 33.7835M14.2215 38.9986H12.9187M14.2215 38.9986H15.7215M13.9715 33.7835L13.7215 31.3185L14.2215 29.0335M13.9715 33.7835L12.9187 34.0655M13.9715 33.7835H15.2215M14.2215 29.0335L14.7215 26.7486L15.0002 25.7486M14.2215 29.0335L12.9187 28.7486M14.2215 29.0335L15.2215 29.7486M15.0002 25.7486L13.7215 25.2486M15.0002 25.7486L16.2215 26.7486M33.2215 14.7486H35.2215L36.0451 15.0654M33.2215 14.7486C33.6215 14.3486 35.3882 10.2486 36.2215 8.2486L44.2215 0.748596L46.2215 1.7486L46.2156 1.86111M36.0451 15.0654L38.7215 9.2486L46.2156 1.86111M28.7215 26.7486V27.7486H27.7215M45.7215 26.7486V27.7486H46.7215M28.2215 21.2486H24.2215L21.7215 24.2486L20.7215 28.2486L21.2215 31.2486L23.7215 33.2486L28.7215 32.7486L31.2215 29.2486V24.2486L28.2215 21.2486Z" stroke="black"/>
</svg>
