<svg width="78" height="63" viewBox="0 0 78 63" fill="none" xmlns="http://www.w3.org/2000/svg">
<mask id="path-1-outside-1_345_783" maskUnits="userSpaceOnUse" x="-0.284546" y="-0.50592" width="79" height="64" fill="black">
<rect fill="white" x="-0.284546" y="-0.50592" width="79" height="64"/>
<path d="M69.2401 26.5406H64.769L69.5484 28.246L70.936 32.4321L68.6234 35.2228L64.769 31.6569L67.2358 36.153L57.8311 47.4708L56.5977 43.5949L55.3643 49.1763L48.2722 54.4476L39.1758 51.8119L39.7925 49.6414L34.088 51.0367L19.2872 45.7654L20.2122 43.4398L17.8996 44.6801L14.1994 38.4786L16.2037 35.998L13.1202 36.4631L7.56984 28.5561L12.3493 27.4708L7.56984 26.6956L9.88248 17.5483L12.3493 19.8739L9.88248 14.9127L11.2701 12.277L14.1994 12.7421L13.4285 10.4166L21.5998 9.02121L30.8504 7.62586L32.8546 9.95144V7.16075L39.7925 11.0367V13.3623L41.4885 12.7421L45.3429 15.5328L46.1137 25.7654L43.3386 26.6956L46.7304 27.9359V33.2073L44.4178 32.4321L44.1095 33.9825L37.1716 38.4786L35.4756 36.4631L35.0131 38.4786L29.9253 36.308L28.3835 34.2925L29.617 32.4321L26.8418 32.8972L25.4542 29.7964L27.921 27.9359L24.8375 28.5561L23.4499 24.215L28.3835 25.1452L24.375 23.4398L31.4671 16.6181L25.9167 20.339L23.9125 18.9437L24.375 22.1995L20.5206 24.215L22.3707 25.7654L19.2872 27.9359L22.8332 27.4708L25.9167 34.2925L23.4499 36.308L26.8418 35.8429L28.5377 39.0987L29.1544 37.3933L33.6255 39.4088L33.4713 42.0445L35.0131 39.7189H36.8632L39.7925 41.7344L38.405 39.0987L43.0302 36.4631L46.2679 37.3933L44.4178 35.2228L47.8097 34.2925V18.9437L52.4349 19.2538L47.8097 16.308L47.6555 10.8817L45.6512 13.3623L38.5591 8.71113L41.7968 7.16075L37.1716 7.93594L33.9339 4.9902L34.5506 0.49408L31.4671 5.92044L26.5334 3.74989L28.6919 6.38555L11.8868 9.33129L12.3493 4.9902L8.80325 9.64137L3.71545 10.7266L8.18655 12.277L6.64479 24.215L5.41139 27.0057L3.86963 26.3856L6.64479 30.1065L10.8075 36.9282L9.26578 40.029L12.3493 38.4786L16.6662 47.4708L18.208 52.5871L18.9788 47.9359L44.7262 56.153L43.6469 60.4941L46.8846 56.9282L49.814 60.029L49.6598 57.0832L57.5227 50.2615L59.8354 52.277L58.7561 49.1763L70.936 35.5328L74.1737 37.5483L72.3236 34.4476L75.7155 30.7266H72.6319L68.6234 20.6491L71.5527 17.5483L68.0067 18.9437L63.3814 9.64137L64.769 14.4476L61.0688 13.0522L64.9232 15.998L69.2401 26.5406Z"/>
</mask>
<path d="M69.2401 26.5406H64.769L69.5484 28.246L70.936 32.4321L68.6234 35.2228L64.769 31.6569L67.2358 36.153L57.8311 47.4708L56.5977 43.5949L55.3643 49.1763L48.2722 54.4476L39.1758 51.8119L39.7925 49.6414L34.088 51.0367L19.2872 45.7654L20.2122 43.4398L17.8996 44.6801L14.1994 38.4786L16.2037 35.998L13.1202 36.4631L7.56984 28.5561L12.3493 27.4708L7.56984 26.6956L9.88248 17.5483L12.3493 19.8739L9.88248 14.9127L11.2701 12.277L14.1994 12.7421L13.4285 10.4166L21.5998 9.02121L30.8504 7.62586L32.8546 9.95144V7.16075L39.7925 11.0367V13.3623L41.4885 12.7421L45.3429 15.5328L46.1137 25.7654L43.3386 26.6956L46.7304 27.9359V33.2073L44.4178 32.4321L44.1095 33.9825L37.1716 38.4786L35.4756 36.4631L35.0131 38.4786L29.9253 36.308L28.3835 34.2925L29.617 32.4321L26.8418 32.8972L25.4542 29.7964L27.921 27.9359L24.8375 28.5561L23.4499 24.215L28.3835 25.1452L24.375 23.4398L31.4671 16.6181L25.9167 20.339L23.9125 18.9437L24.375 22.1995L20.5206 24.215L22.3707 25.7654L19.2872 27.9359L22.8332 27.4708L25.9167 34.2925L23.4499 36.308L26.8418 35.8429L28.5377 39.0987L29.1544 37.3933L33.6255 39.4088L33.4713 42.0445L35.0131 39.7189H36.8632L39.7925 41.7344L38.405 39.0987L43.0302 36.4631L46.2679 37.3933L44.4178 35.2228L47.8097 34.2925V18.9437L52.4349 19.2538L47.8097 16.308L47.6555 10.8817L45.6512 13.3623L38.5591 8.71113L41.7968 7.16075L37.1716 7.93594L33.9339 4.9902L34.5506 0.49408L31.4671 5.92044L26.5334 3.74989L28.6919 6.38555L11.8868 9.33129L12.3493 4.9902L8.80325 9.64137L3.71545 10.7266L8.18655 12.277L6.64479 24.215L5.41139 27.0057L3.86963 26.3856L6.64479 30.1065L10.8075 36.9282L9.26578 40.029L12.3493 38.4786L16.6662 47.4708L18.208 52.5871L18.9788 47.9359L44.7262 56.153L43.6469 60.4941L46.8846 56.9282L49.814 60.029L49.6598 57.0832L57.5227 50.2615L59.8354 52.277L58.7561 49.1763L70.936 35.5328L74.1737 37.5483L72.3236 34.4476L75.7155 30.7266H72.6319L68.6234 20.6491L71.5527 17.5483L68.0067 18.9437L63.3814 9.64137L64.769 14.4476L61.0688 13.0522L64.9232 15.998L69.2401 26.5406Z" fill="#A0B6B8"/>
<path d="M69.2401 26.5406H64.769L69.5484 28.246L70.936 32.4321L68.6234 35.2228L64.769 31.6569L67.2358 36.153L57.8311 47.4708L56.5977 43.5949L55.3643 49.1763L48.2722 54.4476L39.1758 51.8119L39.7925 49.6414L34.088 51.0367L19.2872 45.7654L20.2122 43.4398L17.8996 44.6801L14.1994 38.4786L16.2037 35.998L13.1202 36.4631L7.56984 28.5561L12.3493 27.4708L7.56984 26.6956L9.88248 17.5483L12.3493 19.8739L9.88248 14.9127L11.2701 12.277L14.1994 12.7421L13.4285 10.4166L21.5998 9.02121L30.8504 7.62586L32.8546 9.95144V7.16075L39.7925 11.0367V13.3623L41.4885 12.7421L45.3429 15.5328L46.1137 25.7654L43.3386 26.6956L46.7304 27.9359V33.2073L44.4178 32.4321L44.1095 33.9825L37.1716 38.4786L35.4756 36.4631L35.0131 38.4786L29.9253 36.308L28.3835 34.2925L29.617 32.4321L26.8418 32.8972L25.4542 29.7964L27.921 27.9359L24.8375 28.5561L23.4499 24.215L28.3835 25.1452L24.375 23.4398L31.4671 16.6181L25.9167 20.339L23.9125 18.9437L24.375 22.1995L20.5206 24.215L22.3707 25.7654L19.2872 27.9359L22.8332 27.4708L25.9167 34.2925L23.4499 36.308L26.8418 35.8429L28.5377 39.0987L29.1544 37.3933L33.6255 39.4088L33.4713 42.0445L35.0131 39.7189H36.8632L39.7925 41.7344L38.405 39.0987L43.0302 36.4631L46.2679 37.3933L44.4178 35.2228L47.8097 34.2925V18.9437L52.4349 19.2538L47.8097 16.308L47.6555 10.8817L45.6512 13.3623L38.5591 8.71113L41.7968 7.16075L37.1716 7.93594L33.9339 4.9902L34.5506 0.49408L31.4671 5.92044L26.5334 3.74989L28.6919 6.38555L11.8868 9.33129L12.3493 4.9902L8.80325 9.64137L3.71545 10.7266L8.18655 12.277L6.64479 24.215L5.41139 27.0057L3.86963 26.3856L6.64479 30.1065L10.8075 36.9282L9.26578 40.029L12.3493 38.4786L16.6662 47.4708L18.208 52.5871L18.9788 47.9359L44.7262 56.153L43.6469 60.4941L46.8846 56.9282L49.814 60.029L49.6598 57.0832L57.5227 50.2615L59.8354 52.277L58.7561 49.1763L70.936 35.5328L74.1737 37.5483L72.3236 34.4476L75.7155 30.7266H72.6319L68.6234 20.6491L71.5527 17.5483L68.0067 18.9437L63.3814 9.64137L64.769 14.4476L61.0688 13.0522L64.9232 15.998L69.2401 26.5406Z" stroke="#6D8E92" stroke-width="2" mask="url(#path-1-outside-1_345_783)"/>
</svg>
