<svg width="69" height="60" viewBox="0 0 69 60" fill="none" xmlns="http://www.w3.org/2000/svg">
<path d="M51.8933 17.1405L38.4284 13.7888L35.7687 12.6157L36.5998 9.26409L34.9375 6.08002L29.2856 5.07453L24.7972 3.06354L21.1401 0.549805L16.3193 2.05805L12.9946 5.07453L7.3427 6.08002L5.01542 10.6047L1.01672 12.0498L0.516724 19.4866L6.34529 24.0113L9.66997 26.6927H14.9895L19.4778 24.0113L22.1375 26.0223L26.4596 26.6927L28.7869 23.8438L32.6102 23.341L34.9375 20.1569L34.4388 17.4756L37.5972 16.6377L51.8933 17.1405Z" fill="#01E101"/>
<path d="M47.0726 39.2613L44.4128 56.7119L55.7167 57.5498L67.0167 56.7119L64.3609 25.1843L61.8674 23.8437H50.5635L47.0726 24.8492V39.2613Z" fill="#FF0000"/>
<path d="M50.3972 22.503H62.3661L61.8674 21.4975L59.2076 20.8272H52.7245H52.392L50.3972 22.503Z" fill="#FF0000"/>
<path d="M50.3972 22.503L47.0726 24.0113V24.8492L50.5635 23.8437H61.8674L64.3609 25.1843L65.0167 23.341L62.3661 22.503H50.3972Z" fill="#A0B6B8"/>
<path d="M68.018 58.3877L67.0167 56.7119L55.7167 57.5498L44.4128 56.7119H42.7505V57.885L56.7141 59.3932L68.018 58.3877Z" fill="#A0B6B8"/>
<path fill-rule="evenodd" clip-rule="evenodd" d="M52.7245 20.8272H59.2076L58.5427 14.1239L54.2206 13.4536L53.057 15.7997L52.7245 20.8272ZM54.3869 15.297L53.5557 15.7997L53.2232 17.9783L53.8882 19.4865H55.3843L56.2154 17.6431L55.7167 15.6321L54.3869 15.297Z" fill="#A0B6B8"/>
<path d="M53.5557 15.7997L54.3869 15.297L55.7167 15.6321L56.2154 17.6431L55.3843 19.4865H53.8882L53.2232 17.9783L53.5557 15.7997Z" fill="#1E1E1E"/>
<path d="M44.4128 56.7119L47.0726 39.2613V24.8492M44.4128 56.7119H42.7505V57.885L56.7141 59.3932L68.018 58.3877L67.0167 56.7119M44.4128 56.7119L55.7167 57.5498L67.0167 56.7119M50.3972 22.503L47.0726 24.0113V24.8492M50.3972 22.503H62.3661M50.3972 22.503L52.392 20.8272H52.7245M62.3661 22.503L65.0167 23.341L64.3609 25.1843M62.3661 22.503L61.8674 21.4975L59.2076 20.8272M64.3609 25.1843L67.0167 56.7119M64.3609 25.1843L61.8674 23.8437H50.5635L47.0726 24.8492M59.2076 20.8272H52.7245M59.2076 20.8272L58.5427 14.1239L54.2206 13.4536L53.057 15.7997L52.7245 20.8272M53.5557 15.7997L54.3869 15.297L55.7167 15.6321L56.2154 17.6431L55.3843 19.4865H53.8882L53.2232 17.9783L53.5557 15.7997ZM51.8933 17.1405L38.4284 13.7888L35.7687 12.6157L36.5998 9.26409L34.9375 6.08002L29.2856 5.07453L24.7972 3.06354L21.1401 0.549805L16.3193 2.05805L12.9946 5.07453L7.3427 6.08002L5.01542 10.6047L1.01672 12.0498L0.516724 19.4866L6.34529 24.0113L9.66997 26.6927H14.9895L19.4778 24.0113L22.1375 26.0223L26.4596 26.6927L28.7869 23.8438L32.6102 23.341L34.9375 20.1569L34.4388 17.4756L37.5972 16.6377L51.8933 17.1405Z" stroke="black"/>
</svg>
