<svg width="23" height="42" viewBox="0 0 23 42" fill="none" xmlns="http://www.w3.org/2000/svg">
<path d="M0.527603 5L3.0276 38.5L18.5276 41L22.0276 5L11.5276 8L0.527603 5Z" fill="#0BC2D6"/>
<path fill-rule="evenodd" clip-rule="evenodd" d="M7.5276 4.5L11.0276 6L15.0276 5L15.3609 3L15.5276 2L13.5276 0.5L11.0276 0.5L7.0276 2L7.5276 4.5Z" fill="#A0B6B8"/>
<path d="M0.527603 5L11.5276 8L22.0276 5L17.5276 3H15.3609L15.0276 5L11.0276 6L7.5276 4.5L6.5276 3L0.527603 5Z" fill="#6D8E92"/>
<path d="M0.527603 5L3.0276 38.5L18.5276 41L22.0276 5M0.527603 5L11.5276 8L22.0276 5M0.527603 5L6.5276 3L7.5276 4.5M22.0276 5L17.5276 3H15.3609M15.5276 2H7.0276M15.5276 2L15.3609 3M15.5276 2L13.5276 0.5L11.0276 0.5L7.0276 2M7.0276 2L7.5276 4.5M7.5276 4.5L11.0276 6L15.0276 5L15.3609 3" stroke="#414042"/>
</svg>
