<svg width="75" height="41" viewBox="0 0 75 41" fill="none" xmlns="http://www.w3.org/2000/svg">
<path fill-rule="evenodd" clip-rule="evenodd" d="M0 23.0366L36.8952 16.3351L74 0L39.4108 1.88482L0 23.0366ZM39.4108 5.02618L16.5609 16.9634L34.5027 13.6126L60.1643 3.14136L39.4108 5.02618Z" fill="white"/>
<path d="M74 0L36.8952 16.3351L35.9804 24.5026L72.1133 5.02618L74 0Z" fill="#6D8E92"/>
<path d="M36.8952 16.3351L0 23.0366L1.00369 28.6911L35.9804 24.5026L36.8952 16.3351Z" fill="#6D8E92"/>
<path d="M34.5027 30.5759L35.9804 24.5026L1.00369 28.6911L0 35.1832L34.5027 30.5759Z" fill="#6D8E92"/>
<path d="M72.1133 5.02618L35.9804 24.5026L34.5027 30.5759L72.1133 10.6806V5.02618Z" fill="#6D8E92"/>
<path d="M34.5027 36.8586L70.2266 16.3351L72.1133 10.6806L34.5027 30.5759V36.8586Z" fill="#6D8E92"/>
<path d="M1.00369 40L34.5027 36.8586V30.5759L0 35.1832L1.00369 40Z" fill="#6D8E92"/>
<path d="M16.5609 16.9634L39.4108 5.02618L60.1643 3.14136L34.5027 13.6126L16.5609 16.9634Z" fill="#0BC2D6"/>
<path d="M0 23.0366L36.8952 16.3351M0 23.0366L39.4108 1.88482L74 0M0 23.0366L1.00369 28.6911M34.5027 36.8586L1.00369 40L0 35.1832M34.5027 36.8586L70.2266 16.3351L72.1133 10.6806M34.5027 36.8586V30.5759M36.8952 16.3351L74 0M36.8952 16.3351L35.9804 24.5026M74 0L72.1133 5.02618M35.9804 24.5026L72.1133 5.02618M35.9804 24.5026L34.5027 30.5759M35.9804 24.5026L1.00369 28.6911M72.1133 5.02618V10.6806M72.1133 10.6806L34.5027 30.5759M34.5027 30.5759L0 35.1832M0 35.1832L1.00369 28.6911M16.5609 16.9634L39.4108 5.02618L60.1643 3.14136L34.5027 13.6126L16.5609 16.9634Z" stroke="black"/>
</svg>
