<svg width="38" height="22" viewBox="0 0 38 22" fill="none" xmlns="http://www.w3.org/2000/svg">
<path d="M15.0574 20.5033L0.5 14.4427V8.98815L7.17213 5.95785V1.71542L13.2377 0.503304L31.4344 1.71542L31.9031 6.39797L35.6803 8.38209L37.5 10.8063V15.6548L15.0574 20.5033Z" fill="#F9C435"/>
<path d="M37.5 10.8063V15.6548L15.0574 20.5033L0.5 14.4427V8.98815M37.5 10.8063L13.8443 14.4427L0.5 8.98815M37.5 10.8063L35.6803 8.38209L31.9031 6.39798M0.5 8.98815L7.17213 5.95785M7.17213 5.95785L13.2377 10.8063M7.17213 5.95785V1.71542M13.2377 5.95785V10.8063M13.2377 5.95785L26.582 7.77603M13.2377 5.95785L7.17213 1.71542M13.2377 10.8063L26.582 11.4124M26.582 11.4124V7.77603M26.582 11.4124L32.041 7.77603L31.9031 6.39798M26.582 7.77603L31.4344 1.71542M7.17213 1.71542L13.2377 0.503304L31.4344 1.71542M31.4344 1.71542L31.9031 6.39798" stroke="#D0A632"/>
</svg>
