<svg width="300" height="300" viewBox="0 0 300 300" fill="none" xmlns="http://www.w3.org/2000/svg">
<g clip-path="url(#clip0_557_898)">
<path d="M6 5V105L21 70L36 35L71 20L106 5H6Z" fill="#D9D9D9"/>
<path d="M36 35L21 70L66 65L71 20L36 35Z" fill="#D9D9D9"/>
<path d="M21 70L6 105V5H106L71 20M21 70L36 35L71 20M21 70L66 65L71 20" stroke="#6D8E92" stroke-width="5"/>
<path d="M17 67L2 102V2H102L67 17M17 67L32 32L67 17M17 67L62 62L67 17" stroke="#272727" stroke-width="5"/>
<path d="M6 295V195L21 230L36 265L71 280L106 295H6Z" fill="#D9D9D9"/>
<path d="M36 265L21 230L66 235L71 280L36 265Z" fill="#D9D9D9"/>
<path d="M21 230L6 195V295H106L71 280M21 230L36 265L71 280M21 230L66 235L71 280" stroke="#6D8E92" stroke-width="5"/>
<path d="M17 233L2 198V298H102L67 283M17 233L32 268L67 283M17 233L62 238L67 283" stroke="#272727" stroke-width="5"/>
<path d="M265 36L230 21L235 66L280 71L265 36Z" fill="#D9D9D9"/>
<path d="M295 6L195 6L230 21L265 36L280 71L295 106L295 6Z" fill="#D9D9D9"/>
<path d="M230 21L195 6L295 6L295 106L280 71M230 21L265 36L280 71M230 21L235 66L280 71" stroke="#6D8E92" stroke-width="5"/>
<path d="M233 17L198 2L298 2L298 102L283 67M233 17L268 32L283 67M233 17L238 62L283 67" stroke="#272727" stroke-width="5"/>
<path d="M265 264L230 279L235 234L280 229L265 264Z" fill="#D9D9D9"/>
<path d="M295 294L195 294L230 279L265 264L280 229L295 194L295 294Z" fill="#D9D9D9"/>
<path d="M230 279L195 294L295 294L295 194L280 229M230 279L265 264L280 229M230 279L235 234L280 229" stroke="#6D8E92" stroke-width="5"/>
<path d="M233 283L198 298L298 298L298 198L283 233M233 283L268 268L283 233M233 283L238 238L283 233" stroke="#272727" stroke-width="5"/>
</g>
<defs>
<clipPath id="clip0_557_898">
<rect width="300" height="300" fill="white"/>
</clipPath>
</defs>
</svg>
