<svg width="33" height="298" viewBox="0 0 33 298" fill="none" xmlns="http://www.w3.org/2000/svg">
<path d="M28.0086 289.387L30.4127 285.502L26.5115 281.968L20.5128 281.528L15.8514 284.436C15.357 290.597 16.0339 293.751 16.4342 294.558L20.6713 296.535L27.4753 296.033L28.0086 289.387Z" fill="url(#paint0_linear_524_1155)"/>
<path d="M28.0086 289.387L30.4127 285.502L26.5115 281.968L20.5128 281.528L15.8514 284.436M28.0086 289.387L21.1763 290.241M28.0086 289.387L27.4753 296.033M21.1763 290.241L16.5434 288.547M21.1763 290.241L20.6713 296.535M16.5434 288.547L15.8514 284.436M16.5434 288.547L16.4342 294.558M15.8514 284.436C15.357 290.597 16.0339 293.751 16.4342 294.558M16.4342 294.558L20.6713 296.535M20.6713 296.535L27.4753 296.033M27.4753 296.033L30.5678 292.261L30.7896 285.397" stroke="black" stroke-width="1.35084"/>
<path d="M0.766308 51.2934C-0.369511 31.3415 5.6343 0.12793 5.6343 0.12793H14.3271C14.3271 0.12793 10.6682 19.0738 9.80687 31.3588C8.13264 55.2386 11.4323 68.7186 14.3271 92.4916C17.9754 122.452 28.0996 143.804 30.322 173.891C31.8516 194.6 32.0605 203.632 32.0605 224.392C32.0605 247.877 30.6696 270.574 27.5402 284.196C26.94 286.809 24.5816 286.992 23.02 287.186C21.4584 287.381 18.4189 286.284 18.8474 284.196C22.3245 267.252 23.02 247.877 23.02 224.392C23.02 204.93 23.4088 193.305 21.9768 173.891C19.7747 144.036 9.72277 126.152 5.6343 96.4785C3.21108 78.8911 1.77467 69.0064 0.766308 51.2934Z" fill="#5B5B5B"/>
<path d="M4.97104 0.000354156C5.41321 0.0854045 5.85539 0.170455 6.29756 0.255505C4.5059 9.92213 3.07397 19.7678 2.12844 29.5805C1.45866 36.7944 1.00716 44.0615 1.38216 51.2584C2.1251 66.3941 4.10005 81.3777 6.19416 96.4014C9.43905 122.593 20.9708 147.174 22.4506 173.856C23.7874 190.687 23.4763 207.553 23.4375 224.392C23.3452 244.389 23.1763 264.559 19.1895 284.266C18.8467 285.967 21.3368 286.986 22.9776 286.846C24.8954 286.717 26.8884 286.043 27.2128 284.121C31.2726 264.555 31.6264 244.372 31.7929 224.392C31.8979 207.53 31.4423 190.718 30.1124 173.907C28.3918 146.156 17.3195 120.114 14.2123 92.5056C11.7266 72.2144 7.88836 51.873 9.76119 31.3556C10.0152 27.8452 10.432 24.3397 10.9023 20.8472C11.849 13.9111 13.0161 6.98573 14.3174 0.126055L14.3271 0.137816C11.4295 0.13452 8.53191 0.131225 5.6343 0.12793C8.53191 0.124634 11.4295 0.121339 14.3271 0.118044L14.3391 0.118057L14.3368 0.129804C13.0513 6.99186 11.8999 13.9197 10.9693 20.8562C10.507 24.3488 10.0983 27.8542 9.85254 31.362C8.02782 51.8745 11.9082 72.1776 14.442 92.4776C17.6038 120.037 28.7375 146.045 30.5315 173.876C31.9 190.686 32.395 207.531 32.3282 224.392C32.2046 244.399 31.9071 264.567 27.8676 284.271C27.6584 285.294 26.9811 286.301 26.0181 286.789C25.0698 287.296 24.0231 287.408 23.0623 287.526C21.9742 287.629 20.9601 287.355 20.0337 286.858C19.1367 286.398 18.2157 285.314 18.5053 284.126C22.4286 264.509 22.5566 244.375 22.6024 224.392C22.603 207.534 22.875 190.715 21.5031 173.926C19.9871 147.447 8.42132 122.949 5.07444 96.5556C2.94794 81.5511 0.929106 66.4978 0.150452 51.3285C-0.246178 44.0212 0.194607 36.7147 0.850742 29.4608C1.7794 19.5929 3.19012 9.73359 4.97104 0.000354156ZM6.29756 0.255505L4.97104 0.000354156L4.9465 0.127147L5.6343 0.12793L6.29756 0.255505Z" fill="black"/>
<path d="M12.5978 110.679C12.4229 110.53 12.4866 110.286 12.5565 110.062C12.5945 109.831 12.6114 109.586 12.4676 109.371C12.1456 108.9 11.7953 108.987 11.5821 108.405C11.3652 107.825 10.8667 107.416 10.8722 107.115C10.8781 106.816 10.4768 106.993 10.3964 106.617C10.3204 106.249 10.182 106.078 9.93464 105.844L9.94034 105.859C9.93634 105.854 9.9323 105.85 9.92821 105.846C9.67606 105.58 9.18648 104.676 9.22775 104.272C9.23879 104.159 9.21419 104.056 9.17192 103.963C9.06288 103.724 8.83548 103.532 8.76988 103.368C8.741 103.299 8.7102 103.24 8.67824 103.193C8.66472 103.173 8.63655 103.163 8.60872 103.163C8.60871 103.163 8.60869 103.163 8.60867 103.163C8.57403 103.163 8.53992 103.178 8.53564 103.204C8.51226 103.331 8.47407 103.542 8.41519 103.806C8.37166 103.998 8.3918 104.111 8.43177 104.211C8.49535 104.366 8.61043 104.488 8.66447 104.839C8.74596 105.365 8.67443 105.751 8.95219 106.234C8.95414 106.238 8.95797 106.25 8.96005 106.254C8.98755 106.299 9.01828 106.346 9.05257 106.392C9.47329 106.95 8.96768 107.392 9.74016 108.059C10.5069 108.709 9.96715 109.12 10.2765 109.948C10.3822 110.238 10.5406 110.525 10.7002 110.803C11.0788 111.516 11.5871 111.98 11.767 112.302C11.9786 112.672 12.2229 113.115 12.4326 113.525C12.489 113.634 12.5807 113.831 12.6712 114C13.0367 114.691 13.1559 115.691 13.5978 116.46C14.0407 117.23 14.6323 118.336 14.9409 118.836C15.2501 119.336 15.3226 119.459 15.4121 120.009C15.4629 120.325 15.6356 120.726 15.9083 121.029C16.0445 121.179 16.1517 121.108 16.1545 120.91C16.1584 120.622 16.0366 120.424 16.1406 120.242C16.3492 119.881 16.4234 119.726 16.1441 119.442C15.8642 119.157 16.1971 118.871 16.0869 118.687C15.9765 118.505 15.7531 118.582 15.5873 117.521C15.4192 116.46 15.2683 115.896 15.1756 115.502C15.0823 115.108 14.6044 114.392 14.44 113.746C14.3702 113.484 14.2658 113.167 14.0798 112.742C13.7891 112.117 13.4244 111.6 13.3193 111.294C13.1438 110.795 12.9224 110.95 12.5978 110.679Z" fill="#A4A4A4"/>
<path d="M8.47878 88.6717C8.12835 88.3569 8.52619 87.7243 8.18633 87.3094C8.14638 87.2606 8.10612 87.2183 8.06653 87.1821L8.09055 87.2281C7.80393 86.9334 7.5089 86.9368 7.34203 86.4206C7.15507 85.839 6.6927 85.3754 6.71855 85.0676C6.74554 84.7619 6.33105 84.9024 6.27246 84.5068C6.21478 84.1113 6.07452 83.9141 5.81707 83.6492C5.55824 83.3843 5.06776 82.4463 5.09703 82.0263C5.09977 81.9844 5.09785 81.9435 5.09197 81.9034L5.1003 81.9281C5.07598 81.5807 4.75321 81.3084 4.67736 81.0859C4.65033 81.0112 4.61975 80.9488 4.58783 80.8996C4.57433 80.8789 4.54615 80.8691 4.51832 80.8691C4.5183 80.8691 4.51829 80.8691 4.51827 80.8691C4.48363 80.8692 4.44953 80.8841 4.44522 80.9112C4.42292 81.042 4.37619 81.2513 4.30413 81.519C4.21906 81.8401 4.30806 81.949 4.3908 82.1414C4.39267 82.1457 4.39625 82.1596 4.39841 82.1639C4.45296 82.2687 4.50528 82.3917 4.54047 82.6064C4.63424 83.1913 4.53648 83.6087 4.93471 84.1903C5.33468 84.7682 4.78904 85.1668 5.51534 85.9225C6.24634 86.6675 5.67223 87.0448 6.01872 87.9668C6.04822 88.0446 6.08134 88.1218 6.11748 88.1987C6.12334 88.2079 6.13635 88.238 6.14264 88.2469C6.58727 89.0777 7.38103 89.8196 7.59963 90.2915C7.84192 90.8047 8.11433 91.5018 8.49886 92.1816C8.50505 92.1926 8.51118 92.2036 8.51724 92.2147C8.92383 93.0194 9.34476 94.0193 9.81522 94.6322C9.9252 94.7776 10.0355 94.9375 10.1374 95.1109C10.5297 95.8265 10.9769 96.5939 11.2424 96.9863C11.5848 97.4906 11.6667 97.6131 11.805 98.1738C11.8847 98.4955 12.1011 98.898 12.4124 99.1797C12.5692 99.3218 12.6645 99.2325 12.6431 99.0327C12.6118 98.7404 12.4697 98.5492 12.5558 98.3565C12.7284 97.9717 12.7913 97.8155 12.4895 97.5454C12.1876 97.2739 12.5021 96.9642 12.3815 96.7849C12.2626 96.605 12.0338 96.6949 11.8289 95.621C11.7519 95.2092 11.6842 94.8705 11.6267 94.5909C11.5034 94.0603 11.3523 93.7208 11.2474 93.4649C11.0706 93.0347 10.4406 92.4268 10.2557 91.8466C10.2251 91.7536 10.1861 91.6473 10.1441 91.5316C9.88478 90.8175 9.36559 89.8762 9.22846 89.4132C9.06573 88.8585 8.82924 88.9882 8.47878 88.6717Z" fill="#A4A4A4"/>
<path d="M5.15704 48.4738C4.9117 48.1788 5.46765 47.7243 5.25409 47.3339C5.03937 46.942 4.68602 46.9808 4.61108 46.4758C4.59362 46.3606 4.55968 46.2499 4.51828 46.1451L4.53669 46.2113C4.4261 45.8339 4.22156 45.5351 4.28379 45.3388C4.36379 45.0846 3.93674 45.1779 3.94687 44.8511C3.95748 44.525 3.85465 44.3627 3.65195 44.1372C3.44401 43.9153 3.15702 43.121 3.2963 42.7997C3.315 42.7548 3.32432 42.7105 3.32633 42.6665C3.32641 42.6593 3.32081 42.6385 3.32025 42.6314C3.29367 42.2849 2.92025 42.0819 2.77678 41.9673C2.72284 41.9213 2.66936 41.8938 2.62144 41.8771C2.60113 41.8701 2.57314 41.8785 2.54957 41.8933C2.54956 41.8933 2.54954 41.8933 2.54953 41.8934C2.52019 41.9118 2.49772 41.9401 2.50541 41.9605C2.54157 42.0588 2.58126 42.2251 2.53748 42.4257C2.48488 42.6398 2.52907 42.6873 2.58128 42.794L2.57575 42.7621C2.60687 42.8606 2.63769 42.9785 2.62038 43.1821C2.58091 43.6712 2.40932 44.0181 2.69828 44.5253C2.98792 45.0228 2.40276 45.3227 2.9548 45.9534C3.15301 46.1813 3.19274 46.3605 3.16617 46.5269C3.17032 46.5377 3.17656 46.5722 3.18166 46.5826C3.16261 46.8861 2.93846 47.1687 3.0223 47.6475C3.1519 48.3978 3.79043 49.2354 3.90499 49.6924C3.96821 49.9498 4.03481 50.2608 4.13879 50.5924C4.21916 50.849 4.32049 51.1163 4.45623 51.3775C4.76451 51.9713 4.83806 52.8169 5.2522 53.4418C5.66438 54.066 6.23865 54.9463 6.54781 55.3318C6.85676 55.7184 6.92941 55.8111 7.03563 56.2643C7.09682 56.5243 7.28592 56.8392 7.57296 57.0434C7.71709 57.1453 7.81393 57.0622 7.80332 56.8984C7.78787 56.6584 7.66065 56.5143 7.75364 56.3454C7.9411 56.0109 8.01002 55.8753 7.73123 55.6801C7.45226 55.4834 7.77264 55.1982 7.66421 55.0608C7.5566 54.923 7.33298 55.0182 7.17889 54.1493C7.02741 53.2807 6.90331 52.8237 6.82745 52.5034C6.75198 52.1839 6.31694 51.6195 6.20634 51.0945C6.14637 50.8115 5.99447 50.3921 5.86898 49.9976C5.76256 49.6636 5.67578 49.3418 5.66991 49.1359C5.65797 48.6888 5.40263 48.7675 5.15704 48.4738Z" fill="#A4A4A4"/>
<path d="M6.46343 33.1828C6.24355 32.9765 6.81142 32.578 6.61705 32.2948C6.42289 32.0162 6.07607 32.0888 6.02657 31.7208C5.97572 31.3531 5.63209 31.1101 5.72118 30.9201C5.75777 30.842 5.70841 30.8183 5.63899 30.799L5.66061 30.8833C5.56626 30.8429 5.43018 30.8076 5.46568 30.6761C5.52769 30.4543 5.45815 30.3466 5.30086 30.1722C5.26628 30.1337 5.2315 30.0758 5.20095 30.0053C5.09224 29.7574 5.04281 29.3508 5.17725 29.1795C5.34939 28.9599 5.04716 28.71 4.97546 28.5582C4.95313 28.511 4.92258 28.4739 4.8908 28.4454C4.87732 28.4333 4.84913 28.4277 4.82131 28.4277C4.82129 28.4277 4.82127 28.4277 4.82125 28.4277C4.78661 28.4277 4.75254 28.4364 4.74816 28.4519C4.72692 28.5272 4.67082 28.6396 4.5454 28.773C4.3119 29.0226 4.57001 29.0481 4.45399 29.3876C4.37042 29.6361 4.22322 29.8179 4.22141 30.0634C4.22099 30.155 4.24117 30.2545 4.29437 30.3659C4.44454 30.6709 4.12321 30.8648 4.1695 31.1674C4.17722 31.1868 4.18507 31.2492 4.19514 31.2674C4.22186 31.3601 4.28638 31.4581 4.41493 31.5589C4.95307 31.9708 4.33917 32.2564 4.43077 32.7893C4.52104 33.3149 5.07352 33.844 5.13241 34.1694C5.18527 34.4561 5.21985 34.8348 5.36794 35.2193C5.38618 35.2663 5.40636 35.3141 5.42872 35.3623C5.62942 35.7922 5.54266 36.4076 5.81347 36.8751C6.08538 37.3433 6.43769 38.0172 6.63793 38.3225C6.83826 38.6269 6.88522 38.7054 6.86342 39.0391C6.85074 39.2328 6.93949 39.474 7.1422 39.6626C7.24364 39.7585 7.36343 39.7232 7.40602 39.6002C7.46783 39.4233 7.38794 39.2986 7.52471 39.188C7.79761 38.9674 7.89979 38.8714 7.68408 38.6933C7.4683 38.5166 7.84636 38.3387 7.77584 38.2251C7.70444 38.1107 7.47301 38.1618 7.52143 37.5045C7.56846 36.8474 7.53565 36.4974 7.52519 36.2537C7.51447 36.0092 7.1977 35.5696 7.17639 35.1712C7.17081 35.0622 7.14625 34.9231 7.1148 34.7755C7.03134 34.3821 6.89277 33.9171 6.91283 33.6648C6.94052 33.3162 6.68269 33.3906 6.46343 33.1828Z" fill="#A4A4A4"/>
<path d="M25.9599 273.682C25.8378 273.39 26.2737 273.159 26.3743 272.841L26.3727 272.893C26.3964 272.829 26.4062 272.762 26.3943 272.692C26.326 272.27 25.9793 272.182 26.0942 271.712C26.2093 271.244 26.0203 270.746 26.1886 270.554C26.3568 270.362 25.926 270.286 26.0629 269.999C26.2004 269.714 26.1728 269.525 26.0734 269.236C26.0362 269.128 26.0141 268.942 26.0091 268.736C26.01 268.733 26.0102 268.723 26.0109 268.72C25.9817 268.371 25.9978 267.987 26.1308 267.823C26.3349 267.569 26.1058 267.216 26.1036 266.997C26.1016 266.931 26.0895 266.875 26.0732 266.828C26.0663 266.809 26.0427 266.791 26.0167 266.781C26.0167 266.781 26.0167 266.781 26.0167 266.781C25.9844 266.769 25.9482 266.768 25.9365 266.787C25.8798 266.878 25.7768 267.006 25.6091 267.165C25.3015 267.471 25.5466 267.562 25.3814 268.019C25.2954 268.266 25.1869 268.457 25.1172 268.647L25.1208 268.615C25.0512 268.781 25.0109 268.963 25.0443 269.219C25.1189 269.772 24.4479 269.816 24.7273 270.635C25.0165 271.439 24.3338 271.458 24.1906 272.223C24.1587 272.399 24.1515 272.581 24.1585 272.772C24.1594 272.782 24.1555 272.814 24.1569 272.824C24.2113 273.449 24.4253 274.101 24.3989 274.449C24.3647 274.904 24.2815 275.516 24.3678 276.16C24.454 276.804 24.223 277.602 24.3804 278.312C24.5376 279.027 24.7369 280.028 24.8714 280.497C25.0059 280.962 25.0363 281.076 24.9525 281.522C24.9044 281.779 24.9489 282.131 25.1241 282.433C25.2123 282.584 25.3351 282.551 25.394 282.397C25.48 282.178 25.4228 281.995 25.5765 281.881C25.8837 281.651 26.0016 281.558 25.8235 281.269C25.6455 280.979 26.0517 280.848 26.0054 280.677C25.9592 280.511 25.7196 280.511 25.9067 279.66C26.0941 278.804 26.1433 278.342 26.189 278.016C26.2347 277.695 26.0302 277.018 26.1081 276.493C26.1858 275.967 26.1237 274.893 26.2494 274.464C26.3751 274.037 26.1072 274.028 25.9599 273.682Z" fill="#A4A4A4"/>
<path d="M27.0324 246.595C26.8271 246.214 27.4386 245.807 27.282 245.333C27.126 244.857 26.7682 244.828 26.779 244.257C26.7891 243.757 26.5596 243.283 26.5843 242.994L26.5859 243.012C26.5903 242.973 26.5995 242.937 26.6146 242.906C26.7403 242.647 26.3028 242.651 26.3774 242.289C26.4531 241.929 26.3861 241.719 26.2319 241.412C26.0753 241.108 25.9335 240.145 26.107 239.793C26.2782 239.442 25.9758 239.043 25.904 238.801C25.8817 238.726 25.8512 238.667 25.8194 238.622C25.8059 238.603 25.7777 238.594 25.7499 238.594C25.7499 238.594 25.7499 238.594 25.7498 238.594C25.7152 238.594 25.6811 238.608 25.6767 238.632C25.6555 238.752 25.5994 238.931 25.4741 239.143C25.241 239.54 25.499 239.582 25.3846 240.118C25.272 240.655 25.038 240.988 25.2197 241.617C25.3913 242.198 24.8497 242.399 25.1194 243.126C25.1202 243.13 25.1203 243.142 25.1212 243.146C25.1437 243.201 25.1711 243.259 25.2043 243.32C25.6672 244.165 25.0016 244.335 25.0223 245.233C25.0441 246.131 25.5758 247.189 25.6247 247.722C25.6723 248.254 25.7043 248.978 25.9115 249.709C26.1177 250.439 26.0442 251.393 26.3155 252.175C26.3251 252.203 26.3347 252.231 26.3444 252.259C26.3484 252.274 26.3531 252.321 26.3584 252.335C26.6959 253.077 27.0824 254.128 27.2984 254.621C27.5239 255.133 27.5736 255.258 27.5838 255.791C27.5932 256.095 27.7035 256.517 28.0038 256.815C28.1727 256.959 28.2371 256.828 28.2406 256.68C28.245 256.435 28.1518 256.241 28.2749 256.083C28.5252 255.77 28.6224 255.643 28.3896 255.347C28.1568 255.047 28.5309 254.822 28.4518 254.636C28.3711 254.449 28.1427 254.495 28.141 253.468C28.1369 252.782 28.0945 252.301 28.0531 251.942L28.0682 252.024C28.0645 251.846 28.058 251.696 28.0542 251.568C28.0425 251.178 27.7141 250.428 27.6911 249.807C27.6678 249.187 27.4067 247.965 27.4553 247.452C27.5031 246.938 27.2382 246.976 27.0324 246.595Z" fill="#A4A4A4"/>
<defs>
<linearGradient id="paint0_linear_524_1155" x1="23.7379" y1="281.765" x2="22.6453" y2="296.679" gradientUnits="userSpaceOnUse">
<stop stop-color="#D9D9D9"/>
<stop offset="1" stop-color="#737373"/>
</linearGradient>
</defs>
</svg>
