<svg width="60" height="275" viewBox="0 0 60 275" fill="none" xmlns="http://www.w3.org/2000/svg">
<path d="M21.4968 263.427L23.002 259.163L18.4201 256.428L12.4611 257.125L8.53698 260.855C9.39355 266.994 10.741 269.961 11.3077 270.678L15.879 271.82L22.4207 270.049L21.4968 263.427Z" fill="url(#paint0_linear_524_1154)"/>
<path d="M21.4968 263.427L23.002 259.163L18.4201 256.428L12.4611 257.125L8.53698 260.855M21.4968 263.427L15.004 265.549M21.4968 263.427L22.4207 270.049M15.004 265.549L10.1074 264.759M15.004 265.549L15.879 271.82M10.1074 264.759L8.53698 260.855M10.1074 264.759L11.3077 270.678M8.53698 260.855C9.39355 266.994 10.741 269.961 11.3077 270.678M11.3077 270.678L15.879 271.82M15.879 271.82L22.4207 270.049M22.4207 270.049L24.6233 265.766L23.3475 258.989" stroke="black" stroke-width="1.35084"/>
<path d="M30.3486 44.8946C31.6373 26.6633 34.7147 0.0864932 34.7147 0.0864932L44.629 1.35604C44.629 1.35604 41.67 33.6498 40.9799 44.8915C39.4009 70.6134 39.3579 70.949 37.0182 89.2202L28.0257 159.446L20.7499 216.265C18.0218 237.57 19.8077 226.004 18.1846 238.679C17.8877 240.998 22.9161 260.209 20.6107 260.202C18.3053 260.194 11.4405 266.451 9.8139 258.819C6.38621 242.738 7.22505 236.187 9.9531 214.883L17.2289 158.064L26.1975 88.0247C28.2595 71.9214 29.2046 61.0801 30.3486 44.8946Z" fill="#635F5F"/>
<path d="M34.0437 0.0088055C34.491 0.0605974 34.9383 0.112389 35.3856 0.164181C34.346 9.17543 33.3786 18.1967 32.4991 27.233C31.9287 33.1304 31.3933 39.0439 30.9667 44.9383C29.9595 59.3573 28.655 73.7593 26.7588 88.0966C23.7384 111.454 20.7234 134.769 17.7033 158.124C15.255 177.058 12.8054 196.001 10.3571 214.935C8.4068 229.521 6.42982 244.345 10.1586 258.746C10.3862 259.804 10.7537 260.849 11.4728 261.543C12.1854 262.253 13.2644 262.38 14.2971 262.172C16.4442 261.796 18.1391 260.313 20.6118 259.866C21.3786 253.775 18.4596 245.929 17.8785 238.64C18.8961 231.168 19.3939 223.725 20.4716 216.23C22.9203 197.293 25.3691 178.356 27.8178 159.42C30.8465 135.998 33.8688 112.626 36.8974 89.2048C39.0275 74.4978 40.0217 59.7359 40.9135 44.8874C41.504 36.0891 42.2948 27.3125 43.0629 18.5235C43.5699 12.7975 44.0892 7.05814 44.6166 1.35491L44.6274 1.36833C41.3232 0.941052 38.0189 0.513773 34.7147 0.0864932C34.7147 0.0864932 34.7147 0.0864932 34.7147 0.0864932C38.02 0.505577 41.3253 0.924662 44.6306 1.34375L44.6424 1.34528L44.6413 1.35717C44.1281 7.06164 43.623 12.8022 43.1302 18.5294C42.3839 27.3198 41.6148 36.0996 41.0464 44.8956C40.1917 59.7417 39.2326 74.5251 37.139 89.2357C34.1684 112.665 31.2041 136.044 28.2335 159.473C25.8317 178.415 23.43 197.358 21.0282 216.301C19.9682 223.806 19.4938 231.208 18.4906 238.718C18.8516 245.83 22.7728 252.921 20.6096 260.538C18.6889 260.876 16.7095 262.423 14.4261 262.848C13.3037 263.088 11.8987 262.953 10.9927 262.048C10.0959 261.175 9.71923 260.016 9.4692 258.893C5.68028 244.439 7.6366 229.374 9.54911 214.831C11.9505 195.891 14.3531 176.943 16.7545 158.003C19.7167 134.64 22.6737 111.318 25.6362 87.9528C27.4945 73.6277 28.7593 59.2677 29.7306 44.8509C30.1437 38.9385 30.6652 33.0163 31.2217 27.1107C32.0798 18.0614 33.025 9.0357 34.0437 0.0088055ZM35.3856 0.164181L34.0437 0.0088055L34.0448 -0.000131502L34.7147 0.0864932L35.3856 0.164181Z" fill="black"/>
<path d="M30.0047 99.5614C29.8873 99.3886 29.8876 99.1961 29.8855 99.0035C29.8789 98.8232 29.8553 98.6329 29.7586 98.4305C29.5411 97.9857 29.4028 97.9607 29.2096 97.4458C29.0077 96.9345 28.7226 96.4629 28.6601 96.2275C28.5932 95.9944 28.4909 96.0063 28.3832 95.6802C28.2763 95.3583 28.192 95.1696 28.0815 94.8952C28.0811 94.8946 28.08 94.8915 28.0789 94.8885C27.9743 94.6028 27.7162 93.713 27.6465 93.3833C27.6258 93.2903 27.6017 93.1936 27.579 93.0984C27.52 92.8569 27.4773 92.6155 27.483 92.4496C27.4843 92.3776 27.4909 92.3213 27.496 92.2782C27.4983 92.2599 27.4993 92.2515 27.4993 92.2515C27.4994 92.2515 27.4976 92.2645 27.4946 92.288C27.4775 92.4014 27.4713 92.5745 27.4939 92.7764C27.509 92.9212 27.525 93.0155 27.542 93.1062C27.5693 93.2504 27.602 93.3833 27.6668 93.6914C27.764 94.149 27.8057 94.4462 27.9245 94.9373C27.9382 94.986 27.9522 95.0332 27.9676 95.0821C28.1639 95.6527 28.0775 95.8356 28.4331 96.6109C28.8109 97.3724 28.6784 97.5268 28.8728 98.3358C28.9408 98.6193 29.0251 98.921 29.1039 99.2151C29.2732 99.8452 29.5897 100.348 29.7131 100.656C29.8582 101.015 30.0373 101.456 30.1681 101.895C30.2035 102.021 30.25 102.203 30.2983 102.368C30.5009 103.05 30.5093 103.962 30.7561 104.719C31.007 105.475 31.3704 106.545 31.5828 107.032C31.794 107.519 31.8502 107.636 31.8627 108.143C31.8694 108.434 31.974 108.815 32.2003 109.115C32.3137 109.263 32.4309 109.208 32.4575 109.03C32.4958 108.77 32.401 108.58 32.5199 108.426C32.7565 108.121 32.8329 107.99 32.5978 107.707C32.3657 107.423 32.6887 107.201 32.6 107.025C32.5112 106.851 32.3165 106.894 32.233 105.93C32.14 104.968 32.0226 104.454 31.9548 104.096C31.8821 103.738 31.5382 103.04 31.413 102.455C31.36 102.223 31.2782 101.924 31.1469 101.561C30.9322 101.009 30.6322 100.523 30.5234 100.252C30.3408 99.8135 30.2252 99.8753 30.0047 99.5614Z" fill="#A4A4A4"/>
<path d="M31.8841 83.068C31.6562 82.7253 31.7643 82.3327 31.5097 81.9118C31.4791 81.8596 31.4497 81.8127 31.4222 81.7712L31.4291 81.7891C31.2472 81.4813 31.1208 81.4022 30.9658 80.9368C30.7846 80.4088 30.5407 79.8962 30.4955 79.6495C30.4465 79.4045 30.3436 79.4044 30.2579 79.0606C30.1703 78.7172 30.0932 78.5145 29.9846 78.2216C29.8718 77.9293 29.6167 77.008 29.5392 76.6688C29.5309 76.6334 29.5219 76.5974 29.5126 76.5609C29.4524 76.25 29.398 75.9128 29.4142 75.6984C29.418 75.6243 29.425 75.5661 29.4303 75.5216C29.4326 75.5028 29.4337 75.4941 29.4337 75.4941C29.4337 75.4941 29.4319 75.5076 29.4288 75.5318C29.4121 75.649 29.398 75.8262 29.4097 76.0361C29.4232 76.2844 29.4412 76.3911 29.4698 76.57C29.4947 76.6757 29.5228 76.7945 29.5633 76.9863C29.6739 77.5002 29.7071 77.8209 29.8703 78.4192C30.0474 79.0135 29.9423 79.1913 30.2392 80.0203C30.5653 80.8392 30.4142 80.9859 30.6187 81.8452C30.6363 81.9156 30.6553 81.9867 30.6754 82.0585C30.677 82.0623 30.6809 82.0737 30.6827 82.0774C30.9479 82.8784 31.4135 83.7219 31.5589 84.1769C31.7175 84.6731 31.8862 85.3462 32.1031 86.0306C32.1066 86.0417 32.1102 86.053 32.1136 86.0643C32.3363 86.8218 32.6149 87.7579 32.9186 88.405C32.9907 88.5574 33.0611 88.723 33.1223 88.8984C33.3517 89.5931 33.6427 90.3378 33.8297 90.7213C34.0712 91.2157 34.136 91.3337 34.1926 91.8565C34.2255 92.1566 34.3706 92.5447 34.6346 92.8275C34.7677 92.9701 34.8755 92.8957 34.8799 92.7125C34.886 92.4445 34.7719 92.2591 34.8754 92.0927C35.0812 91.761 35.1473 91.6289 34.8901 91.3575C34.6366 91.0838 34.9452 90.8395 34.8465 90.6674C34.7496 90.4948 34.5485 90.5487 34.4306 89.5695C34.3848 89.1969 34.3401 88.89 34.301 88.6358C34.2199 88.1566 34.101 87.8487 34.0179 87.6164C33.8772 87.2305 33.3807 86.6137 33.2231 86.068C33.1966 85.9809 33.1637 85.8801 33.1292 85.7696C32.9321 85.1215 32.5346 84.244 32.3996 83.8411C32.2377 83.36 32.1168 83.4093 31.8841 83.068Z" fill="#A4A4A4"/>
<path d="M35.2384 45.9669C35.1082 45.664 35.319 45.3714 35.1818 44.9962C35.0491 44.6198 34.9215 44.5822 34.8421 44.1374C34.823 44.0348 34.7978 43.9331 34.7706 43.8353L34.7737 43.8556C34.7119 43.5186 34.6254 43.225 34.6218 43.0692C34.614 42.8673 34.5133 42.8612 34.4818 42.579C34.4479 42.2973 34.4022 42.1312 34.342 41.8894C34.2735 41.6487 34.1927 40.8904 34.2017 40.6124C34.2017 40.5741 34.2012 40.5347 34.2004 40.4948C34.1739 40.2431 34.0629 40.0047 33.9928 39.8578C33.9672 39.8043 33.9464 39.7625 33.9308 39.7304C33.9241 39.7168 33.9211 39.7104 33.9211 39.7104C33.9211 39.7104 33.9258 39.7202 33.9341 39.7378C33.9739 39.8234 34.0371 39.9508 34.085 40.1104C34.1347 40.2864 34.1449 40.3724 34.1574 40.4968C34.1565 40.5839 34.1566 40.691 34.1551 40.8644C34.1557 41.2859 34.1319 41.5448 34.1983 42.0377C34.2789 42.5269 34.16 42.6626 34.3057 43.3423C34.3616 43.5846 34.3769 43.7523 34.3678 43.899C34.3685 43.9024 34.3695 43.9127 34.3705 43.916C34.3797 44.1813 34.3103 44.3856 34.3323 44.8326C34.3584 45.5296 34.6037 46.3845 34.6539 46.8062C34.6766 47.0422 34.6986 47.3246 34.7402 47.6314C34.7732 47.8738 34.8174 48.1303 34.8852 48.3875C35.0435 48.9654 35.0266 49.7307 35.2638 50.3534C35.5024 50.9745 35.8757 51.8409 36.1016 52.2236C36.3255 52.6077 36.385 52.6977 36.424 53.1195C36.4466 53.3616 36.5763 53.6674 36.8264 53.8768C36.9522 53.9813 37.0605 53.9123 37.071 53.7629C37.0859 53.5441 36.9804 53.4031 37.0874 53.259C37.3013 52.9743 37.3708 52.8616 37.1267 52.6611C36.886 52.4582 37.1974 52.2367 37.1053 52.1044C37.0142 51.9715 36.8173 52.0302 36.7237 51.2443C36.625 50.4609 36.5203 50.0463 36.4598 49.7561C36.395 49.4677 36.0735 48.9103 35.9834 48.4356C35.932 48.1786 35.8133 47.7863 35.7145 47.4195C35.6311 47.1114 35.5625 46.8176 35.5434 46.638C35.5008 46.2455 35.3746 46.2681 35.2384 45.9669Z" fill="#A4A4A4"/>
<path d="M36.1958 34.9947C36.0796 34.7772 36.2971 34.5477 36.1671 34.2787C36.0416 34.0115 35.9147 33.9972 35.8437 33.6798C35.7657 33.3643 35.6095 33.0726 35.6068 32.9276C35.6042 32.8662 35.5837 32.8326 35.5597 32.7977L35.5623 32.8174C35.5363 32.7668 35.5045 32.714 35.5049 32.5985C35.5055 32.3974 35.4854 32.2772 35.4631 32.099C35.4582 32.0591 35.4543 32.001 35.4529 31.9319C35.4465 31.6929 35.4803 31.3282 35.5023 31.1748C35.5277 30.9769 35.5339 30.748 35.5512 30.612C35.5557 30.5696 35.5595 30.5362 35.5626 30.5106C35.5639 30.4998 35.5645 30.4948 35.5645 30.4948C35.5645 30.4948 35.5635 30.5025 35.5616 30.5164C35.5523 30.5838 35.5386 30.6847 35.5168 30.803C35.4731 31.0234 35.4802 31.0488 35.4283 31.3477C35.3896 31.5646 35.3478 31.7174 35.3185 31.923C35.3078 32.0012 35.2996 32.0867 35.2983 32.1861C35.2996 32.4591 35.2346 32.5776 35.2257 32.84C35.2265 32.8448 35.2274 32.859 35.2288 32.8636C35.238 32.9471 35.2567 33.0441 35.2974 33.1609C35.4781 33.6381 35.3107 33.7337 35.3297 34.2352C35.3473 34.7345 35.5519 35.3243 35.566 35.6249C35.5741 35.8929 35.5567 36.2421 35.6002 36.6125C35.6056 36.6573 35.6122 36.703 35.62 36.7494C35.6972 37.1663 35.5589 37.7101 35.6801 38.1675C35.8055 38.6253 35.9956 39.2735 36.1296 39.5703C36.2621 39.8664 36.2997 39.9418 36.2335 40.2395C36.1952 40.4123 36.2402 40.6382 36.415 40.8291C36.5024 40.9261 36.6274 40.9081 36.6825 40.8019C36.7619 40.6494 36.6975 40.5288 36.8387 40.444C37.1192 40.2751 37.2147 40.2001 37.0261 40.0175C36.8409 39.836 37.1935 39.7179 37.1333 39.609C37.0727 39.4993 36.8737 39.5185 36.942 38.9381C37.0012 38.3587 36.9679 38.0459 36.9587 37.8292C36.9447 37.6123 36.7189 37.1831 36.6966 36.8302C36.6896 36.7341 36.6693 36.6093 36.6438 36.4765C36.5758 36.1209 36.4704 35.6962 36.4602 35.4833C36.4442 35.1902 36.3166 35.2115 36.1958 34.9947Z" fill="#A4A4A4"/>
<path d="M14.4982 220.458C14.4212 220.079 14.6795 219.792 14.6228 219.338C14.5744 218.882 14.458 218.805 14.4999 218.281C14.517 218.062 14.517 217.838 14.513 217.635C14.5133 217.633 14.5132 217.626 14.5134 217.623C14.4631 217.343 14.3575 217.292 14.2909 217.185C14.2182 217.091 14.1585 217.016 14.1204 216.956C13.9863 216.752 13.8938 216.793 13.6828 216.528C13.468 216.266 13.3159 216.127 13.0994 215.924C12.8792 215.724 12.2724 215.049 12.0823 214.779C11.8866 214.519 11.6514 214.215 11.5904 213.996C11.5712 213.932 11.5658 213.874 11.5734 213.832C11.5764 213.814 11.5792 213.807 11.5791 213.807C11.5792 213.807 11.5749 213.818 11.5717 213.841C11.5559 213.954 11.6204 214.116 11.7124 214.291C11.894 214.618 11.9274 214.64 12.2242 215.046C12.5249 215.446 12.6896 215.703 13.0793 216.143C13.4711 216.577 13.4805 216.765 13.9974 217.375C14.0855 217.477 14.1553 217.615 14.1465 217.616C14.1117 218.094 13.9387 218.255 13.8291 218.929C13.6894 219.758 13.8034 220.806 13.7838 221.303C13.7828 221.321 13.7818 221.34 13.7807 221.359C13.7811 221.363 13.7812 221.375 13.7817 221.38C13.7787 221.87 13.7496 222.513 13.8161 223.185C13.8926 223.883 13.7592 224.755 13.8919 225.525C14.0276 226.291 14.2428 227.375 14.3925 227.87C14.5408 228.368 14.5821 228.489 14.5359 228.979C14.5092 229.256 14.5729 229.645 14.7713 229.956C14.8711 230.112 14.9927 230.071 15.0354 229.901C15.0976 229.653 15.0239 229.465 15.1585 229.328C15.4269 229.062 15.5182 228.954 15.3176 228.652C15.1208 228.352 15.4692 228.181 15.4034 228.003C15.3379 227.823 15.1362 227.841 15.1834 226.907C15.2229 225.973 15.185 225.47 15.1715 225.118C15.1534 224.765 14.9212 224.046 14.8991 223.474C14.8723 222.923 14.6988 221.826 14.6872 221.328L14.6884 221.352C14.6888 221.333 14.6894 221.316 14.6901 221.299C14.7111 220.835 14.5823 220.834 14.4982 220.458Z" fill="#A4A4A4"/>
<path d="M17.2981 207.462C17.2157 207.098 17.4679 206.806 17.3927 206.362C17.3235 205.918 17.2025 205.852 17.2077 205.341C17.2083 204.891 17.1463 204.439 17.1563 204.182C17.1581 204.153 17.1611 204.122 17.1652 204.096C17.199 203.871 17.1015 203.842 17.1332 203.52C17.1631 203.198 17.1571 203.002 17.1522 202.718C17.142 202.434 17.2152 201.567 17.2604 201.254C17.2997 200.941 17.3226 200.58 17.35 200.365C17.3577 200.298 17.364 200.245 17.3689 200.204C17.371 200.187 17.372 200.179 17.3721 200.179C17.3721 200.179 17.3704 200.192 17.3675 200.214C17.3532 200.32 17.332 200.48 17.3014 200.668C17.2415 201.018 17.2466 201.057 17.1739 201.531C17.1016 202.005 17.0239 202.287 16.9788 202.85C16.9488 203.373 16.82 203.514 16.8003 204.17C16.8007 204.227 16.8025 204.283 16.8058 204.341C16.8634 205.138 16.6722 205.221 16.5817 206.018C16.4901 206.815 16.6097 207.818 16.5908 208.298C16.5651 208.777 16.5031 209.426 16.5439 210.102C16.5915 210.778 16.4272 211.622 16.5126 212.354C16.5157 212.379 16.5188 212.403 16.5219 212.428C16.5228 212.44 16.5234 212.476 16.5255 212.488C16.6838 213.196 16.8673 214.18 16.9952 214.645C17.1275 215.127 17.1623 215.244 17.1032 215.721C17.073 215.993 17.1175 216.385 17.3707 216.683C17.5153 216.829 17.5974 216.708 17.6204 216.58C17.6549 216.364 17.5859 216.181 17.7198 216.054C17.9898 215.801 18.0843 215.7 17.8932 215.411C17.7063 215.118 18.0605 214.958 18.0005 214.784C17.9395 214.609 17.7439 214.624 17.8076 213.711C17.8433 213.099 17.8244 212.668 17.8028 212.347L17.8067 212.411C17.811 212.254 17.8117 212.121 17.813 212.008C17.8144 211.661 17.613 210.956 17.6137 210.402C17.6082 209.848 17.4722 208.729 17.4959 208.277C17.5154 207.824 17.3866 207.826 17.2981 207.462Z" fill="#A4A4A4"/>
<path d="M23.1009 161.786C23.0081 163.668 22.1648 165.049 21.9675 167.33C21.7696 169.608 22.0758 169.997 21.6575 172.58C21.5595 173.183 21.4781 173.784 21.4062 174.366C21.1685 176.296 21.0096 178.034 20.7517 178.895C20.4145 180.008 20.8275 180.213 20.421 181.809C20.0056 183.406 19.8411 184.386 19.6397 185.821C19.5909 186.167 19.4971 186.68 19.3776 187.285L19.388 187.251C18.924 189.245 18.663 192.046 18.3549 193.261C18.1738 194.014 18.0983 194.833 18.0647 195.605C18.0385 196.466 18.0967 197.291 18.223 197.875C18.2906 198.222 18.3726 198.483 18.4409 198.683C18.4701 198.767 18.5055 198.803 18.5329 198.798C18.5329 198.798 18.5329 198.797 18.5329 198.797C18.5669 198.791 18.5889 198.723 18.5726 198.61C18.4891 198.063 18.415 197.255 18.6358 196.311C18.6846 196.078 18.7269 195.869 18.7613 195.68C19.0125 194.45 18.8775 193.997 19.2687 191.911C19.6014 190.239 19.907 188.93 20.3033 187.579C20.3075 187.567 20.3195 187.529 20.3224 187.516C20.4882 186.877 20.6548 186.169 20.8062 185.33C21.2973 182.473 22.0894 181.933 22.3864 177.833C22.4817 176.378 22.6203 175.394 22.7963 174.555C23.1134 173.035 23.5587 171.974 23.95 169.389C24.5554 165.374 24.8302 160.252 25.1909 157.835C25.3822 156.546 25.6231 155.003 25.8845 153.349C26.1132 151.908 26.3518 150.363 26.5831 148.781C26.8911 146.691 27.396 144.328 28.0274 142.016C28.4191 140.667 29.0417 139.116 29.3104 137.609C29.3686 137.31 29.4232 136.999 29.4733 136.682C30.0293 132.93 30.4124 128.162 30.5283 125.845C30.6403 123.458 30.6656 122.792 30.8704 120.659C30.8802 120.551 30.8896 120.442 30.8989 120.327C31.0207 118.935 30.9119 116.999 30.5563 115.416C30.3827 114.62 30.2806 114.815 30.3074 115.631C30.344 116.818 30.4414 117.788 30.2993 118.398C30.0878 119.295 29.9533 119.795 29.931 120.604C29.9217 120.897 29.927 121.234 29.9453 121.643C30.0119 123.193 29.5357 123.883 29.4964 124.779C29.4437 125.675 29.7304 125.695 28.9697 130.209C28.498 132.913 28.1266 134.883 27.7998 136.349C27.5787 137.32 27.353 138.073 27.1387 138.709C26.9276 139.372 26.577 140.31 26.264 141.551C25.8688 143.203 25.5223 145.129 25.1742 146.767C24.839 148.324 24.431 150.795 24.076 153.074C23.7949 154.876 23.5502 156.566 23.3587 157.575C22.9281 159.864 23.1948 159.906 23.1009 161.786Z" fill="#A4A4A4"/>
<defs>
<linearGradient id="paint0_linear_524_1154" x1="15.6649" y1="256.751" x2="17.4066" y2="271.641" gradientUnits="userSpaceOnUse">
<stop stop-color="#D9D9D9"/>
<stop offset="1" stop-color="#737373"/>
</linearGradient>
</defs>
</svg>
