<svg width="278" height="241" viewBox="0 0 278 241" fill="none" xmlns="http://www.w3.org/2000/svg">
<path d="M276.531 143.269C276.531 168.765 275.487 196.428 270.619 214.369C266.395 229.939 221.244 237.958 221.244 237.958C201.424 240.616 195.971 240.616 167.696 240.616C145.095 240.616 128.614 240.777 102.674 237.958C76.3657 235.1 59.9387 231.828 34.174 225.998C20.9609 223.008 14.4483 221.109 7.05234 212.044C-2.68381 200.11 1.1412 188.154 1.1412 172.507C1.1412 149.25 3.5762 136.063 7.05234 112.37C9.89914 92.9668 10.7957 81.7204 17.4837 63.1984C22.5566 49.1493 23.8385 39.7512 34.174 28.6451C46.2043 15.718 57.5927 12.4442 74.8485 7.48383L75.2042 7.38157C87.8194 3.75485 105.842 1.06895 119.016 1.06896C140.227 1.06897 141.618 -0.375756 167.696 2.73016C187.633 5.10466 199.262 6.54846 217.767 14.0264C232.91 20.1458 243.109 22.7971 253.929 34.6255C265.313 47.0705 269.774 73.8302 270.619 80.1429C274.269 107.387 276.531 116.69 276.531 143.269Z" fill="url(#paint0_linear_524_1146)"/>
<path d="M271.923 214.723C271.054 214.487 270.185 214.251 269.316 214.015C273.003 199.946 274.025 185.149 274.736 170.495C275.133 161.433 275.274 152.351 275.289 143.269C275.744 122.109 272.328 101.312 269.485 80.2948C266.95 64.4882 263.36 47.6493 253.14 35.3476C244.042 24.6284 230.403 20.1504 217.39 14.9587C201.617 8.18286 184.66 5.54929 167.586 3.65048C151.438 1.26477 135.376 1.73951 119.016 1.92131C104.348 2.08078 89.5834 4.26613 75.421 8.13561C60.4254 12.209 45.0428 17.1951 34.6959 29.1308C25.4421 38.3052 22.44 51.2685 18.0986 63.4205C12.0723 79.1148 10.0086 95.8189 7.62302 112.454C4.60208 132.405 1.39404 152.32 1.62564 172.507C1.69321 185.941 -2.1496 201.024 7.37906 211.777C13.591 220.414 24.1759 223.506 34.2565 225.633C56.8546 230.889 79.6157 235.306 102.703 237.692C124.271 240.22 145.991 240.519 167.696 240.448C185.597 240.493 203.508 240.632 221.233 237.873C225.251 237.13 229.252 236.219 233.215 235.205C246.806 231.045 263.816 228.057 270.619 214.369C270.619 214.369 270.619 214.369 270.619 214.369C263.852 228.087 246.835 231.132 233.249 235.336C229.286 236.363 225.287 237.287 221.259 238.043C203.537 240.858 185.59 240.775 167.696 240.785C145.997 240.922 124.244 240.689 102.645 238.225C79.5354 235.908 56.708 231.55 34.0915 226.362C24.0618 224.294 13.0664 221.101 6.72559 212.31C-3.12552 201.224 0.793304 185.723 0.656799 172.507C0.361359 152.259 3.52634 132.212 6.48163 112.287C8.80771 95.7053 10.8449 78.8031 16.8689 62.9764C21.1168 50.9954 24.1815 37.6054 33.6521 28.1595C44.1604 15.9325 60.0841 10.7122 74.9875 6.62753C89.3336 2.66547 104.111 0.428748 119.016 0.216606C135.194 -0.0154252 151.659 -0.535291 167.806 1.80984C184.832 3.64503 202.189 6.28864 218.144 13.0942C230.966 18.1699 245.251 22.8097 254.718 33.9035C265.62 47.0349 269.075 63.8697 271.754 79.9909C274.645 100.874 278.169 121.989 277.772 143.269C277.785 152.375 277.671 161.491 277.301 170.604C276.624 185.356 275.671 200.216 271.923 214.723ZM269.316 214.015L271.923 214.723L270.619 214.369L269.316 214.015Z" fill="black" fill-opacity="0.4"/>
<path d="M209.878 135.202C209.294 153.485 207.888 173.3 203.875 186.061C200.392 197.135 177.528 200.477 177.528 200.477C162.799 201.955 148.027 203.272 127.101 202.662C110.374 202.174 98.1731 201.933 79.0397 199.352C59.635 196.735 47.5525 194.034 28.6179 189.297C18.9075 186.868 14.1311 185.365 8.86504 178.705C1.93275 169.937 5.03742 161.446 5.39579 150.225C5.92844 133.548 7.62017 126.384 11.1478 107.229C13.6991 93.3763 15.5085 88.7203 19.9942 72.193C22.8051 61.8364 25.3962 50.4445 33.2998 42.7034C41.2033 34.9622 41.2319 33.0119 54.2654 29.79C63.6848 27.4615 81.532 27.8222 93.6269 28.1749C109.325 28.6327 113.32 29.2827 132.55 32.0727C147.25 34.2057 155.824 35.492 169.348 41.2538C180.414 45.9689 187.902 48.0902 195.639 56.8059C203.779 65.9759 206.468 85.2616 206.949 89.8067C209.026 109.422 210.487 116.142 209.878 135.202Z" fill="url(#paint1_linear_524_1146)"/>
<path d="M183.343 112.829C183.343 125.934 182.702 140.154 179.711 149.376C177.115 157.379 157.612 163.828 157.612 163.828C145.433 165.194 140.693 167.852 121.798 167.852C107.909 167.852 93.5784 165.276 77.638 163.828C61.4715 162.359 47.9202 159.885 32.0875 156.888C23.9679 155.351 22.2911 154.036 17.7462 149.376C11.7632 143.242 14.1137 135.901 14.1137 127.857C14.1137 115.903 15.3273 110.737 17.7462 96.9458C19.4956 86.9719 20.8732 83.5997 24.1564 71.6702C26.2138 64.1946 28.0614 55.9823 34.4127 50.2735C40.764 44.5648 40.736 43.1674 51.4625 40.5879C59.2147 38.7237 74.0293 38.6094 84.0719 38.6094C97.106 38.6094 100.438 38.9914 116.463 40.5879C128.715 41.8085 135.861 42.5506 147.232 46.3945C156.538 49.54 162.805 50.9028 169.454 56.983C176.45 63.38 179.191 77.1352 179.711 80.38C181.953 94.3841 183.343 99.166 183.343 112.829Z" fill="#170F51"/>
<path d="M180.353 149.584C179.925 149.445 179.496 149.306 179.068 149.167C181.56 141.149 182.125 132.562 182.508 124.1C182.654 120.347 182.711 116.587 182.716 112.829C182.989 101.921 180.883 91.2595 179.134 80.4723C177.574 72.1698 175.119 63.3504 169.084 57.3883C163.134 51.6181 154.888 49.5382 147.067 46.8837C137.218 43.3517 126.839 42.0375 116.416 41.0605C105.629 39.9386 94.9094 38.8822 84.0719 39.0414C73.1992 39.1209 62.1681 38.8402 51.5534 40.9659C48.3227 41.7658 45.0534 42.5389 42.2105 44.138C39.3882 45.7615 37.1887 48.3497 34.6549 50.543C28.605 55.8861 26.5514 64.0948 24.475 71.7579C22.1859 80.1688 19.4174 88.4061 18.0377 96.997C16.2131 107.236 14.1588 117.443 14.3685 127.857C14.3566 135.195 12.1265 143.704 17.9072 149.219C21.4902 153.545 26.6278 155.894 32.1253 156.689C47.2123 159.584 62.3448 162.315 77.6509 163.686C92.3849 164.994 106.996 167.702 121.798 167.769C133.895 168.174 145.681 165.378 157.608 163.792C158.05 163.644 158.538 163.471 159.011 163.298C166.691 160.14 175.768 157.183 179.711 149.376C179.711 149.376 179.711 149.376 179.711 149.376C175.787 157.197 166.711 160.181 159.034 163.362C158.561 163.535 158.073 163.71 157.623 163.862C145.711 165.478 133.905 168.309 121.798 167.936C106.973 167.908 92.3483 165.236 77.6252 163.969C62.3016 162.638 47.1449 159.943 32.0497 157.087C26.576 156.336 21.1481 153.853 17.5852 149.533C11.5948 143.825 13.8854 135.064 13.859 127.857C13.6198 117.409 15.661 107.115 17.4547 96.8947C18.8173 88.2652 21.578 79.9745 23.8378 71.5825C25.893 63.9454 27.9299 55.5569 34.1705 50.0041C36.6825 47.825 38.8489 45.228 41.8362 43.4869C44.8264 41.8 48.1229 41.0267 51.3716 40.21C62.1843 38.0189 73.1736 38.2901 84.0719 38.1774C94.9189 37.9881 105.744 39.0235 116.51 40.1154C126.913 41.0609 137.462 42.369 147.398 45.9053C155.137 48.5152 163.65 50.6264 169.825 56.5777C176.248 62.9346 178.647 71.8043 180.287 80.2878C182.052 90.9956 184.219 101.849 183.97 112.829C183.974 116.599 183.928 120.375 183.79 124.149C183.422 132.669 182.9 141.29 180.353 149.584ZM179.068 149.167L180.353 149.584L179.711 149.376L179.068 149.167Z" fill="black"/>
<g filter="url(#filter0_f_524_1146)">
<path d="M81.9728 105.748C79.3095 107.49 76.5095 107.649 73.2323 109.812C72.783 110.109 72.3993 110.379 72.0443 110.64C69.8862 112.233 69.3009 113.121 65.9811 114.994C62.1327 117.165 58.5638 119.828 56.7403 120.649C54.9193 121.478 55.1505 122.218 52.6935 123.652C52.026 124.052 51.443 124.443 50.9196 124.85C49.5502 125.917 48.5574 126.916 47.3434 128.256C45.6502 130.066 40.4177 135.477 38.2629 137.19C37.5775 137.726 36.9186 138.36 36.3053 138.983C35.3932 139.906 34.5667 140.88 33.8583 141.704C33.5179 142.1 33.2047 142.461 32.9219 142.766C32.5239 143.196 32.2268 143.551 32.0089 143.834C31.9163 143.954 31.9014 144.038 31.9353 144.075C31.9353 144.075 31.9353 144.075 31.9353 144.075C31.9784 144.12 32.0984 144.091 32.2436 143.966C32.7626 143.516 33.4874 142.92 34.3744 142.253C34.6911 142.015 35.0287 141.767 35.3851 141.514C36.2286 140.914 36.782 140.452 37.2626 140.001C38.2259 139.093 38.8727 138.219 40.935 136.385C44.0422 133.64 46.0923 132.202 49.5091 128.785C50.5339 127.773 51.4148 127.096 52.262 126.531C54.2144 125.27 56.1305 124.616 59.9874 121.707C65.5188 117.567 66.7805 118.248 72.7232 114.816C73.1684 114.559 73.625 114.289 74.0992 114.003C79.6012 110.634 86.1616 106.673 89.5337 104.843C91.7349 103.678 94.3895 102.28 97.257 100.672C99.1473 99.6125 101.121 98.4913 103.136 97.3192C107.037 95.0347 111.889 92.8104 116.516 90.428C117.633 89.8996 119.154 89.306 120.459 88.7152C126.248 86.1987 134.248 82.2345 137.928 79.7955C138.031 79.7301 138.131 79.6663 138.228 79.6042C141.792 77.3383 142.681 76.8125 146.318 74.9879C148.404 73.9329 151.213 72.325 153.351 70.5787C154.406 69.6701 154.012 69.693 152.82 70.3427C151.05 71.2743 149.649 72.1631 148.616 72.4302C146.54 72.9582 145.672 73.1901 143.528 74.728C141.386 76.264 139.949 76.2171 138.651 77.0316C138.063 77.4005 137.79 77.676 137.027 78.1926C136.116 78.8025 134.496 79.7927 130.6 81.4258C123.48 84.3433 119.462 85.661 116.686 86.7074C116.208 86.8901 115.721 87.0671 114.991 87.4305C112.132 88.9281 107.821 91.3697 104.225 93.1684C102.035 94.2558 98.7647 96.0502 95.6368 97.8045C92.618 99.4961 89.6945 101.084 87.9546 101.91C84.4204 103.586 84.6323 104.01 81.9728 105.748Z" fill="#C3C3C3"/>
</g>
<g filter="url(#filter1_f_524_1146)">
<path d="M130.932 113.653C129.382 114.341 127.794 113.516 125.838 114.243C124.908 114.59 124.396 114.937 123.866 115.258C123.282 115.612 122.694 115.931 121.497 116.209C119.212 116.741 117.096 117.817 116.018 117.867C114.94 117.919 115.063 118.697 113.588 118.967C112.611 119.149 111.898 119.382 111.181 119.758C110.834 119.943 110.491 120.156 110.118 120.406C108.993 121.13 105.483 123.023 104.049 123.38C103.48 123.517 102.939 123.793 102.456 124.088C101.915 124.414 101.424 124.788 101.002 125.093C100.824 125.221 100.66 125.337 100.508 125.432C100.244 125.598 100.046 125.749 99.9007 125.879C99.8392 125.934 99.8273 125.995 99.848 126.041C99.848 126.041 99.848 126.041 99.848 126.041C99.8743 126.097 99.9514 126.129 100.047 126.094C100.358 125.98 100.779 125.845 101.29 125.721C101.541 125.66 101.814 125.602 102.106 125.55C102.484 125.482 102.773 125.404 103.02 125.316C103.863 125.007 104.201 124.569 105.791 123.99C107.858 123.246 109.211 123.069 111.435 121.848C111.598 121.76 111.757 121.683 111.908 121.618C113.796 120.845 114.841 121.579 117.88 120.024C121.008 118.44 121.804 119.317 124.883 118.662C125.058 118.625 125.228 118.587 125.416 118.54C128.858 117.684 133.149 115.929 135.272 115.396C136.273 115.153 137.424 114.886 138.687 114.562C140.108 114.197 141.64 113.78 143.205 113.28C145.257 112.621 147.732 112.179 150.153 111.589C151.035 111.398 152.179 111.169 153.155 110.888C156.312 110.01 160.708 108.695 162.933 107.81C163.046 107.766 163.155 107.723 163.258 107.683C165.344 106.862 165.859 106.674 167.975 106.261C169.19 106.021 170.824 105.506 172.115 104.772C172.761 104.39 172.521 104.243 171.809 104.359C170.757 104.52 169.938 104.847 169.34 104.726C168.139 104.482 167.638 104.396 166.384 105.064C165.129 105.732 164.31 105.195 163.549 105.487C163.17 105.633 163.012 105.808 162.448 106.043C161.891 106.274 160.923 106.569 158.897 106.868C154.862 107.447 152.644 107.748 151.103 107.971C150.641 108.039 150.13 108.14 149.347 108.35C147.756 108.821 145.694 109.496 143.915 109.855C142.388 110.16 139.948 110.826 137.811 111.391C136.443 111.751 135.222 112.048 134.415 112.177C132.359 112.501 132.481 112.966 130.932 113.653Z" fill="#C3C3C3"/>
</g>
<g filter="url(#filter2_f_524_1146)">
<path d="M52.004 85.568C50.7842 87.0733 48.8769 87.281 47.3382 89.0145C47.3136 89.0422 47.2894 89.0696 47.2657 89.0968C45.7767 90.8112 45.9419 91.4972 44.0177 93.3227C42.0632 95.1866 40.6519 97.5342 39.7001 98.293C38.7444 99.0453 39.2734 99.6754 38.0967 100.802C38.0459 100.849 37.996 100.895 37.9501 100.937C36.783 102.034 36.2329 102.896 35.5515 104.161C34.8251 105.477 32.3396 109.259 31.131 110.402C30.8085 110.703 30.517 111.065 30.267 111.418C29.7912 112.086 29.4156 112.823 29.0936 113.451C28.928 113.774 28.7768 114.068 28.6328 114.31C28.4526 114.613 28.3291 114.866 28.2467 115.069C28.2115 115.155 28.2271 115.218 28.2667 115.249C28.2667 115.249 28.2668 115.249 28.2668 115.249C28.3166 115.287 28.4043 115.273 28.4803 115.186C28.7679 114.857 29.1874 114.418 29.727 113.933C29.8794 113.796 30.0416 113.656 30.213 113.513C30.8043 113.02 31.1133 112.654 31.3852 112.269C31.7868 111.699 32.0892 111.088 33.0562 109.971C34.6917 108.089 35.9017 107.141 37.4638 104.698C38.1965 103.567 38.8954 103.022 39.6334 102.446C40.5778 101.668 41.4194 100.823 42.5485 98.9281C44.704 95.3971 45.9207 95.9041 48.8602 93.1447C49.2593 92.7767 49.6611 92.3899 50.0726 91.9833C52.7406 89.3169 55.3615 86.1379 57.0277 84.8808C58.1181 84.0339 59.4607 83.0893 60.9652 82.2021C62.2216 81.4606 63.4605 80.5698 64.6357 79.5799C67.4075 77.2757 70.8639 74.546 73.6347 72.0894C73.7662 71.9742 73.9085 71.8529 74.0457 71.7379C76.5106 69.866 80.7111 67.7158 82.9481 66.4678C83.1795 66.3409 83.3962 66.2205 83.5916 66.11C85.8119 64.8392 86.3448 64.533 88.6038 63.5649C89.8919 62.994 91.6162 62.0223 92.7603 60.7409C93.2975 60.0583 92.9831 60.0747 92.3118 60.4742C91.2837 61.0419 90.4654 61.598 89.796 61.6599C88.4549 61.7649 87.9108 61.8084 86.661 62.784C85.402 63.7551 84.4218 63.3984 83.6354 63.8506C83.1843 64.1077 83.0516 64.3462 82.2114 64.7903C81.5678 65.13 80.5216 65.5831 78.6346 66.3C75.7778 67.4072 73.8754 68.1976 72.2413 69.2007C71.4566 69.7113 70.8488 70.1592 70.3303 70.541C68.8509 71.6154 66.3439 74.3592 64.0714 76.0282C62.8723 76.9103 61.0706 78.3193 59.2691 79.379C57.4529 80.4521 55.8902 81.6453 54.9322 82.2915C52.9162 83.6826 53.2432 84.0675 52.004 85.568Z" fill="#C3C3C3"/>
</g>
<defs>
<filter id="filter0_f_524_1146" x="22.4628" y="60.4182" width="140.957" height="93.1324" filterUnits="userSpaceOnUse" color-interpolation-filters="sRGB">
<feFlood flood-opacity="0" result="BackgroundImageFix"/>
<feBlend mode="normal" in="SourceGraphic" in2="BackgroundImageFix" result="shape"/>
<feGaussianBlur stdDeviation="4.72793" result="effect1_foregroundBlur_524_1146"/>
</filter>
<filter id="filter1_f_524_1146" x="90.3828" y="94.8644" width="91.5646" height="40.7008" filterUnits="userSpaceOnUse" color-interpolation-filters="sRGB">
<feFlood flood-opacity="0" result="BackgroundImageFix"/>
<feBlend mode="normal" in="SourceGraphic" in2="BackgroundImageFix" result="shape"/>
<feGaussianBlur stdDeviation="4.72793" result="effect1_foregroundBlur_524_1146"/>
</filter>
<filter id="filter2_f_524_1146" x="18.7712" y="50.7404" width="83.7174" height="73.984" filterUnits="userSpaceOnUse" color-interpolation-filters="sRGB">
<feFlood flood-opacity="0" result="BackgroundImageFix"/>
<feBlend mode="normal" in="SourceGraphic" in2="BackgroundImageFix" result="shape"/>
<feGaussianBlur stdDeviation="4.72793" result="effect1_foregroundBlur_524_1146"/>
</filter>
<linearGradient id="paint0_linear_524_1146" x1="276.531" y1="120.676" x2="0.400665" y2="120.676" gradientUnits="userSpaceOnUse">
<stop/>
<stop offset="1" stop-color="#343333"/>
</linearGradient>
<linearGradient id="paint1_linear_524_1146" x1="48.0188" y1="143.683" x2="229.816" y2="84.1471" gradientUnits="userSpaceOnUse">
<stop stop-color="#666666"/>
<stop offset="1" stop-color="#666666"/>
</linearGradient>
</defs>
</svg>
