<svg width="140" height="244" viewBox="0 0 140 244" fill="none" xmlns="http://www.w3.org/2000/svg">
<path d="M133.496 231.687L133.671 227.177L128.478 225.847L122.986 228.194L120.339 232.873C122.979 238.514 125.148 240.978 125.902 241.505L130.613 241.312L136.344 237.772L133.496 231.687Z" fill="url(#paint0_linear_524_1156)"/>
<path d="M133.496 231.687L133.671 227.177L128.478 225.847L122.986 228.194L120.339 232.873M133.496 231.687L127.916 235.55M133.496 231.687L136.344 237.772M127.916 235.55L122.999 236.172M127.916 235.55L130.613 241.312M122.999 236.172L120.339 232.873M122.999 236.172L125.902 241.505M120.339 232.873C122.979 238.514 125.148 240.978 125.902 241.505M125.902 241.505L130.613 241.312M130.613 241.312L136.344 237.772M136.344 237.772L137.18 233.047L133.95 226.913" stroke="black" stroke-width="1.35084"/>
<path d="M4.69946 45.4499C0.10582 28.1818 0.690414 0.015625 0.690414 0.015625H13.4464C13.4464 0.015625 11.1938 20.3312 13.4464 33.0587C15.1613 42.7479 17.4115 47.9675 21.1001 57.1526C26.9464 71.7113 32.4295 78.9836 40.4163 92.6051C52.147 112.612 59.6715 123.33 72.853 142.514C84.9516 160.122 92.8633 169.285 104.925 186.916C115.537 202.426 125.699 213.763 131.166 227.187C132.104 229.49 130.149 231.461 127.886 232.694C125.667 233.904 122.769 234.693 121.326 232.694C104.925 209.977 99.2072 201.862 85.609 181.753C70.5127 159.428 62.8309 149.893 48.0699 127.369C38.7166 113.097 32.3122 102.286 24.0157 87.4421C15.1779 71.6303 9.31243 62.7906 4.69946 45.4499Z" fill="#5B5B5B"/>
<path d="M0.0151367 0.00160947C0.465317 0.0109532 0.915512 0.0202968 1.36569 0.0296405C1.25053 9.23978 1.55508 18.5001 2.41992 27.6894C3.00142 33.6207 3.80273 39.5636 5.29844 45.2905C8.92879 60.3513 16.9103 73.6992 24.5075 87.1673C32.0441 100.758 39.9574 114.108 48.4937 127.091C60.4531 145.6 73.6827 163.186 85.9622 181.514C97.51 198.76 109.449 215.661 121.61 232.489C122.942 234.358 125.785 233.448 127.722 232.394C129.649 231.374 131.775 229.422 130.857 227.313C124.687 212.469 113.595 200.419 104.699 187.071C94.4752 171.935 82.9514 157.763 72.6814 142.632C61.4205 126.279 50.2241 109.89 40.2991 92.6738C33.5024 81.0566 25.8458 69.8386 21.0197 57.1849C17.8357 49.3719 14.7149 41.4477 13.3915 33.0684C12.3863 27.1077 12.3262 21.0269 12.4598 14.9928C12.5935 9.99056 12.9147 4.97121 13.431 0.0139155L13.4464 0.0311369C9.19443 0.0259663 4.94242 0.0207956 0.690414 0.015625C4.94242 0.0104544 9.19443 0.00528371 13.4464 0.000113063L13.4638 0.000134129L13.4619 0.0173345C12.9578 4.97437 12.6488 9.99395 12.5273 14.9945C12.4083 21.026 12.4839 27.1049 13.5014 33.049C14.8444 41.4169 17.9759 49.3105 21.1804 57.1204C26.0315 69.7467 33.6997 80.9215 40.5334 92.5364C50.4969 109.722 61.7215 126.067 73.0246 142.396C83.3198 157.486 94.877 171.628 105.152 186.76C114.059 200.063 125.19 212.067 131.475 227.061C132.585 229.757 130.02 231.941 128.05 232.994C126.058 234.053 122.888 235.292 121.042 232.899C108.841 216.104 96.8469 199.211 85.2559 181.991C72.9474 163.716 59.6687 146.153 47.6461 127.647C39.0673 114.668 31.0985 101.299 23.5239 87.717C15.9287 74.329 7.80029 60.8069 4.10047 45.6092C2.56184 39.7728 1.74361 33.786 1.14267 27.8138C0.249741 18.5595 -0.0781555 9.28734 0.0151367 0.00160947ZM1.36569 0.0296405L0.0151367 0.00160947L0.0148468 0.0148035L0.690414 0.015625L1.36569 0.0296405Z" fill="black"/>
<path d="M59.7234 131.704C59.41 131.301 59.1518 130.892 58.8927 130.476C58.29 129.475 57.9009 128.334 56.9824 127.081C55.7174 125.333 55.2421 125.248 53.9992 123.101C53.73 122.632 53.4508 122.169 53.1768 121.722C52.1715 120.081 51.1005 118.723 50.7195 117.939C50.2416 116.939 49.7721 117.087 49.1014 115.711C49.0051 115.502 48.9193 115.307 48.8429 115.121C48.346 113.97 47.8296 113.257 47.113 112.319C46.4983 111.513 45.0474 109.456 44.0809 107.839C44.0788 107.835 44.0716 107.825 44.0693 107.821C43.6361 107.227 43.254 106.767 43.0573 106.404C43.0048 106.312 42.9508 106.219 42.8955 106.127C42.1719 104.911 41.2044 103.644 40.693 102.804C40.5224 102.522 40.3792 102.306 40.262 102.143C40.2123 102.074 40.1694 102.051 40.1445 102.064C40.1445 102.064 40.1445 102.064 40.1445 102.064C40.1135 102.079 40.1104 102.149 40.1548 102.248C40.372 102.726 40.6767 103.45 41.018 104.325C41.4562 105.428 41.7617 105.802 42.2988 106.544C42.554 106.898 42.9092 107.339 43.344 107.931C43.4112 108.026 43.4741 108.119 43.5336 108.212L43.5164 108.186C44.5276 110.068 45.1435 111.342 46.616 113.459C47.201 114.313 47.5058 114.981 47.7269 115.634C48.1543 116.834 48.7019 117.918 50.2041 119.774C51.1042 120.891 51.5988 121.703 51.9646 122.447C52.6007 123.729 52.9078 124.794 54.1858 126.881C55.1327 128.411 56.2768 130.052 57.5071 131.549C58.7801 133.096 59.8164 134.902 60.6737 135.94C60.822 136.13 60.9818 136.324 61.1551 136.519C62.5284 138.048 63.9141 140.414 66.0079 142.605C66.0714 142.669 66.135 142.734 66.1986 142.798C67.5492 144.163 68.9384 145.849 70.3123 147.582C71.2775 148.798 72.2519 150.026 73.221 151.163C74.2689 152.393 75.4933 153.864 76.6388 155.294C78.0956 157.094 79.4797 158.735 80.2464 159.795C80.7281 160.444 81.0633 160.941 81.3443 161.391C81.8874 162.264 82.2556 162.926 82.9479 164.264C83.5623 165.426 84.4481 167.011 85.4701 168.195C86.0247 168.758 85.9777 168.537 85.5882 167.894C85.0435 166.919 84.5517 166.127 84.3916 165.546C84.0833 164.383 83.9446 163.894 83.0629 162.697C82.5454 161.994 82.3363 161.429 82.1546 160.93C82.0242 160.576 81.9026 160.258 81.6958 159.959C81.1732 159.255 81.0591 159.309 78.5688 155.706C78.2735 155.277 77.9963 154.873 77.7375 154.489C75.792 151.62 74.5558 149.999 73.6845 148.825C73.2393 148.229 72.5262 147.38 71.7205 146.44C70.7252 145.276 69.5711 143.982 68.597 142.838C68.241 142.418 67.7995 141.921 67.3045 141.386C65.6868 139.629 63.8741 136.839 62.5063 135.282C62.3592 135.109 62.2324 134.943 62.1255 134.792C60.9964 133.084 60.8385 133.137 59.7234 131.704Z" fill="#A4A4A4"/>
<path d="M6.77312 22.0238C6.56977 21.2418 7.18634 20.5718 7.01609 19.6067C6.92842 19.1132 6.78847 18.8384 6.67154 18.5456C6.67116 18.5311 6.66374 18.4885 6.66216 18.4741C6.52655 18.1987 6.40845 17.8996 6.33933 17.3566C6.19639 16.2391 5.70739 15.2085 5.73506 14.6947C5.76203 14.1804 5.32529 14.2298 5.25715 13.5274C5.18962 12.8261 5.03568 12.4289 4.76707 11.8693C4.65183 11.6252 4.47935 11.1366 4.38434 10.6256L4.38582 10.6427C4.30823 9.95521 4.30651 9.19301 4.39984 8.81037C4.56713 8.12902 4.2649 7.3518 4.19305 6.88294C4.17069 6.73689 4.14015 6.62214 4.10837 6.53408C4.09489 6.49676 4.0667 6.4795 4.03888 6.47949C4.03886 6.47949 4.03884 6.47949 4.03882 6.47949C4.00417 6.4795 3.97011 6.50626 3.96573 6.55421C3.94451 6.78696 3.88833 7.13467 3.76339 7.54617C3.53181 8.31468 3.7875 8.39577 3.68263 9.43689C3.63749 9.90364 3.57045 10.2883 3.53683 10.6906C3.53764 10.6974 3.53855 10.7177 3.53976 10.7244C3.53589 11.2533 3.60779 11.7543 3.84089 12.4013C4.2658 13.5599 3.70847 13.981 4.45531 15.5615C5.14314 17.0387 4.64512 17.4237 4.74276 18.8081L4.73095 18.718C4.72894 18.8176 4.7295 18.9235 4.73317 19.0368C4.78917 20.7332 5.30189 22.8592 5.33573 23.8909C5.36982 24.9215 5.37351 26.3107 5.55494 27.7673C5.73724 29.2223 5.62677 31.0487 5.93749 32.6655C6.14935 33.6904 6.33989 34.9459 6.80673 36.0991C7.09159 36.7001 7.39383 37.1867 7.61517 37.5184C8.22758 38.4107 8.38484 38.6095 8.84639 39.5281C9.11462 40.0542 9.59717 40.7096 10.1294 41.1699C10.3972 41.4011 10.4528 41.2666 10.3064 40.9513C10.0934 40.4901 9.81963 40.1784 9.80828 39.8788C9.78774 39.2804 9.77396 39.0412 9.29096 38.583C8.80898 38.1193 9.0196 37.6554 8.807 37.355C8.62554 37.0703 8.35128 37.1532 7.91219 35.7005C7.89765 35.6366 7.87733 35.5337 7.86471 35.4361C7.68691 33.6483 7.70966 32.5324 7.67674 31.8177C7.65766 31.0881 7.34095 29.5849 7.3401 28.3878C7.3374 27.1924 7.12303 24.7682 7.18296 23.7799C7.24317 22.7913 6.97557 22.8066 6.77312 22.0238Z" fill="#A4A4A4"/>
<defs>
<linearGradient id="paint0_linear_524_1156" x1="125.939" y1="226.932" x2="131.856" y2="240.781" gradientUnits="userSpaceOnUse">
<stop stop-color="#D9D9D9"/>
<stop offset="1" stop-color="#737373"/>
</linearGradient>
</defs>
</svg>
