<svg width="272" height="80" viewBox="0 0 272 80" fill="none" xmlns="http://www.w3.org/2000/svg">
<path d="M262.166 23.364L262.322 12.2315C262.322 12.2315 234.997 21.0207 216.825 25.4141C193.533 31.0457 182.334 30.0346 158.513 30.0357C135.681 30.0367 124.567 31.8512 100.949 28.4772C82.4471 25.8341 70.2243 24.5825 54.7111 19.1339C45.4168 15.8695 33.6036 17.9742 25.1723 12.5614C19.3956 8.85295 11.4884 1.21204 11.4884 1.21204L8.21251 10.338C8.21251 10.338 13.2741 21.3976 19.1921 25.7305C28.0058 32.1837 38.358 29.2947 48.418 32.893C69.1001 40.2906 80.8847 40.9082 100.948 43.2805C125.572 46.192 139.627 45.5352 164.379 44.2203C184.932 43.1285 196.705 44.8504 216.825 39.9887C235.039 35.5872 262.166 23.364 262.166 23.364Z" fill="url(#paint0_linear_524_1153)" stroke="url(#paint1_linear_524_1153)" stroke-width="1.35084"/>
<path d="M270.635 39.1315C270.635 29.8286 269.617 20.2425 264.73 14.4955C260.21 9.17964 262.747 23.3622 259.514 25.1273C249.778 30.4432 243.313 32.8134 230.995 35.809C207.785 41.4536 191.28 41.5504 170.145 42.7861C143.309 44.3553 123.3 43.2419 97.8209 41.1249C73.8287 39.1315 69.1741 38.0554 50.8796 34.1478C33.9061 30.5224 22.7147 26.8385 12.9788 16.5389C8.888 12.2113 12.774 3.1126 8.45847 7.23609C6.37219 9.22956 3.24277 16.5389 3.24277 16.5389C0.113342 29.4964 -0.92981 35.1445 1.8519 46.1086C3.64035 53.1576 13.2569 59.5773 23.7642 63.6676C33.1524 67.3222 35.2387 68.6512 52.9659 72.688C77.9362 78.3743 92.9889 78.0899 119.385 78.9508C143.135 79.7253 157.588 78.1976 181.272 76.3427C202.366 74.6907 214.327 73.4196 234.82 68.3689C247.253 65.3047 251.511 62.7207 262.985 56.0759C269.955 52.0398 270.635 46.1487 270.635 39.1315Z" fill="url(#paint2_linear_524_1153)"/>
<path d="M264.215 14.9331C264.558 14.6414 264.901 14.3497 265.244 14.058C270.952 21.2433 271.158 30.6217 271.283 39.1315C271.279 41.2368 271.227 43.3655 270.893 45.4918C270.348 50.0801 267.39 54.4449 263.3 56.6189C254.512 61.8769 245.126 66.8135 234.963 68.9466C217.409 73.4749 199.342 75.618 181.314 76.8791C160.729 78.522 140.072 80.3069 119.37 79.4233C97.1376 78.7562 74.6346 78.4489 52.8765 73.0805C42.9081 70.8899 32.9971 68.0555 23.6298 64.0126C14.9458 60.3275 4.93353 55.8704 1.52252 46.1921C-1.47333 36.4297 0.46344 26.0658 2.94312 16.4665L2.95938 16.4176C4.46069 13.165 5.80527 9.82764 8.2533 7.02136C8.67575 6.63234 9.06201 6.24755 9.65439 5.98347C9.81369 5.92166 9.99597 5.86901 10.2162 5.90786C10.447 5.94518 10.6391 6.1252 10.7276 6.27619C10.9147 6.59559 10.951 6.88506 10.996 7.17617C11.1256 8.30053 11.0912 9.38606 11.1695 10.4615C11.3047 12.5906 11.7359 14.8127 13.1846 16.3443C22.7882 27.0398 37.2258 31.023 50.9294 33.9146C66.3658 37.5279 82.0264 39.7799 97.8365 40.937C121.875 43.0533 146.031 44.1923 170.139 42.674C190.543 41.6248 211.103 40.8261 230.984 35.7626C235.31 34.7128 239.625 33.5837 243.837 32.1535C249.277 30.33 254.474 27.8684 259.507 25.1136C261.436 23.4439 261.176 20.5406 261.529 18.1635C261.66 16.9321 261.747 15.68 262.088 14.4808C262.175 14.1967 262.293 13.8824 262.477 13.6419C262.652 13.3877 262.996 13.239 263.294 13.3381C263.89 13.532 264.312 14.0208 264.73 14.4955C264.311 14.0217 263.888 13.5338 263.293 13.3418C262.996 13.244 262.656 13.3921 262.482 13.6455C262.299 13.8853 262.182 14.1992 262.095 14.4831C261.758 15.6814 261.673 16.9335 261.544 18.1651C261.193 20.5453 261.476 23.4382 259.522 25.1411C254.494 27.9069 249.299 30.3811 243.859 32.2174C239.646 33.6576 235.332 34.7963 231.007 35.8555C211.129 40.9633 190.545 41.8068 170.152 42.8983C146.036 44.4684 121.852 43.3791 97.8053 41.3128C82.0007 40.1908 66.2635 37.9608 50.8297 34.3811C37.1215 31.5185 22.5183 27.5383 12.7729 16.7335C11.1704 15.0381 10.7362 12.6717 10.5906 10.4999C10.3853 8.62605 10.887 4.7676 8.66367 7.45083C6.40845 10.0382 4.98557 13.4578 3.52615 16.6602L3.54242 16.6113C1.08121 26.2572 -0.795868 36.3572 2.1813 46.025C5.37009 55.1553 15.2907 59.7317 23.8985 63.3225C33.3116 67.3572 43.0648 70.1182 53.0552 72.2956C74.7559 77.5997 97.1285 77.8564 119.401 78.4782C140.056 79.3156 160.624 77.4944 181.23 75.8064C199.264 74.505 217.181 72.3417 234.678 67.7911C244.779 65.6358 253.829 60.8378 262.671 55.5328C266.513 53.4401 269.084 49.6338 269.625 45.2923C269.938 43.2819 269.987 41.2117 269.987 39.1315C269.876 30.7151 269.506 21.4954 264.215 14.9331ZM265.244 14.058L264.215 14.9331L264.73 14.4955L265.244 14.058Z" fill="black"/>
<defs>
<linearGradient id="paint0_linear_524_1153" x1="137.246" y1="3.07521" x2="139.547" y2="45.2076" gradientUnits="userSpaceOnUse">
<stop stop-color="#D9D9D9"/>
<stop offset="1" stop-color="#737373"/>
</linearGradient>
<linearGradient id="paint1_linear_524_1153" x1="137.246" y1="3.07521" x2="139.547" y2="45.2076" gradientUnits="userSpaceOnUse">
<stop stop-color="#D9D9D9"/>
<stop offset="1" stop-color="#737373"/>
</linearGradient>
<linearGradient id="paint2_linear_524_1153" x1="270.641" y1="42.6731" x2="0.238544" y2="42.6731" gradientUnits="userSpaceOnUse">
<stop/>
<stop offset="1" stop-color="#363535"/>
</linearGradient>
</defs>
</svg>
